<svg width="100" height="100" viewBox="0 0 100 100" fill="none" xmlns="http://www.w3.org/2000/svg">
<path d="M88.5 22.7999L50.6 5.09995C50.2 4.89995 49.7 4.89995 49.3 5.09995L11.5 22.7999C11 22.9999 10.6 23.6 10.6 24.2V40.4C10.6 69.4 24.8 89.3 49.7 94.9H50.3C75.1 89.2 89.4 69.4 89.4 40.4V24.2C89.4 23.6 89.1 23.0999 88.5 22.7999ZM70.8 81.3C65.6 86.1 59.1 89.5 51.5 91.5V76.3H54.6C55.4 76.3 56.1 75.6 56.1 74.8V71.4C57.8 70.9 59.3 70.3 60.8 69.4L63.2 71.8C63.8 72.4 64.7 72.4 65.3 71.8L67.5 69.6L70.8 72.9V81.3ZM34.7 71.8C35.3 72.4 36.3 72.4 36.8 71.8L39.2 69.4C40.7 70.2 42.3 70.9 43.9 71.4V74.8C43.9 75.6 44.6 76.3 45.4 76.3H48.5V91.6C40.9 89.6 34.5 86.1 29.2 81.4V73L32.5 69.7L34.7 71.8ZM68.8 54.2999C68.3 56.3999 67.5 58.3999 66.3 60.2999C65.9 60.8999 66 61.7 66.5 62.2L68.6 64.3L64.2 68.6999L62.1 66.5999C61.6 66.0999 60.8 66 60.2 66.4C58.4 67.6 56.3 68.4 54.2 68.9C53.5 69.1 53 69.7 53 70.4V73.4H46.8V70.4C46.8 69.7 46.3 69.1 45.6 68.9C43.5 68.4 41.4 67.6 39.6 66.4C39 66 38.2 66.0999 37.7 66.5999L35.6 68.6999L31.2 64.3L33.3 62.2C33.8 61.7 33.9 60.8999 33.5 60.2999C32.3 58.4999 31.5 56.3999 31 54.2999C30.8 53.5999 30.2 53.0999 29.5 53.0999H26.5V46.9H29.5C30.2 46.9 30.8 46.4 31 45.7C31.5 43.6 32.3 41.5 33.5 39.7C33.9 39.1 33.8 38.2999 33.3 37.7999L31.2 35.7L35.6 31.2999L37.7 33.4C38.2 33.9 39 33.9999 39.6 33.5999C41.4 32.3999 43.5 31.6 45.6 31.1C46.3 30.9 46.8 30.3 46.8 29.6V26.6H53V29.6C53 30.3 53.5 30.9 54.2 31.1C56.3 31.6 58.4 32.3999 60.2 33.5999C60.8 33.9999 61.6 33.9 62.1 33.4L64.2 31.2999L68.6 35.7L66.5 37.7999C66 38.2999 65.9 39.1 66.3 39.7C67.5 41.5 68.3 43.6 68.8 45.7C69 46.4 69.6 46.9 70.3 46.9H73.3V53.0999H70.3C69.5 53.0999 68.9 53.5999 68.8 54.2999ZM29.2 17.8L48.5 8.79995V23.7H45.4C44.6 23.7 43.9 24.4 43.9 25.2V28.6C42.2 29.1 40.7 29.7 39.2 30.6L36.8 28.2C36.2 27.6 35.3 27.6 34.7 28.2L32.5 30.4L29.2 27.1V17.8ZM65.3 28.2C64.7 27.6 63.8 27.6 63.2 28.2L60.8 30.6C59.3 29.8 57.7 29.1 56.1 28.6V25.2C56.1 24.4 55.4 23.7 54.6 23.7H51.5V8.89995L70.8 17.9V27.2L67.5 30.5L65.3 28.2ZM13.6 40.4V25.1L26.2 19.2V27.7C26.2 28.1 26.4 28.4999 26.6 28.7999L30.3 32.5L28.1 34.7C27.8 35 27.7 35.3999 27.7 35.7999C27.7 36.1999 27.9 36.6 28.1 36.9L30.5 39.2999C29.7 40.7999 29 42.4 28.5 44H25.1C24.3 44 23.6 44.7 23.6 45.5V54.7C23.6 55.5 24.3 56.2 25.1 56.2H28.4C28.9 57.9 29.5 59.4 30.4 60.9L28 63.2999C27.7 63.5999 27.6 64 27.6 64.4C27.6 64.8 27.8 65.2 28 65.5L30.2 67.6999L26.5 71.4C26.2 71.7 26.1 72.1 26.1 72.5V78.5C18 69.1 13.6 56.2 13.6 40.4ZM86.4 40.4C86.4 56.2 82 69.1 73.8 78.3V72.3C73.8 71.9 73.6 71.5 73.4 71.2L69.7 67.5L71.9 65.3C72.2 65 72.3 64.5999 72.3 64.1999C72.3 63.7999 72.1 63.3999 71.9 63.0999L69.5 60.7C70.3 59.2 71 57.6 71.5 56H74.9C75.7 56 76.4 55.3 76.4 54.5V45.2999C76.4 44.4999 75.7 43.7999 74.9 43.7999H71.5C71 42.0999 70.4 40.5999 69.5 39.0999L71.9 36.7C72.2 36.4 72.3 35.9999 72.3 35.5999C72.3 35.1999 72.1 34.8 71.9 34.5L69.7 32.2999L73.4 28.6C73.7 28.3 73.8 27.9 73.8 27.5V19L86.4 24.9V40.4Z" fill="#4185DD"/>
<path d="M47.2 41.2001C47 40.7001 46.4 40.3 45.8 40.3C45.2 40.3 44.7 40.7001 44.4 41.2001L37.6 57.1C37.3 57.9 37.6 58.7 38.4 59.1C38.6 59.2 38.8 59.2 39 59.2C39.6 59.2 40.1 58.9 40.4 58.3L41.9 54.8H49.8L51.3 58.3C51.6 59.1 52.5 59.4 53.3 59.1C54.1 58.8 54.4 57.9 54.1 57.1L47.2 41.2001ZM43.2 51.8L45.9 45.6L48.6 51.8H43.2ZM60.4 40.3C59.6 40.3 58.9 41 58.9 41.8V57.7C58.9 58.5 59.6 59.2 60.4 59.2C61.2 59.2 61.9 58.5 61.9 57.7V41.8C61.9 41 61.2 40.3 60.4 40.3Z" fill="#4185DD"/>
</svg>
