<svg width="512" height="512" viewBox="0 0 512 512" fill="none" xmlns="http://www.w3.org/2000/svg">
<g clip-path="url(#clip0_22_79)">
<path d="M136 512C133.878 512 131.844 511.156 130.344 509.656L34.344 413.656C33.2255 412.537 32.4639 411.112 32.1553 409.56C31.8468 408.009 32.0052 406.4 32.6106 404.939C33.2159 403.477 34.2411 402.228 35.5563 401.349C36.8716 400.47 38.418 400 40 400H136C138.122 400 140.157 400.843 141.657 402.343C143.157 403.843 144 405.878 144 408V504C144 506.122 143.157 508.157 141.657 509.657C140.157 511.157 138.122 512 136 512ZM59.312 416L128 484.688V416H59.312Z" fill="#4185DD"/>
<path d="M432 512H136C133.878 512 131.844 511.156 130.344 509.656L34.344 413.656C32.8436 412.156 32.0005 410.122 32 408V8C32 5.87827 32.8429 3.84344 34.3431 2.34315C35.8434 0.842855 37.8783 0 40 0L440 0C442.122 0 444.157 0.842855 445.657 2.34315C447.157 3.84344 448 5.87827 448 8V368H432V16H48V404.688L139.312 496H432V512Z" fill="#4185DD"/>
<path d="M464 512C461.878 512 459.844 511.157 458.344 509.656L370.344 421.656C368.844 420.156 368.002 418.122 368.002 416C368.002 413.879 368.844 411.844 370.344 410.344L410.344 370.344C411.844 368.844 413.879 368.002 416 368.002C418.121 368.002 420.156 368.844 421.656 370.344L509.656 458.344C511.156 459.844 511.998 461.879 511.998 464C511.998 466.122 511.156 468.156 509.656 469.656L469.656 509.656C468.156 511.157 466.122 512 464 512ZM387.312 416L464 492.688L492.688 464L416 387.312L387.312 416Z" fill="#4185DD"/>
<path d="M338.264 365.656L349.576 354.344L397.576 402.344L386.256 413.648L338.264 365.656ZM354.264 349.656L365.576 338.344L413.576 386.344L402.256 397.648L354.264 349.656ZM394.256 434.344L434.256 394.344L445.56 405.664L405.568 445.656L394.256 434.344Z" fill="#4185DD"/>
<path d="M240 408C206.773 408 174.292 398.147 146.664 379.687C119.037 361.227 97.5037 334.989 84.7882 304.291C72.0727 273.593 68.7457 239.814 75.228 207.225C81.7103 174.636 97.7108 144.701 121.206 121.206C144.701 97.7109 174.636 81.7105 207.225 75.2281C239.814 68.7458 273.593 72.0728 304.291 84.7883C334.989 97.5038 361.227 119.037 379.687 146.664C398.147 174.292 408 206.773 408 240C407.949 284.541 390.233 327.243 358.738 358.738C327.243 390.233 284.541 407.949 240 408ZM240 88.0001C209.937 88.0001 180.55 96.9147 155.553 113.617C130.557 130.319 111.075 154.058 99.5703 181.832C88.0657 209.607 85.0556 240.169 90.9206 269.654C96.7855 299.139 111.262 326.223 132.52 347.48C153.777 368.738 180.861 383.214 210.346 389.079C239.831 394.944 270.393 391.934 298.168 380.43C325.942 368.925 349.681 349.443 366.383 324.447C383.085 299.45 392 270.063 392 240C391.955 199.701 375.927 161.065 347.431 132.569C318.935 104.073 280.299 88.0445 240 88.0001Z" fill="#4185DD"/>
<path d="M240 368C214.684 368 189.937 360.493 168.887 346.428C147.838 332.363 131.431 312.372 121.743 288.983C112.055 265.595 109.521 239.858 114.459 215.028C119.398 190.199 131.589 167.391 149.49 149.49C167.391 131.589 190.199 119.398 215.028 114.459C239.858 109.521 265.595 112.055 288.983 121.743C312.372 131.431 332.363 147.838 346.428 168.887C360.493 189.937 368 214.684 368 240C367.96 273.935 354.461 306.469 330.465 330.465C306.469 354.461 273.935 367.96 240 368ZM240 128C217.848 128 196.194 134.569 177.776 146.875C159.358 159.182 145.003 176.674 136.525 197.139C128.048 217.605 125.831 240.124 130.152 261.85C134.474 283.576 145.141 303.532 160.804 319.196C176.468 334.859 196.424 345.526 218.15 349.848C239.876 354.17 262.395 351.952 282.861 343.475C303.326 334.998 320.818 320.642 333.125 302.224C345.431 283.806 352 262.152 352 240C351.968 210.306 340.158 181.836 319.161 160.839C298.164 139.842 269.694 128.032 240 128ZM136 96H72C69.8783 96 67.8434 95.1571 66.3431 93.6569C64.8429 92.1566 64 90.1217 64 88V40C64 37.8783 64.8429 35.8434 66.3431 34.3431C67.8434 32.8429 69.8783 32 72 32H136C138.122 32 140.157 32.8429 141.657 34.3431C143.157 35.8434 144 37.8783 144 40V88C144 90.1217 143.157 92.1566 141.657 93.6569C140.157 95.1571 138.122 96 136 96ZM80 80H128V48H80V80ZM80 176H72C69.8783 176 67.8434 175.157 66.3431 173.657C64.8429 172.157 64 170.122 64 168V120C64 117.878 64.8429 115.843 66.3431 114.343C67.8434 112.843 69.8783 112 72 112H104V128H80V176ZM160 32H176V48H160V32ZM192 32H408V48H192V32ZM160 464H176V480H160V464ZM192 464H336V480H192V464ZM160 432H304V448H160V432Z" fill="#4185DD"/>
<path d="M216 304C213.878 304 211.844 303.157 210.344 301.656L170.344 261.656C168.844 260.156 168.002 258.122 168.002 256C168.002 253.879 168.844 251.844 170.344 250.344L194.344 226.344C195.844 224.844 197.879 224.002 200 224.002C202.121 224.002 204.156 224.844 205.656 226.344L216 236.688L274.344 178.344C275.844 176.844 277.879 176.002 280 176.002C282.121 176.002 284.156 176.844 285.656 178.344L309.656 202.344C311.156 203.844 311.998 205.879 311.998 208C311.998 210.122 311.156 212.156 309.656 213.656L221.656 301.656C220.156 303.157 218.122 304 216 304ZM187.312 256L216 284.688L292.688 208L280 195.312L221.656 253.656C220.156 255.156 218.121 255.999 216 255.999C213.879 255.999 211.844 255.156 210.344 253.656L200 243.312L187.312 256Z" fill="#4185DD"/>
</g>
<defs>
<clipPath id="clip0_22_79">
<rect width="512" height="512" fill="white"/>
</clipPath>
</defs>
</svg>
