<svg width="512" height="512" viewBox="0 0 512 512" fill="none" xmlns="http://www.w3.org/2000/svg">
<path d="M409.44 338.48C416.72 340.8 424.56 336.8 426.88 329.6L439.6 290.56C440.96 286.4 438.64 281.84 434.48 280.48L416.8 274.72C417.52 268.48 417.92 262.24 417.92 256C417.92 249.76 417.52 243.52 416.8 237.28L428.88 233.36C432.4 232.24 435.28 229.76 436.96 226.48C438.64 223.2 438.96 219.44 437.76 215.92L426.88 182.48C426.321 180.749 425.427 179.146 424.247 177.763C423.067 176.379 421.625 175.242 420.005 174.417C418.384 173.592 416.617 173.095 414.804 172.955C412.991 172.814 411.168 173.034 409.44 173.6L397.36 177.52C391.21 166.605 383.828 156.432 375.36 147.2L382.88 136.88C387.36 130.72 386 122 379.84 117.52L351.36 96.8C345.2 92.32 336.48 93.68 332 99.84L324.48 110.16C313.04 104.88 301.12 100.96 288.88 98.56V85.84C288.88 78.16 282.64 72 275.04 72H239.84C232.16 72 226 78.24 226 85.84V98.56C213.76 100.96 201.84 104.88 190.4 110.16L182.88 99.84C178.4 93.68 169.76 92.32 163.52 96.8L135.04 117.52C132 119.68 130.08 122.88 129.52 126.56C128.96 130.24 129.84 133.92 132 136.88L139.44 147.2C130.953 156.417 123.57 166.593 117.44 177.52L105.36 173.6C103.632 173.027 101.808 172.803 99.993 172.94C98.1779 173.077 96.4081 173.573 94.786 174.399C93.1639 175.225 91.7218 176.364 90.5433 177.751C89.3647 179.139 88.4731 180.746 87.92 182.48L77.04 215.92C76.4671 217.648 76.2428 219.472 76.3799 221.287C76.517 223.102 77.0129 224.872 77.8388 226.494C78.6647 228.116 79.8043 229.558 81.1914 230.737C82.5786 231.915 84.1858 232.807 85.92 233.36L98 237.28C97.28 243.52 96.88 249.76 96.88 256C96.88 262.24 97.28 268.48 98 274.72L80.32 280.48C76.16 281.84 73.84 286.4 75.2 290.56L87.92 329.6C89.04 333.12 91.52 336 94.8 337.68C98.08 339.36 101.84 339.68 105.36 338.48L117.44 334.56C123.6 345.52 130.96 355.68 139.44 364.88L132 375.2C129.84 378.24 128.96 381.84 129.52 385.52C130.08 389.2 132.08 392.4 135.04 394.56L163.52 415.28C169.68 419.76 178.4 418.4 182.88 412.24L190.4 401.92C201.84 407.2 213.76 411.12 226 413.52V426.24C226 433.92 232.24 440.08 239.84 440.08H275.04C282.72 440.08 288.88 433.84 288.88 426.24V413.52C301.12 411.12 313.04 407.2 324.48 401.92L331.92 412.24C336.4 418.4 345.12 419.84 351.28 415.28L379.76 394.56C385.92 390.08 387.36 381.36 382.8 375.2L375.36 364.88C383.84 355.68 391.2 345.52 397.36 334.56L409.44 338.48ZM384.16 325.36C378.24 336.16 370.96 346.16 362.56 355.12C360.338 357.469 359.002 360.518 358.783 363.744C358.564 366.971 359.475 370.172 361.36 372.8L368.64 382.8L343.6 400.96L336.32 390.96C332.4 385.6 325.2 383.76 319.12 386.64C308.032 391.915 296.308 395.733 284.24 398C277.68 399.2 272.88 404.96 272.88 411.6V423.92H241.92V411.6C241.92 404.96 237.12 399.2 230.56 398C218.56 395.76 206.8 391.92 195.6 386.64C189.52 383.76 182.32 385.6 178.4 390.96L171.12 400.96L146.08 382.8L153.36 372.8C157.28 367.44 156.8 360 152.16 355.12C143.739 346.146 136.482 336.148 130.56 325.36C127.36 319.52 120.4 316.72 114.16 318.8L102.4 322.64L92.88 293.2L104.64 289.36C110.96 287.28 114.96 281.04 114.08 274.32C112.485 262.105 112.485 249.735 114.08 237.52C114.96 230.88 110.96 224.56 104.64 222.48L92.88 218.64L102.4 189.2L114.16 193.04C120.48 195.12 127.36 192.32 130.64 186.48C136.56 175.68 143.84 165.68 152.24 156.72C156.88 151.84 157.36 144.4 153.44 139.04L146.16 129.04L171.2 110.88L178.48 120.88C182.4 126.24 189.6 128.08 195.68 125.2C206.768 119.925 218.492 116.107 230.56 113.84C237.12 112.64 241.92 106.88 241.92 100.24V87.92H272.88V100.24C272.88 106.88 277.68 112.64 284.24 113.84C296.24 116.08 308 119.92 319.2 125.2C325.28 128.08 332.48 126.24 336.4 120.88L343.68 110.88L368.72 129.04L361.44 139.04C357.52 144.4 358 151.84 362.64 156.72C371.04 165.68 378.32 175.68 384.24 186.48C387.44 192.32 394.4 195.12 400.64 193.04L412.4 189.2L422 218.64L410.24 222.48C403.92 224.56 399.92 230.8 400.8 237.52C402.395 249.735 402.395 262.105 400.8 274.32C399.92 280.96 403.92 287.28 410.24 289.36L422 293.2L412.4 322.64L400.64 318.8C394.32 316.72 387.44 319.52 384.24 325.36H384.16Z" fill="#4185DD"/>
<path d="M256 136C189.84 136 136 189.84 136 256C136 322.16 189.84 376 256 376C322.16 376 376 322.16 376 256C376 189.84 322.16 136 256 136ZM256 360C198.64 360 152 313.36 152 256C152 198.64 198.64 152 256 152C313.36 152 360 198.64 360 256C360 313.36 313.36 360 256 360Z" fill="#4185DD"/>
<path d="M274.4 236H286.4V276H274.4V292H314.4V276H302.4V236H314.4V220H274.4V236ZM236 220H220C216.24 220 213.04 222.64 212.16 226.24L197.52 292H213.92L217.44 276H238.4L241.92 292H258.32L243.68 226.24C243.283 224.46 242.289 222.871 240.862 221.735C239.436 220.6 237.663 219.987 235.84 220H236ZM221.12 260L226.48 236H229.68L235.04 260H221.2H221.12ZM372.4 456.72C284.08 508 172.64 494.96 98.16 425.76L113.44 427.92L115.68 412.08L76.08 406.4C74.8495 406.211 73.5918 406.314 72.4087 406.702C71.2256 407.089 70.1504 407.75 69.2701 408.63C68.3898 409.51 67.7292 410.586 67.3417 411.769C66.9543 412.952 66.8509 414.209 67.04 415.44L72.72 455.04L88.56 452.8L86.24 436.64C132.281 479.882 193.077 503.942 256.24 503.92C298.88 503.92 341.76 492.96 380.48 470.48L372.48 456.64L372.4 456.72ZM471.84 133.68L457.92 141.6C507.76 229.52 494.24 340.08 425.84 413.84L428 398.56L412.16 396.32L406.48 435.92C406.16 438.4 406.96 440.96 408.72 442.72C410.24 444.24 412.24 445.04 414.4 445.04H415.52L455.12 439.36L452.88 423.52L436.48 425.84C510.56 347.04 525.36 228.16 471.84 133.76V133.68ZM133.68 40.16L141.6 54.08C229.52 4.23998 340.08 17.76 413.84 86.24L398.56 84.08L396.32 99.92L435.92 105.6H437.04C438.189 105.612 439.326 105.374 440.374 104.903C441.422 104.431 442.355 103.738 443.108 102.871C443.861 102.003 444.417 100.982 444.737 99.879C445.057 98.7756 445.133 97.6158 444.96 96.48L439.28 56.88L423.44 59.12L425.76 75.52C347.04 1.43998 228.08 -13.36 133.68 40.16ZM84 113.44L99.84 115.68L105.52 76.08C105.84 73.6 105.04 71.04 103.28 69.28C101.52 67.52 99.04 66.64 96.48 67.04L56.88 72.72L59.12 88.56L75.52 86.24C1.43998 164.96 -13.36 283.92 40.16 378.32L54.08 370.4C4.23998 282.48 17.76 171.92 86.24 98.16L84.08 113.44H84Z" fill="#4185DD"/>
</svg>
