<svg width="100" height="100" viewBox="0 0 100 100" fill="none" xmlns="http://www.w3.org/2000/svg">
<path d="M89.8636 96.2576H87.9697C93.7121 93.6515 97.7273 87.8788 97.7273 81.1667C97.7273 73.9394 93.0757 67.7727 86.606 65.5151C86.6515 64.8636 86.6667 64.2121 86.6667 63.5606C86.6667 54.4394 83.1212 45.8485 76.6666 39.4091L71.6363 34.3788C68.8256 31.5589 65.544 29.2515 61.9394 27.5606L66.2424 23.2576L72.0606 29.0606C73.1363 30.1363 74.8788 30.1363 75.9394 29.0606L90.303 14.697L93.4394 17.8333C93.6363 18.0303 93.9091 18.0909 94.1667 18.0151C94.4242 17.9394 94.6212 17.7273 94.6818 17.4697L97.7121 3.1515C97.7576 2.90908 97.6818 2.6515 97.5 2.46968C97.3182 2.28786 97.0606 2.22726 96.8182 2.28786L82.8333 5.63635C82.5757 5.69696 82.3636 5.89392 82.303 6.1515C82.2273 6.40908 82.303 6.6818 82.4848 6.86362L85.7121 10.0909L74 21.803L68.1969 15.9848C67.1666 14.9545 65.3485 14.9545 64.3182 15.9848L55.0909 25.2121C52.6212 24.6515 50.0757 24.3636 47.4848 24.3636C38.6515 24.3636 30.3333 27.697 23.9697 33.7576L18.4242 28.2121L19.606 22.5909C19.6288 22.4721 19.6228 22.3496 19.5885 22.2336C19.5543 22.1177 19.4927 22.0116 19.4091 21.9242L10.7879 13.3485C10.606 13.1515 10.3182 13.0757 10.0606 13.1515C9.80301 13.2273 9.60604 13.4394 9.54543 13.697L8.39392 19.2424L2.86361 20.4091C2.60604 20.4697 2.39392 20.6667 2.31816 20.9242C2.2424 21.1818 2.31816 21.4697 2.49998 21.6515L11.106 30.2576C11.2424 30.3939 11.4394 30.4697 11.6212 30.4697C11.6666 30.4697 11.7273 30.4697 11.7727 30.4545L17.3939 29.2727L22.9394 34.8182C13.6666 44.3939 11.1212 58.106 15.303 69.9545H5.31816C5.12528 69.9545 4.94029 70.0312 4.8039 70.1675C4.66751 70.3039 4.59089 70.4889 4.59089 70.6818V79.4545C4.59089 79.8636 4.92422 80.1818 5.31816 80.1818H9.36361V87.4848H5.31816C5.12528 87.4848 4.94029 87.5615 4.8039 87.6978C4.66751 87.8342 4.59089 88.0192 4.59089 88.2121V96.2424H2.99998C2.80709 96.2424 2.62211 96.319 2.48572 96.4554C2.34933 96.5918 2.27271 96.7768 2.27271 96.9697C2.27271 97.1626 2.34933 97.3475 2.48572 97.4839C2.62211 97.6203 2.80709 97.697 2.99998 97.697H89.8636C90.2727 97.697 90.5909 97.3636 90.5909 96.9697C90.606 96.5909 90.2727 96.2576 89.8636 96.2576ZM96.2576 81.1667C96.2576 88.803 90.5454 95.1212 83.1666 96.106C88.7424 93.4394 92.5909 87.7424 92.5909 81.1667C92.5909 74.5757 88.7273 68.8788 83.1666 66.2121C90.5454 67.197 96.2576 73.5151 96.2576 81.1667ZM31.8939 88.9394C36.7727 91.4394 42.1212 92.697 47.4848 92.697C52.3636 92.697 57.2424 91.6515 61.7576 89.5757C62.6666 91.1212 63.8333 92.5151 65.1818 93.6818C54.303 98.2576 41.4242 96.6818 31.8939 88.9394ZM19.9242 78.7273H18.2424V76.1818C18.7576 77.0454 19.3182 77.8939 19.9242 78.7273ZM16.7727 80.197H21.0606C21.2121 80.3939 21.3788 80.5757 21.5454 80.7727V87.5H16.7576V80.197H16.7727ZM23.0303 82.3636C23.1363 82.4697 23.2273 82.5909 23.3485 82.697L27.8182 87.1667V87.4848H23.0303V82.3636ZM60.9394 81.1667C60.9394 72.8333 67.7121 66.0606 76.0454 66.0606C84.3636 66.0606 91.1363 72.8333 91.1363 81.1667C91.1363 89.4848 84.3636 96.2576 76.0454 96.2576C67.7121 96.2576 60.9394 89.4848 60.9394 81.1667ZM33.4242 45.3182L36.1969 55.7121C36.2576 55.9697 36.4697 56.1667 36.7121 56.2273L37.0606 56.3182C36.9091 57.0303 36.8182 57.7727 36.8182 58.5454C36.8182 64.4242 41.606 69.2121 47.4848 69.2121C53.3636 69.2121 58.1515 64.4242 58.1515 58.5454C58.1515 52.6667 53.3636 47.8788 47.4848 47.8788C46.803 47.8788 46.1515 47.9545 45.5 48.0757L45.3636 47.5757C45.3321 47.4514 45.2676 47.338 45.1769 47.2473C45.0862 47.1566 44.9728 47.0921 44.8485 47.0606L34.4545 44.2879L32.9242 42.7576C36.7576 39.2273 41.8636 37.0606 47.4848 37.0606C59.3333 37.0606 68.9697 46.697 68.9697 58.5454C68.9697 61.6212 68.3182 64.5454 67.1363 67.197C63.9996 69.1943 61.625 72.1879 60.3939 75.697C56.6792 78.5116 52.1455 80.0335 47.4848 80.0303C35.6363 80.0303 26 70.3939 26 58.5454C26 52.8333 28.2424 47.6363 31.8939 43.7879L33.4242 45.3182ZM45.0303 56.9242L37.5 54.9091L35.4848 47.3788L45.0303 56.9242ZM38.5 56.697L47.303 59.0454C47.3636 59.0606 47.4242 59.0757 47.4848 59.0757C47.5454 59.0757 47.606 59.0606 47.6666 59.0454C47.7273 59.0303 47.7879 59 47.8485 58.9697C47.9091 58.9394 47.9697 58.8939 48.0151 58.8333C48.0303 58.8182 48.0454 58.7879 48.0606 58.7727C48.0757 58.7424 48.106 58.7273 48.1212 58.697C48.1363 58.6818 48.1363 58.6667 48.1363 58.6515C48.1515 58.6212 48.1666 58.5757 48.1818 58.5303C48.1969 58.5 48.197 58.4545 48.2121 58.4242V58.303C48.2121 58.2576 48.2121 58.2273 48.1969 58.1818V58.1363L45.8788 49.4848C46.3939 49.3939 46.9394 49.3333 47.4848 49.3333C52.5606 49.3333 56.6818 53.4545 56.6818 58.5303C56.6818 63.5909 52.5606 67.7273 47.4848 67.7273C42.4091 67.7273 38.2879 63.606 38.2879 58.5303C38.303 57.9091 38.3788 57.303 38.5 56.697ZM46.0757 55.8939L36.5454 46.3636L44.0757 48.3788L46.0757 55.8939ZM85.2121 63.5606C85.2121 64.0757 85.1818 64.5757 85.1666 65.0757C83.8939 64.7576 82.5606 64.5909 81.1818 64.5909H81.106C82.4091 57.303 81.3485 49.6667 77.8939 42.9394C82.6413 48.7619 85.227 56.048 85.2121 63.5606ZM65.3485 17.0454C65.8333 16.5606 66.6818 16.5606 67.1515 17.0454L73.4697 23.3788C73.606 23.5151 73.7879 23.5909 73.9848 23.5909C74.1818 23.5909 74.3636 23.5151 74.5 23.3788L87.2576 10.6363C87.3939 10.5 87.4697 10.3182 87.4697 10.1212C87.4697 9.92423 87.3939 9.74241 87.2576 9.60605L84.4242 6.77271L96 3.99999L93.4848 15.8485L90.7879 13.1515C90.649 13.0133 90.4611 12.9357 90.2651 12.9357C90.0692 12.9357 89.8813 13.0133 89.7424 13.1515L74.8636 28.0303C74.3788 28.5151 73.5303 28.5151 73.0606 28.0303L66.7273 21.7121C66.5884 21.5739 66.4005 21.4963 66.2045 21.4963C66.0086 21.4963 65.8206 21.5739 65.6818 21.7121L60.4545 26.9394C59.2273 26.4394 57.9697 26.0151 56.6969 25.6515L65.3485 17.0454ZM47.4848 25.8485C56.2121 25.8485 64.4242 29.2424 70.606 35.4242C78.5303 43.3485 81.5151 54.3485 79.606 64.5909H76.0454C73.5909 64.5909 71.2727 65.1363 69.1667 66.0909C70 63.7273 70.4545 61.1818 70.4545 58.5454C70.4545 45.8939 60.1515 35.5909 47.5 35.5909C41.4848 35.5909 36 37.9242 31.9091 41.7121L25.0151 34.8182C31.0664 29.0399 39.1179 25.8258 47.4848 25.8485ZM10.7121 15.3333L18.0757 22.697L17.1818 26.9848L11.9242 21.7273L9.81816 19.6212L10.7121 15.3333ZM11.8485 28.9242L4.48483 21.5606L8.77271 20.6667L10.8788 22.7727L16.1363 28.0303L11.8485 28.9242ZM23.9545 35.8485L30.8485 42.7424C26.7902 47.0026 24.5277 52.6616 24.5303 58.5454C24.5303 71.197 34.8333 81.5 47.4848 81.5C52.0151 81.5 56.2273 80.1667 59.7879 77.8939C59.5757 78.9545 59.4545 80.0454 59.4545 81.1818C59.4545 83.7273 60.0303 86.1364 61.0606 88.2879C49 93.7727 34.2727 91.5909 24.3636 81.6818C11.7727 69.0454 11.6363 48.6363 23.9545 35.8485ZM11.9848 71.4242H15.8485C16.1363 72.1212 16.4394 72.803 16.7727 73.4697V78.7273H11.9848V71.4242ZM10.8333 80.197H15.3182V87.5H10.8333V80.197ZM6.04543 78.7273V71.4242H10.5151V78.7273H6.04543ZM6.04543 96.2576V88.9545H10.5151V96.2576H6.04543ZM11.9848 96.2576V88.9545H16.7727V96.2576H11.9848ZM18.2424 96.2576V88.9545H23.0303V96.2576H18.2424ZM24.4848 96.2576V88.9545H29.2727V96.2576H24.4848ZM30.7424 96.2576V89.8788C32.1666 91.0606 33.6666 92.106 35.2121 93.0303V96.2576H30.7424ZM36.6818 96.2576V93.8333C38.4848 94.7727 40.3636 95.5454 42.2727 96.1364V96.2576H36.6818ZM62.3333 96.2576C63.7424 95.8333 65.1363 95.3182 66.5 94.697C67.3485 95.303 68.2576 95.8182 69.2273 96.2576H62.3333ZM93.9697 96.2576H92.2576C92.0647 96.2576 91.8797 96.3342 91.7433 96.4706C91.6069 96.607 91.5303 96.792 91.5303 96.9848C91.5303 97.1777 91.6069 97.3627 91.7433 97.4991C91.8797 97.6355 92.0647 97.7121 92.2576 97.7121H93.9697C94.3788 97.7121 94.697 97.3788 94.697 96.9848C94.6982 96.889 94.6802 96.7939 94.6441 96.7051C94.608 96.6163 94.5544 96.5356 94.4867 96.4679C94.4189 96.4001 94.3382 96.3466 94.2494 96.3104C94.1606 96.2743 94.0655 96.2563 93.9697 96.2576ZM97 96.2576H96.2273C96.0344 96.2576 95.8494 96.3342 95.713 96.4706C95.5766 96.607 95.5 96.792 95.5 96.9848C95.5 97.1777 95.5766 97.3627 95.713 97.4991C95.8494 97.6355 96.0344 97.7121 96.2273 97.7121H97C97.4091 97.7121 97.7273 97.3788 97.7273 96.9848C97.7273 96.5909 97.3939 96.2576 97 96.2576Z" fill="#4185DD"/>
<path d="M86.8333 81.1666C86.8333 75.212 81.9848 70.3635 76.0303 70.3635C70.0757 70.3635 65.2272 75.212 65.2272 81.1666C65.2272 87.1211 70.0757 91.9696 76.0303 91.9696C81.9848 91.9696 86.8333 87.1211 86.8333 81.1666ZM76.0303 90.4999C70.8788 90.4999 66.6969 86.3181 66.6969 81.1666C66.6969 76.015 70.8788 71.8332 76.0303 71.8332C81.1818 71.8332 85.3636 76.015 85.3636 81.1666C85.3596 83.6407 84.375 86.0123 82.6255 87.7618C80.876 89.5113 78.5044 90.4959 76.0303 90.4999Z" fill="#4185DD"/>
<path d="M78.7879 77.6364C78.9808 77.6364 79.1658 77.5598 79.3022 77.4234C79.4385 77.287 79.5152 77.102 79.5152 76.9092C79.5152 76.7163 79.4385 76.5313 79.3022 76.3949C79.1658 76.2585 78.9808 76.1819 78.7879 76.1819H76.7576V75.0304C76.7576 74.8375 76.681 74.6525 76.5446 74.5161C76.4082 74.3797 76.2232 74.3031 76.0303 74.3031C75.8374 74.3031 75.6524 74.3797 75.5161 74.5161C75.3797 74.6525 75.303 74.8375 75.303 75.0304V76.1819H74.894C73.6061 76.1819 72.5455 77.2425 72.5455 78.5304V79.5607C72.5455 80.8485 73.6061 81.9092 74.894 81.9092H75.303V84.697H73.2727C73.0799 84.697 72.8949 84.7737 72.7585 84.91C72.6221 85.0464 72.5455 85.2314 72.5455 85.4243C72.5455 85.6172 72.6221 85.8022 72.7585 85.9386C72.8949 86.075 73.0799 86.1516 73.2727 86.1516H75.303V87.3031C75.303 87.496 75.3797 87.681 75.5161 87.8174C75.6524 87.9537 75.8374 88.0304 76.0303 88.0304C76.2232 88.0304 76.4082 87.9537 76.5446 87.8174C76.681 87.681 76.7576 87.496 76.7576 87.3031V86.1516H77.1667C78.4546 86.1516 79.5152 85.091 79.5152 83.8031V82.7728C79.5152 81.4849 78.4546 80.4243 77.1667 80.4243H76.7576V77.6364H78.7879ZM77.1818 81.894C77.6667 81.894 78.0606 82.2879 78.0606 82.7728V83.8031C78.0606 84.2879 77.6667 84.6819 77.1818 84.6819H76.7727V81.894H77.1818ZM75.303 80.4243H74.894C74.6609 80.4243 74.4374 80.3317 74.2726 80.1669C74.1078 80.0021 74.0152 79.7786 74.0152 79.5455V78.5152C74.0152 78.0304 74.4091 77.6364 74.894 77.6364H75.303V80.4243ZM93.6515 39.3182L94.303 38.6667C94.4267 38.5253 94.492 38.3421 94.4857 38.1543C94.4795 37.9664 94.402 37.788 94.2692 37.6552C94.1363 37.5223 93.9579 37.4449 93.7701 37.4386C93.5823 37.4323 93.3991 37.4976 93.2576 37.6213L92.6061 38.2728C92.3182 38.5607 92.3182 39.0304 92.6061 39.3182C92.7424 39.4546 92.9394 39.5304 93.1212 39.5304C93.303 39.5304 93.5152 39.4698 93.6515 39.3182ZM91.803 40.1364C91.6642 39.9982 91.4762 39.9206 91.2803 39.9206C91.0844 39.9206 90.8964 39.9982 90.7576 40.1364L87.4546 43.4395C87.1667 43.7273 87.1667 44.197 87.4546 44.4849C87.5909 44.6213 87.7879 44.697 87.9697 44.697C88.1515 44.697 88.3485 44.6213 88.4849 44.4849L91.7879 41.1819C92.0909 40.8788 92.0909 40.4243 91.803 40.1364ZM91.0758 47.7728H96.197C96.6061 47.7728 96.9243 47.4395 96.9243 47.0455C96.9243 46.6516 96.5909 46.3182 96.197 46.3182H91.0758C90.8829 46.3182 90.6979 46.3949 90.5615 46.5313C90.4251 46.6676 90.3485 46.8526 90.3485 47.0455C90.3485 47.2384 90.4251 47.4234 90.5615 47.5598C90.6979 47.6962 90.8829 47.7728 91.0758 47.7728ZM84.1818 35.7425V40.8637C84.1818 41.0566 84.2585 41.2416 84.3948 41.378C84.5312 41.5143 84.7162 41.591 84.9091 41.591C85.102 41.591 85.287 41.5143 85.4234 41.378C85.5598 41.2416 85.6364 41.0566 85.6364 40.8637V35.7425C85.6364 35.5496 85.5598 35.3646 85.4234 35.2282C85.287 35.0918 85.102 35.0152 84.9091 35.0152C84.7162 35.0152 84.5312 35.0918 84.3948 35.2282C84.2585 35.3646 84.1818 35.5496 84.1818 35.7425ZM59.0758 34.197C64.8788 36.9698 69.5152 41.7273 72.1364 47.6061C72.216 47.7838 72.3623 47.9231 72.5437 47.994C72.7251 48.0648 72.9271 48.0616 73.1061 47.9849C73.2812 47.9023 73.418 47.7558 73.4884 47.5754C73.5589 47.3951 73.5576 47.1946 73.4849 47.0152C70.7208 40.8154 65.8378 35.8035 59.7121 32.8788C59.5347 32.7987 59.3332 32.7901 59.1497 32.8551C58.9661 32.92 58.8148 33.0534 58.7273 33.2273C58.6486 33.4026 58.6409 33.6016 58.7059 33.7825C58.7709 33.9633 58.9035 34.1119 59.0758 34.197ZM53.0455 32.1516C54.0455 32.3637 55.0303 32.6213 56 32.9546C56.0758 32.9849 56.1515 32.9849 56.2273 32.9849C56.5303 32.9849 56.8182 32.7879 56.9243 32.4849C56.9545 32.3934 56.9663 32.2968 56.959 32.2007C56.9517 32.1046 56.9255 32.0109 56.8819 31.925C56.8382 31.8391 56.778 31.7626 56.7046 31.7001C56.6313 31.6376 56.5463 31.5902 56.4546 31.5607C55.4394 31.2273 54.394 30.9395 53.3485 30.7273C53.2549 30.7061 53.158 30.7038 53.0635 30.7206C52.969 30.7374 52.8788 30.773 52.7983 30.8253C52.7178 30.8775 52.6486 30.9454 52.5947 31.0249C52.5409 31.1043 52.5035 31.1938 52.4849 31.2879C52.394 31.6819 52.6364 32.0758 53.0455 32.1516Z" fill="#4185DD"/>
</svg>
