<svg width="100" height="100" viewBox="0 0 100 100" fill="none" xmlns="http://www.w3.org/2000/svg">
<path d="M94.4031 49.5801H53.365C50.7557 49.5801 48.6328 51.7029 48.6328 54.3123V62.6131H38.0172C37.6546 62.6131 37.3068 62.7571 37.0504 63.0135C36.794 63.2699 36.65 63.6177 36.65 63.9803C36.65 64.3429 36.794 64.6906 37.0504 64.947C37.3068 65.2034 37.6546 65.3475 38.0172 65.3475H48.6328V71.4328H41.1443L41.6035 70.9738C41.8598 70.7174 42.0038 70.3696 42.0038 70.007C42.0038 69.6444 41.8598 69.2967 41.6035 69.0402C41.347 68.784 40.9993 68.6401 40.6367 68.6401C40.2742 68.6401 39.9264 68.784 39.6699 69.0402L36.877 71.8332C36.6206 72.0896 36.4766 72.4373 36.4766 72.7999C36.4766 73.1625 36.6206 73.5102 36.877 73.7666L39.6699 76.5598C39.7967 76.6869 39.9474 76.7878 40.1133 76.8566C40.2793 76.9253 40.4571 76.9606 40.6367 76.9603C40.9071 76.9603 41.1714 76.8801 41.3962 76.7299C41.621 76.5797 41.7962 76.3662 41.8997 76.1164C42.0032 75.8666 42.0303 75.5918 41.9776 75.3266C41.9248 75.0614 41.7947 74.8178 41.6035 74.6266L41.1441 74.1672H48.6328V81.2197C48.6328 83.8291 50.7557 85.952 53.365 85.952H65.9746C65.8701 88.0275 65.4025 90.0465 64.8574 91.4105H62.4812C60.5977 91.4105 59.0656 92.943 59.0656 94.8262C59.0656 96.7094 60.5979 98.2422 62.4812 98.2422H84.3945C86.2779 98.2422 87.81 96.7098 87.81 94.8266C87.81 92.9434 86.2777 91.4109 84.3945 91.4109H82.0051C81.4316 90.0287 80.9318 88.0039 80.8045 85.9523H93.51C96.1193 85.9523 98.2422 83.8295 98.2422 81.2201V53.4197C98.2422 51.3025 96.5201 49.5801 94.4031 49.5801ZM59.2754 71.4328H51.3672V65.3475H56.1482L55.6893 65.8064C55.4371 66.0637 55.2966 66.41 55.2984 66.7703C55.3001 67.1305 55.444 67.4755 55.6987 67.7302C55.9534 67.985 56.2983 68.1289 56.6586 68.1307C57.0188 68.1326 57.3652 67.9922 57.6225 67.74L60.4156 64.9471C60.672 64.6906 60.816 64.3429 60.816 63.9803C60.8161 63.6177 60.6721 63.27 60.4158 63.0135L57.6227 60.2203C57.3662 59.9641 57.0184 59.8201 56.6559 59.8201C56.2933 59.8201 55.9456 59.9641 55.6891 60.2203C55.4327 60.4768 55.2887 60.8245 55.2887 61.1871C55.2887 61.5497 55.4327 61.8975 55.6891 62.1539L56.1484 62.6131H51.3672V54.3123C51.3672 53.2105 52.2635 52.3145 53.365 52.3145H94.4029C94.6959 52.3149 94.9767 52.4315 95.1838 52.6387C95.3909 52.8459 95.5074 53.1268 95.5076 53.4197V76.5242H51.3672V74.1674H59.2754C59.638 74.1674 59.9858 74.0233 60.2422 73.7669C60.4986 73.5105 60.6427 73.1627 60.6427 72.8001C60.6427 72.4375 60.4986 72.0897 60.2422 71.8333C59.9858 71.5769 59.638 71.4328 59.2754 71.4328ZM85.0756 94.8266C85.0756 95.1959 84.7637 95.5078 84.3945 95.5078H62.4812C62.1119 95.5078 61.8 95.1957 61.8 94.8266C61.8 94.4574 62.1121 94.1453 62.4812 94.1453H84.3945C84.7637 94.1451 85.0756 94.4572 85.0756 94.8266ZM79.09 91.4107H67.7582C68.2809 89.767 68.625 87.8109 68.71 85.9522H78.068C78.1699 87.7951 78.5395 89.7522 79.09 91.4107ZM93.51 83.2178H53.365C52.2633 83.2178 51.3672 82.3215 51.3672 81.2199V79.2586H95.5078V81.2199C95.5078 82.3215 94.6115 83.2178 93.51 83.2178ZM76.6549 81.2381C76.6549 81.6007 76.5108 81.9484 76.2544 82.2048C75.998 82.4612 75.6503 82.6053 75.2877 82.6053H71.5877C71.2251 82.6053 70.8773 82.4612 70.6209 82.2048C70.3646 81.9484 70.2205 81.6007 70.2205 81.2381C70.2205 80.8755 70.3646 80.5277 70.6209 80.2713C70.8773 80.0149 71.2251 79.8709 71.5877 79.8709H75.2877C75.6503 79.8709 75.998 80.0149 76.2544 80.2713C76.5108 80.5277 76.6549 80.8755 76.6549 81.2381ZM17.0121 49.1293C9.66504 49.1293 1.75781 50.9402 1.75781 54.9164V81.8641C1.75781 85.84 9.66504 87.6512 17.0121 87.6512C24.3592 87.6512 32.2664 85.8402 32.2664 81.8641V54.9164C32.2662 50.9402 24.359 49.1293 17.0121 49.1293ZM26.417 83.6865C23.9244 84.4799 20.5846 84.9168 17.0121 84.9168C13.4396 84.9168 10.0994 84.4799 7.60723 83.6865C5.04648 82.8717 4.49219 82.0289 4.49219 81.8641V76.3791C7.43965 77.9355 12.3389 78.6687 17.0121 78.6687C21.6854 78.6687 26.5844 77.9357 29.532 76.3791V81.8641C29.5318 82.0289 28.9775 82.8715 26.417 83.6865ZM26.417 74.7039C23.9244 75.4973 20.5846 75.9342 17.0121 75.9342C13.4396 75.9342 10.0994 75.4973 7.60723 74.7039C5.04648 73.8891 4.49219 73.0465 4.49219 72.8814V67.3965C7.43965 68.9531 12.3389 69.6861 17.0121 69.6861C21.6854 69.6861 26.5844 68.9531 29.532 67.3965V72.8814C29.5318 73.0465 28.9775 73.8891 26.417 74.7039ZM26.417 65.7215C23.9244 66.5148 20.5846 66.9518 17.0121 66.9518C13.4396 66.9518 10.0994 66.5148 7.60723 65.7215C5.04648 64.9064 4.49219 64.0639 4.49219 63.8988V58.4141C7.43965 59.9707 12.3389 60.7037 17.0121 60.7037C21.6854 60.7037 26.5844 59.9707 29.532 58.4141V63.8988C29.5318 64.0639 28.9775 64.9064 26.417 65.7215ZM26.417 56.7391C23.9244 57.5324 20.5846 57.9693 17.0121 57.9693C13.4396 57.9693 10.0994 57.5324 7.60723 56.7391C5.04648 55.924 4.49219 55.0814 4.49219 54.9164C4.49219 54.7514 5.04648 53.9088 7.60703 53.0939C10.0994 52.3006 13.4395 51.8637 17.0119 51.8637C20.5844 51.8637 23.9244 52.3006 26.4168 53.0939C28.9773 53.909 29.5316 54.7514 29.5316 54.9164C29.5316 55.0814 28.9775 55.924 26.417 56.7391ZM11.8684 81.5084C11.808 81.8659 11.6081 82.1848 11.3126 82.395C11.0172 82.6052 10.6503 82.6894 10.2928 82.6291C9.16641 82.4393 8.11621 82.2014 7.17129 81.9215C6.99752 81.8719 6.8353 81.7885 6.694 81.6758C6.55271 81.5632 6.43513 81.4237 6.34808 81.2654C6.26102 81.1071 6.20622 80.933 6.18683 80.7534C6.16744 80.5737 6.18385 80.392 6.23512 80.2188C6.28639 80.0455 6.37149 79.8841 6.48551 79.744C6.59952 79.6038 6.7402 79.4876 6.89939 79.4021C7.05858 79.3167 7.23314 79.2636 7.41297 79.246C7.59279 79.2284 7.77433 79.2466 7.94707 79.2996C8.78711 79.548 9.7291 79.7611 10.7475 79.9328C11.105 79.9932 11.4239 80.1931 11.6341 80.4885C11.8443 80.784 11.9286 81.1508 11.8684 81.5084ZM11.8684 72.526C11.808 72.8835 11.6081 73.2024 11.3126 73.4126C11.0172 73.6227 10.6503 73.707 10.2928 73.6467C9.16641 73.4568 8.11621 73.2189 7.17129 72.9391C6.99752 72.8895 6.8353 72.806 6.694 72.6934C6.55271 72.5808 6.43513 72.4413 6.34808 72.283C6.26102 72.1246 6.20622 71.9506 6.18683 71.771C6.16744 71.5913 6.18385 71.4096 6.23512 71.2364C6.28639 71.0631 6.37149 70.9017 6.48551 70.7615C6.59952 70.6214 6.7402 70.5052 6.89939 70.4197C7.05858 70.3342 7.23314 70.2812 7.41297 70.2636C7.59279 70.246 7.77433 70.2642 7.94707 70.3172C8.78711 70.5656 9.7291 70.7787 10.7475 70.9504C11.105 71.0108 11.4239 71.2107 11.6341 71.5061C11.8443 71.8016 11.9286 72.1684 11.8684 72.526ZM11.8684 63.5436C11.808 63.9011 11.6081 64.22 11.3126 64.4302C11.0172 64.6403 10.6503 64.7245 10.2928 64.6643C9.16641 64.4744 8.11621 64.2365 7.17129 63.9566C6.99752 63.9071 6.8353 63.8236 6.694 63.711C6.55271 63.5984 6.43513 63.4589 6.34808 63.3005C6.26102 63.1422 6.20622 62.9682 6.18683 62.7885C6.16744 62.6089 6.18385 62.4272 6.23512 62.2539C6.28639 62.0807 6.37149 61.9193 6.48551 61.7791C6.59952 61.6389 6.7402 61.5228 6.89939 61.4373C7.05858 61.3518 7.23314 61.2987 7.41297 61.2812C7.59279 61.2636 7.77433 61.2818 7.94707 61.3348C8.78711 61.5832 9.7291 61.7963 10.7475 61.968C11.105 62.0283 11.424 62.2282 11.6342 62.5236C11.8444 62.8191 11.9286 63.186 11.8684 63.5436ZM29.558 20.8805C29.558 16.8027 32.1254 13.2297 35.9158 11.8639C36.1496 9.27285 37.2658 6.8709 39.118 5.01367C41.2117 2.91406 43.9982 1.75781 46.9646 1.75781C52.5418 1.75781 57.2156 5.95098 57.9568 11.3492H60.9107C66.1662 11.3492 70.442 15.625 70.442 20.8805C70.442 26.1359 66.1662 30.4117 60.9107 30.4117C60.5481 30.4117 60.2004 30.2677 59.944 30.0113C59.6876 29.7549 59.5436 29.4071 59.5436 29.0445C59.5436 28.6819 59.6876 28.3342 59.944 28.0778C60.2004 27.8214 60.5481 27.6773 60.9107 27.6773C64.6584 27.6773 67.7076 24.6283 67.7076 20.8805C67.7076 17.1326 64.6586 14.0836 60.9107 14.0836H56.6912C56.3319 14.0836 55.987 13.9421 55.7312 13.6898C55.4754 13.4375 55.3292 13.0946 55.3242 12.7354C55.2613 8.19004 51.5113 4.49219 46.9646 4.49219C44.7303 4.49219 42.6311 5.36309 41.0539 6.94453C39.4738 8.52891 38.6039 10.641 38.6041 12.8914C38.6041 13.1975 38.5015 13.4947 38.3126 13.7355C38.1236 13.9763 37.8594 14.1467 37.5621 14.2195C34.4592 14.9793 32.2924 17.7184 32.2924 20.8805C32.2924 24.6281 35.3414 27.6773 39.0893 27.6773C39.4519 27.6773 39.7996 27.8214 40.056 28.0778C40.3124 28.3342 40.4564 28.6819 40.4564 29.0445C40.4564 29.4071 40.3124 29.7549 40.056 30.0113C39.7996 30.2677 39.4519 30.4117 39.0893 30.4117C33.8338 30.4117 29.558 26.1359 29.558 20.8805ZM50 21.9027C49.6374 21.9027 49.2896 22.0468 49.0333 22.3032C48.7769 22.5596 48.6328 22.9073 48.6328 23.2699V38.8287C46.977 39.3984 45.7822 40.968 45.7822 42.8146C45.7822 45.1404 47.6744 47.0326 50 47.0326C52.3258 47.0326 54.218 45.1404 54.218 42.8146C54.218 40.9678 53.023 39.3982 51.3672 38.8285V23.2697C51.3671 22.9072 51.2231 22.5595 50.9667 22.3031C50.7103 22.0468 50.3626 21.9027 50 21.9027ZM50 44.2982C49.182 44.2982 48.5166 43.6328 48.5166 42.8146C48.5166 41.9965 49.182 41.3311 50 41.3311C50.818 41.3311 51.4836 41.9965 51.4836 42.8146C51.4836 43.6328 50.818 44.2982 50 44.2982ZM56.9314 21.9027C56.5688 21.9027 56.2211 22.0468 55.9647 22.3032C55.7083 22.5596 55.5643 22.9073 55.5643 23.2699V36.4576C55.5643 36.8202 55.7083 37.168 55.9647 37.4244C56.2211 37.6808 56.5688 37.8248 56.9314 37.8248H60.5596C61.1293 39.4805 62.6988 40.6754 64.5455 40.6754C66.8713 40.6754 68.7635 38.7832 68.7635 36.4576C68.7635 34.1318 66.8713 32.2396 64.5455 32.2396C62.6986 32.2396 61.1291 33.4346 60.5594 35.0904H58.2984V23.2699C58.2985 23.0904 58.2632 22.9126 58.1945 22.7467C58.1258 22.5808 58.0251 22.4301 57.8982 22.3031C57.7712 22.1762 57.6205 22.0755 57.4546 22.0068C57.2888 21.9381 57.111 21.9027 56.9314 21.9027ZM64.5457 34.9738C65.3637 34.9738 66.0293 35.6393 66.0293 36.4574C66.0293 37.2754 65.3639 37.9408 64.5457 37.9408C63.7275 37.9408 63.0621 37.2754 63.0621 36.4574C63.0621 35.6395 63.7275 34.9738 64.5457 34.9738ZM39.4404 37.8246H43.0686C43.4312 37.8246 43.7789 37.6806 44.0353 37.4242C44.2917 37.1678 44.4357 36.82 44.4357 36.4574V23.2697C44.4357 23.0902 44.4004 22.9124 44.3317 22.7465C44.263 22.5807 44.1623 22.4299 44.0353 22.303C43.9083 22.176 43.7576 22.0753 43.5918 22.0066C43.4259 21.9379 43.2481 21.9025 43.0686 21.9025C42.889 21.9025 42.7112 21.9379 42.5454 22.0066C42.3795 22.0753 42.2288 22.176 42.1018 22.303C41.9749 22.4299 41.8741 22.5807 41.8054 22.7465C41.7367 22.9124 41.7014 23.0902 41.7014 23.2697V35.0902H39.4404C38.8707 33.4344 37.3012 32.2395 35.4543 32.2395C33.1285 32.2395 31.2363 34.1316 31.2363 36.4574C31.2363 38.783 33.1285 40.6752 35.4543 40.6752C37.3012 40.6752 38.8707 39.4803 39.4404 37.8246ZM35.4543 37.9408C34.6363 37.9408 33.9707 37.2754 33.9707 36.4574C33.9707 35.6395 34.6361 34.9738 35.4543 34.9738C36.2725 34.9738 36.9379 35.6393 36.9379 36.4574C36.9379 37.2754 36.2725 37.9408 35.4543 37.9408Z" fill="#4185DD"/>
</svg>
