<svg width="50" height="50" viewBox="0 0 50 50" fill="none" xmlns="http://www.w3.org/2000/svg">
<path d="M43.6 32.35C42.15 32.35 40.95 33.35 40.6 34.7H37.5V29H37.95C43.05 29 47.5 24.55 47.5 19.5C47.5 15.1 44.95 11.65 40.8 10.4C40.4 7.19998 38.3 4.59998 35.25 3.44998C32.2 2.29998 28.85 2.94998 26.45 5.04998C24.1 3.99998 21.2 3.99998 18.6 5.09998C16.35 6.04998 14.65 7.74998 13.85 9.79998C12.35 9.69998 10.85 10.2 9.7 11.25C8.55 12.3 7.9 13.7 7.9 15.2C4.75 15.95 2.5 18.7 2.5 22.05C2.5 25.85 5.7 29.05 9.5 29.05H12.5V34.7H9.4C9.05 33.35 7.85 32.35 6.4 32.35C4.7 32.35 3.3 33.75 3.3 35.45C3.3 37.15 4.7 38.55 6.4 38.55C7.85 38.55 9.05 37.55 9.4 36.2H13.25C13.65 36.2 14 35.85 14 35.45V29H18.4V36.75L15.5 39.65C15.05 39.35 14.5 39.2 13.9 39.2C12.2 39.2 10.8 40.6 10.8 42.3C10.8 44 12.2 45.4 13.9 45.4C15.6 45.4 17 44 17 42.3C17 41.7 16.85 41.2 16.55 40.7L19.6 37.65C19.75 37.5 19.8 37.3 19.8 37.1V29H24.2V41.05C22.85 41.4 21.85 42.6 21.85 44.05C21.85 45.75 23.25 47.15 24.95 47.15C26.65 47.15 28.05 45.75 28.05 44.05C28.05 42.6 27.05 41.4 25.7 41.05V29H30.1V37.1C30.1 37.3 30.2 37.5 30.3 37.65L33.35 40.7C33.05 41.15 32.9 41.7 32.9 42.3C32.9 44 34.3 45.4 36 45.4C37.7 45.4 39.1 44 39.1 42.3C39.1 40.6 37.7 39.2 36 39.2C35.4 39.2 34.9 39.35 34.4 39.65L31.55 36.8V29H36V35.4C36 35.8 36.35 36.15 36.75 36.15H40.6C40.95 37.5 42.15 38.5 43.6 38.5C45.3 38.5 46.7 37.1 46.7 35.4C46.7 33.7 45.3 32.35 43.6 32.35ZM6.4 37C5.55 37 4.8 36.3 4.8 35.4C4.8 34.55 5.5 33.8 6.4 33.8C7.25 33.8 8 34.5 8 35.4C8 36.3 7.25 37 6.4 37ZM13.95 43.85C13.1 43.85 12.35 43.15 12.35 42.25C12.35 41.4 13.05 40.65 13.95 40.65C14.8 40.65 15.55 41.35 15.55 42.25C15.5 43.15 14.8 43.85 13.95 43.85ZM26.6 44.05C26.6 44.9 25.9 45.65 25 45.65C24.15 45.65 23.4 44.95 23.4 44.05C23.4 43.2 24.1 42.45 25 42.45C25.85 42.45 26.6 43.15 26.6 44.05ZM37.65 42.25C37.65 43.1 36.95 43.85 36.05 43.85C35.2 43.85 34.45 43.15 34.45 42.25C34.45 41.4 35.15 40.65 36.05 40.65C36.95 40.7 37.65 41.4 37.65 42.25ZM4 22.05C4 19.2 5.95 16.95 8.8 16.6C9.2 16.55 9.5 16.2 9.45 15.8C9.35 14.5 9.8 13.3 10.75 12.4C11.5 11.7 12.5 11.3 13.5 11.3C13.75 11.3 14 11.3 14.25 11.35C14.65 11.4 15 11.2 15.1 10.8C15.6 8.94998 17.1 7.34998 19.2 6.44998C21.55 5.44998 24.25 5.49998 26.25 6.54998C26.55 6.69998 26.9 6.64998 27.15 6.39998C29.15 4.39998 32.05 3.74998 34.75 4.74998C37.4 5.74998 39.2 8.09998 39.4 10.95C39.4 11.25 39.65 11.55 39.95 11.6C43.7 12.65 46 15.65 46 19.5C46 23.75 42.25 27.5 37.95 27.5H9.5C6.5 27.5 4 25 4 22.05ZM43.6 37C42.75 37 42 36.3 42 35.4C42 34.55 42.7 33.8 43.6 33.8C44.45 33.8 45.2 34.5 45.2 35.4C45.2 36.3 44.5 37 43.6 37Z" fill="#4185DD"/>
</svg>
