<svg width="512" height="512" viewBox="0 0 512 512" fill="none" xmlns="http://www.w3.org/2000/svg">
<path d="M456 416.8V392C456 389.878 455.157 387.843 453.657 386.343C452.157 384.843 450.122 384 448 384H392V368H464C466.122 368 468.157 367.157 469.657 365.657C471.157 364.157 472 362.122 472 360V296C472 293.878 471.157 291.843 469.657 290.343C468.157 288.843 466.122 288 464 288H392V248C392 245.878 391.157 243.843 389.657 242.343C388.157 240.843 386.122 240 384 240H312V224H368C386.958 223.996 405.299 217.259 419.752 204.99C434.205 192.722 443.832 175.719 446.916 157.014C450 138.308 446.34 119.115 436.59 102.857C426.84 86.5979 411.633 74.33 393.68 68.2401C388.477 57.3632 380.296 48.1849 370.086 41.7703C359.877 35.3558 348.057 31.9679 336 32.0001C329.23 31.9754 322.502 33.0563 316.08 35.2001C304.354 26.8585 291.02 21.0486 276.926 18.1398C262.833 15.231 248.288 15.2871 234.217 18.3044C220.147 21.3217 206.858 27.2342 195.196 35.6659C183.534 44.0975 173.755 54.8639 166.48 67.2801C155.469 64.0262 143.886 63.1806 132.52 64.8008C121.153 66.4209 110.268 70.4689 100.604 76.6697C90.9408 82.8704 82.7253 91.0786 76.516 100.737C70.3067 110.394 66.2491 121.276 64.6188 132.641C62.9885 144.007 63.8238 155.59 67.068 166.604C70.3121 177.618 75.889 187.804 83.4198 196.472C90.9506 205.139 100.259 212.083 110.712 216.833C121.165 221.583 132.518 224.028 144 224H200V240H128C125.878 240 123.843 240.843 122.343 242.343C120.843 243.843 120 245.878 120 248V288H48C45.8783 288 43.8434 288.843 42.3431 290.343C40.8429 291.843 40 293.878 40 296V360C40 362.122 40.8429 364.157 42.3431 365.657C43.8434 367.157 45.8783 368 48 368H120V384H64C61.8783 384 59.8434 384.843 58.3431 386.343C56.8429 387.843 56 389.878 56 392V416.8C46.2877 418.783 37.6574 424.301 31.7824 432.285C25.9074 440.269 23.2062 450.15 24.2026 460.012C25.1989 469.875 29.8217 479.016 37.1748 485.664C44.5279 492.311 54.0874 495.992 64 495.992C73.9126 495.992 83.4721 492.311 90.8252 485.664C98.1783 479.016 102.801 469.875 103.797 460.012C104.794 450.15 102.093 440.269 96.2176 432.285C90.3426 424.301 81.7123 418.783 72 416.8V400H128C130.122 400 132.157 399.157 133.657 397.657C135.157 396.157 136 394.122 136 392V368H208C210.122 368 212.157 367.157 213.657 365.657C215.157 364.157 216 362.122 216 360V296C216 293.878 215.157 291.843 213.657 290.343C212.157 288.843 210.122 288 208 288H136V256H208C210.122 256 212.157 255.157 213.657 253.657C215.157 252.157 216 250.122 216 248V224H248V416.8C238.288 418.783 229.657 424.301 223.782 432.285C217.907 440.269 215.206 450.15 216.203 460.012C217.199 469.875 221.822 479.016 229.175 485.664C236.528 492.311 246.087 495.992 256 495.992C265.913 495.992 275.472 492.311 282.825 485.664C290.178 479.016 294.801 469.875 295.797 460.012C296.794 450.15 294.093 440.269 288.218 432.285C282.343 424.301 273.712 418.783 264 416.8V224H296V248C296 250.122 296.843 252.157 298.343 253.657C299.843 255.157 301.878 256 304 256H376V288H304C301.878 288 299.843 288.843 298.343 290.343C296.843 291.843 296 293.878 296 296V360C296 362.122 296.843 364.157 298.343 365.657C299.843 367.157 301.878 368 304 368H376V392C376 394.122 376.843 396.157 378.343 397.657C379.843 399.157 381.878 400 384 400H440V416.8C430.288 418.783 421.657 424.301 415.782 432.285C409.907 440.269 407.206 450.15 408.203 460.012C409.199 469.875 413.822 479.016 421.175 485.664C428.528 492.311 438.087 495.992 448 495.992C457.913 495.992 467.472 492.311 474.825 485.664C482.178 479.016 486.801 469.875 487.797 460.012C488.794 450.15 486.093 440.269 480.218 432.285C474.343 424.301 465.712 418.783 456 416.8ZM64 328C64 325.878 64.8429 323.843 66.3431 322.343C67.8434 320.843 69.8783 320 72 320H88C90.1217 320 92.1566 320.843 93.6569 322.343C95.1571 323.843 96 325.878 96 328C96 330.122 95.1571 332.157 93.6569 333.657C92.1566 335.157 90.1217 336 88 336H72C69.8783 336 67.8434 335.157 66.3431 333.657C64.8429 332.157 64 330.122 64 328ZM112 328C112 325.878 112.843 323.843 114.343 322.343C115.843 320.843 117.878 320 120 320H136C138.122 320 140.157 320.843 141.657 322.343C143.157 323.843 144 325.878 144 328C144 330.122 143.157 332.157 141.657 333.657C140.157 335.157 138.122 336 136 336H120C117.878 336 115.843 335.157 114.343 333.657C112.843 332.157 112 330.122 112 328ZM184 336H168C165.878 336 163.843 335.157 162.343 333.657C160.843 332.157 160 330.122 160 328C160 325.878 160.843 323.843 162.343 322.343C163.843 320.843 165.878 320 168 320H184C186.122 320 188.157 320.843 189.657 322.343C191.157 323.843 192 325.878 192 328C192 330.122 191.157 332.157 189.657 333.657C188.157 335.157 186.122 336 184 336ZM144 208C134.574 208.024 125.259 205.966 116.721 201.972C108.182 197.978 100.632 192.148 94.6083 184.897C88.5849 177.647 84.2374 169.155 81.8766 160.03C79.5157 150.904 79.1998 141.369 80.9514 132.107C82.703 122.846 86.4789 114.085 92.0092 106.452C97.5395 98.8182 104.688 92.5007 112.943 87.9506C121.198 83.4005 130.356 80.73 139.763 80.13C149.17 79.5301 158.594 81.0155 167.36 84.4801C169.205 85.2104 171.257 85.221 173.109 84.5097C174.961 83.7985 176.478 82.4174 177.36 80.6401C183.159 69.0067 191.469 58.8058 201.689 50.7736C211.909 42.7415 223.785 37.0783 236.459 34.1929C249.133 31.3075 262.29 31.2718 274.98 34.0883C287.67 36.9049 299.576 42.5035 309.84 50.4801C310.94 51.3566 312.255 51.9227 313.647 52.1197C315.04 52.3166 316.46 52.1372 317.76 51.6001C323.596 49.207 329.846 47.9874 336.153 48.0111C342.46 48.0349 348.701 49.3014 354.518 51.7383C360.335 54.1752 365.616 57.7348 370.057 62.2135C374.498 66.6922 378.012 72.0022 380.4 77.8401C380.854 78.9594 381.56 79.9598 382.461 80.7641C383.362 81.5685 384.436 82.1555 385.6 82.4801C400.429 86.7329 413.223 96.1989 421.627 109.136C430.031 122.073 433.479 137.61 431.337 152.887C429.194 168.164 421.606 182.154 409.968 192.281C398.331 202.407 383.427 207.99 368 208H144ZM448 328C448 330.122 447.157 332.157 445.657 333.657C444.157 335.157 442.122 336 440 336H424C421.878 336 419.843 335.157 418.343 333.657C416.843 332.157 416 330.122 416 328C416 325.878 416.843 323.843 418.343 322.343C419.843 320.843 421.878 320 424 320H440C442.122 320 444.157 320.843 445.657 322.343C447.157 323.843 448 325.878 448 328ZM400 328C400 330.122 399.157 332.157 397.657 333.657C396.157 335.157 394.122 336 392 336H376C373.878 336 371.843 335.157 370.343 333.657C368.843 332.157 368 330.122 368 328C368 325.878 368.843 323.843 370.343 322.343C371.843 320.843 373.878 320 376 320H392C394.122 320 396.157 320.843 397.657 322.343C399.157 323.843 400 325.878 400 328ZM328 320H344C346.122 320 348.157 320.843 349.657 322.343C351.157 323.843 352 325.878 352 328C352 330.122 351.157 332.157 349.657 333.657C348.157 335.157 346.122 336 344 336H328C325.878 336 323.843 335.157 322.343 333.657C320.843 332.157 320 330.122 320 328C320 325.878 320.843 323.843 322.343 322.343C323.843 320.843 325.878 320 328 320Z" fill="#4185DD"/>
<path d="M192 448H128C125.878 448 123.843 448.843 122.343 450.343C120.843 451.843 120 453.878 120 456C120 458.122 120.843 460.157 122.343 461.657C123.843 463.157 125.878 464 128 464H192C194.122 464 196.157 463.157 197.657 461.657C199.157 460.157 200 458.122 200 456C200 453.878 199.157 451.843 197.657 450.343C196.157 448.843 194.122 448 192 448ZM384 448H320C317.878 448 315.843 448.843 314.343 450.343C312.843 451.843 312 453.878 312 456C312 458.122 312.843 460.157 314.343 461.657C315.843 463.157 317.878 464 320 464H384C386.122 464 388.157 463.157 389.657 461.657C391.157 460.157 392 458.122 392 456C392 453.878 391.157 451.843 389.657 450.343C388.157 448.843 386.122 448 384 448Z" fill="#4185DD"/>
</svg>
