<svg width="512" height="512" viewBox="0 0 512 512" fill="none" xmlns="http://www.w3.org/2000/svg">
<g clip-path="url(#clip0_23_105)">
<path d="M26.619 339.9V377.734H8C5.87827 377.734 3.84344 378.577 2.34315 380.077C0.842855 381.577 0 383.612 0 385.734L0 431.569C0 433.691 0.842855 435.726 2.34315 437.226C3.84344 438.726 5.87827 439.569 8 439.569H296.894C299.016 439.569 301.051 438.726 302.551 437.226C304.051 435.726 304.894 433.691 304.894 431.569V385.733C304.894 383.611 304.051 381.576 302.551 380.076C301.051 378.576 299.016 377.733 296.894 377.733H278.274V339.9C278.274 337.778 277.431 335.743 275.931 334.243C274.431 332.743 272.396 331.9 270.274 331.9H243.2C237.673 329.953 232.901 326.314 229.562 321.499C226.222 316.685 224.485 310.94 224.598 305.081C224.711 299.223 226.668 293.549 230.191 288.867C233.713 284.185 238.622 280.732 244.22 279C245.797 278.511 247.185 277.545 248.191 276.236C249.198 274.927 249.775 273.338 249.843 271.688C249.95 269.096 250.03 266.538 250.095 263.998H315.958L315.89 439.729C315.89 441.851 316.733 443.886 318.233 445.386C319.733 446.886 321.768 447.729 323.89 447.729H359.943C354.848 453.158 351.453 459.959 350.176 467.294C348.898 474.629 349.794 482.177 352.754 489.009C355.714 495.841 360.607 501.658 366.832 505.743C373.056 509.828 380.34 512.003 387.785 512H471.314C479.741 512 487.96 509.383 494.836 504.51C501.712 499.638 506.906 492.75 509.699 484.8C512.492 476.849 512.748 468.227 510.431 460.124C508.113 452.022 503.337 444.839 496.762 439.568C495.697 434.36 493.435 429.47 490.156 425.286C486.876 421.102 482.669 417.738 477.866 415.46C473.063 413.182 467.796 412.052 462.481 412.159C457.166 412.266 451.948 413.608 447.241 416.078C442.044 409.763 435.23 404.978 427.526 402.234C419.822 399.49 411.517 398.889 403.498 400.497C395.48 402.104 388.048 405.859 381.997 411.361C375.946 416.862 371.502 423.904 369.141 431.734H331.893L331.958 264H350.972C349.419 269.661 349.194 275.604 350.316 281.365C351.438 287.127 353.875 292.551 357.439 297.216C361.002 301.881 365.595 305.659 370.859 308.256C376.122 310.854 381.915 312.2 387.785 312.19H471.314C479.741 312.19 487.961 309.573 494.837 304.701C501.713 299.829 506.906 292.941 509.7 284.991C512.493 277.04 512.749 268.418 510.431 260.315C508.114 252.213 503.337 245.03 496.762 239.759C495.697 234.551 493.435 229.661 490.156 225.477C486.876 221.293 482.669 217.929 477.866 215.651C473.063 213.373 467.796 212.243 462.481 212.35C457.166 212.457 451.948 213.799 447.241 216.269C441.5 209.295 433.799 204.202 425.134 201.65C416.469 199.097 407.238 199.202 398.633 201.951C390.028 204.699 382.444 209.965 376.863 217.067C371.282 224.17 367.959 232.783 367.323 241.794C364.587 243.538 362.085 245.623 359.877 248H331.965L332.03 80.411H350.13C351.61 89.3338 356.206 97.4427 363.102 103.296C369.997 109.15 378.744 112.369 387.789 112.381H471.318C479.745 112.381 487.964 109.764 494.84 104.891C501.716 100.019 506.91 93.1315 509.703 85.1807C512.496 77.2298 512.752 68.6078 510.435 60.5055C508.117 52.4031 503.341 45.2202 496.766 39.949C495.701 34.7407 493.439 29.8514 490.16 25.6675C486.88 21.4835 482.673 18.1194 477.87 15.8411C473.067 13.5628 467.8 12.4326 462.485 12.5398C457.17 12.6471 451.952 13.9888 447.245 16.459C441.504 9.48475 433.803 4.3924 425.138 1.83993C416.473 -0.712539 407.242 -0.607834 398.637 2.14052C390.032 4.88887 382.449 10.1546 376.867 17.2572C371.286 24.3599 367.963 32.9731 367.327 41.984C359.243 47.1442 353.386 55.1457 350.91 64.411H324.033C321.911 64.411 319.876 65.2539 318.376 66.7541C316.876 68.2544 316.033 70.2893 316.033 72.411L315.965 248H250.233C250 222.63 247.533 200.272 242.845 181.335C236.571 156.002 226.136 135.921 211.828 121.647C193.456 103.321 168.528 94.269 137.738 94.609C127.8 78.6 108.82 64.548 73.131 77.512C71.793 77.9981 70.609 78.8325 69.7011 79.9289C68.7933 81.0253 68.1944 82.3442 67.9663 83.7493C67.7382 85.1545 67.8892 86.595 68.4037 87.9223C68.9182 89.2496 69.7775 90.4156 70.893 91.3C79.1355 97.6013 85.0085 106.501 87.56 116.558L6.451 189.558C4.23514 191.525 2.77356 194.203 2.31734 197.131C1.86112 200.058 2.43875 203.054 3.951 205.602L25.643 242.758C27.1583 245.352 29.5337 247.333 32.357 248.358C35.1803 249.384 38.2735 249.389 41.1 248.372L74.093 236.5C75.8056 235.884 77.3679 234.911 78.6766 233.646C79.9852 232.381 81.0104 230.852 81.6844 229.161C82.3584 227.471 82.6657 225.656 82.5862 223.838C82.5067 222.019 82.042 220.238 81.223 218.613L76.4 209.025C89.745 207.41 102.684 203.377 114.584 197.125L125.904 214.42C119.88 233.82 110.176 239.453 98.06 246.484C90.293 250.99 81.49 256.099 73.849 265.355C61.91 279.8 56.974 301.614 58.81 331.9H34.619C32.4973 331.9 30.4624 332.743 28.9621 334.243C27.4619 335.743 26.619 337.778 26.619 339.9ZM383.243 446.042C383.225 445.621 383.213 445.199 383.213 444.774C383.213 438.269 385.388 431.95 389.392 426.823C393.396 421.697 399 418.056 405.312 416.481C411.624 414.906 418.281 415.487 424.225 418.131C430.168 420.775 435.057 425.331 438.113 431.074C438.692 432.159 439.514 433.096 440.514 433.812C441.514 434.528 442.665 435.004 443.879 435.202C445.093 435.401 446.336 435.317 447.512 434.957C448.688 434.597 449.765 433.971 450.66 433.127C454.044 429.926 458.528 428.145 463.186 428.152C467.734 428.177 472.111 429.889 475.471 432.955C478.83 436.022 480.932 440.225 481.371 444.752C481.478 445.948 481.853 447.104 482.467 448.136C483.082 449.167 483.921 450.047 484.922 450.71C489.352 453.635 492.722 457.909 494.531 462.9C496.34 467.891 496.492 473.333 494.965 478.417C493.437 483.501 490.311 487.957 486.051 491.125C481.791 494.292 476.623 496.002 471.314 496H387.785C382.723 495.999 377.814 494.266 373.873 491.09C369.932 487.913 367.196 483.483 366.12 478.537C365.045 473.59 365.694 468.425 367.96 463.898C370.226 459.372 373.972 455.757 378.577 453.654C380.023 452.993 381.24 451.915 382.071 450.559C382.902 449.204 383.31 447.631 383.243 446.042ZM378.577 253.842C380.023 253.181 381.24 252.103 382.071 250.747C382.902 249.391 383.31 247.818 383.243 246.229C383.225 245.809 383.213 245.387 383.213 244.962C383.213 238.457 385.388 232.138 389.392 227.011C393.396 221.885 399 218.244 405.312 216.669C411.624 215.094 418.281 215.675 424.225 218.319C430.168 220.963 435.057 225.519 438.113 231.262C438.692 232.347 439.514 233.284 440.514 234C441.514 234.716 442.665 235.191 443.879 235.39C445.093 235.588 446.336 235.504 447.512 235.144C448.688 234.784 449.765 234.158 450.66 233.314C454.044 230.113 458.528 228.333 463.186 228.34C467.734 228.365 472.111 230.077 475.471 233.143C478.83 236.21 480.932 240.413 481.371 244.94C481.478 246.136 481.853 247.292 482.467 248.324C483.082 249.355 483.921 250.235 484.922 250.898C489.35 253.823 492.718 258.097 494.526 263.086C496.334 268.076 496.486 273.515 494.96 278.598C493.433 283.68 490.31 288.136 486.052 291.303C481.794 294.471 476.629 296.183 471.322 296.184H387.785C382.723 296.184 377.813 294.451 373.872 291.275C369.93 288.098 367.195 283.668 366.119 278.722C365.043 273.775 365.693 268.609 367.959 264.083C370.225 259.556 373.972 255.941 378.577 253.839V253.842ZM378.577 54.032C380.023 53.3707 381.24 52.2933 382.071 50.9375C382.902 49.5816 383.31 48.0089 383.243 46.42C383.225 45.999 383.213 45.577 383.213 45.152C383.213 38.6467 385.388 32.3281 389.392 27.2013C393.396 22.0746 399 18.4341 405.312 16.8591C411.624 15.284 418.281 15.8648 424.225 18.5091C430.168 21.1534 435.057 25.7092 438.113 31.452C438.692 32.537 439.514 33.474 440.514 34.19C441.514 34.906 442.665 35.3817 443.879 35.5803C445.093 35.7789 446.336 35.695 447.512 35.3351C448.688 34.9752 449.765 34.3489 450.66 33.505C454.044 30.3038 458.528 28.5231 463.186 28.53C467.734 28.5553 472.111 30.2667 475.471 33.3331C478.83 36.3995 480.932 40.6029 481.371 45.13C481.478 46.3259 481.853 47.4824 482.467 48.5138C483.082 49.5452 483.921 50.425 484.922 51.088C489.35 54.0129 492.718 58.2869 494.526 63.2763C496.334 68.2657 496.486 73.7049 494.96 78.7876C493.433 83.8702 490.31 88.3257 486.052 91.4935C481.794 94.6612 476.629 96.3727 471.322 96.374H387.785C382.723 96.3731 377.814 94.6403 373.873 91.4635C369.932 88.2867 367.196 83.8572 366.12 78.9108C365.045 73.9644 365.694 68.7988 367.96 64.2723C370.226 59.7458 373.972 56.1309 378.577 54.028V54.032ZM288.894 423.568H16V393.733H288.894V423.568ZM86.183 275.535C91.998 268.492 98.841 264.521 106.083 260.317C119.496 252.534 134.698 243.717 142.328 215.168C142.618 214.081 142.676 212.945 142.498 211.835C142.32 210.724 141.909 209.663 141.293 208.722L123.926 182.188C122.806 180.477 121.075 179.26 119.086 178.787C117.097 178.313 115.002 178.619 113.232 179.641C96.342 189.393 81.086 193.741 63.767 193.741C62.4012 193.741 61.058 194.09 59.8656 194.756C58.6731 195.422 57.671 196.383 56.9547 197.545C56.2384 198.708 55.8317 200.035 55.7735 201.4C55.7153 202.764 56.0074 204.121 56.622 205.341L65.336 222.641L38.136 232.433L19.053 199.739L101.7 125.354C102.707 124.448 103.467 123.3 103.91 122.02C104.352 120.739 104.462 119.368 104.229 118.033C102.485 107.442 98.0406 97.4788 91.324 89.106C112.332 85.65 121.139 96.898 126.047 106.406C126.749 107.762 127.824 108.89 129.146 109.656C130.467 110.422 131.98 110.794 133.506 110.729C162.333 109.464 184.263 116.745 200.528 132.973C224.743 157.128 236.011 201.799 234.045 265.799C228.119 268.547 222.881 272.582 218.711 277.61C214.541 282.638 211.545 288.532 209.941 294.864C208.337 301.196 208.165 307.806 209.438 314.213C210.711 320.62 213.397 326.662 217.3 331.9H74.848C73.148 305.673 76.95 286.719 86.183 275.535ZM262.274 347.9V377.734H42.619V347.9H262.274Z" fill="#4185DD"/>
</g>
<defs>
<clipPath id="clip0_23_105">
<rect width="512" height="512" fill="white"/>
</clipPath>
</defs>
</svg>
