<svg width="512" height="512" viewBox="0 0 512 512" fill="none" xmlns="http://www.w3.org/2000/svg">
<path d="M496.188 216.847C496.188 161.882 451.765 117.459 396.8 117.459H390.024C381.741 64.0001 335.812 24.0942 280.847 24.0942C234.918 24.0942 193.506 52.706 177.694 94.8707C132.518 76.0472 79.0588 109.177 79.0588 161.882V167.906C42.9176 173.177 15.8118 204.047 15.8118 241.694C15.8118 283.106 49.6941 316.235 90.3529 316.235H117.459V395.294H76.8C73.7882 382.494 61.7412 372.706 47.4353 372.706C30.8706 372.706 17.3177 386.259 17.3177 402.824C17.3177 419.388 30.8706 432.941 47.4353 432.941C61.7412 432.941 73.0353 423.153 76.8 410.353H124.988C129.506 410.353 132.518 407.341 132.518 402.824V387.765H196.518V428.424C183.718 431.435 173.929 443.482 173.929 457.788C173.929 474.353 187.482 487.906 204.047 487.906C220.612 487.906 234.165 474.353 234.165 457.788C234.165 443.482 224.376 432.188 211.576 428.424V380.235C211.576 375.718 208.565 372.706 204.047 372.706H132.518V316.235H201.035C204.8 382.494 259.765 435.2 327.529 435.2C397.553 435.2 454.024 378.73 454.024 308.706C454.024 304.941 454.024 301.93 453.271 298.165C480.376 280.094 496.188 249.224 496.188 216.847ZM48.9412 418.635C40.6588 418.635 33.8824 411.859 33.8824 403.577C33.8824 395.294 40.6588 388.518 48.9412 388.518C57.2235 388.518 64 395.294 64 403.577C64 411.859 57.2235 418.635 48.9412 418.635ZM219.859 457.788C219.859 466.071 213.082 472.847 204.8 472.847C196.518 472.847 189.741 466.071 189.741 457.788C189.741 449.506 196.518 442.73 204.8 442.73C213.082 442.73 219.859 449.506 219.859 457.788ZM327.529 420.141C265.788 420.141 216.094 370.447 216.094 308.706C216.094 246.965 265.788 197.271 327.529 197.271C389.271 197.271 438.965 247.718 438.965 308.706C438.965 370.447 389.271 420.141 327.529 420.141ZM451.012 281.6C438.212 225.13 387.765 182.212 327.529 182.212C260.518 182.212 205.553 234.918 201.035 301.177H90.3529C57.2235 301.177 30.8706 274.071 30.8706 241.694C30.8706 209.318 55.7177 183.718 88.0941 182.212C92.6118 182.212 95.6235 178.447 94.8706 173.93C94.1177 170.165 94.1176 166.4 94.1176 162.635C94.1176 118.965 141.553 91.8589 178.447 112.941C182.965 115.2 188.235 112.941 189.741 108.424C201.035 67.7648 238.682 39.906 281.6 39.906C331.294 39.906 372.706 77.5531 377.224 127.247C377.224 131.765 381.741 134.777 386.259 134.024C390.024 133.271 393.788 133.271 398.306 133.271C444.988 133.271 482.635 170.918 482.635 217.6C481.129 241.694 469.835 265.788 451.012 281.6Z" fill="#4185DD"/>
<path d="M142.306 240.188C137.788 240.188 134.776 243.953 134.776 247.718C134.776 251.482 137.788 255.247 142.306 255.247C146.824 255.247 149.835 251.482 149.835 247.718C149.835 243.2 146.824 240.188 142.306 240.188ZM104.659 240.188C100.141 240.188 97.1294 243.953 97.1294 247.718C97.1294 251.482 100.141 255.247 104.659 255.247C109.176 255.247 112.188 251.482 112.188 247.718C112.188 243.2 109.176 240.188 104.659 240.188ZM67.0118 240.188C62.4941 240.188 59.4824 243.953 59.4824 247.718C59.4824 251.482 62.4941 255.247 67.0118 255.247C71.5294 255.247 74.5412 251.482 74.5412 247.718C74.5412 243.2 71.5294 240.188 67.0118 240.188ZM376.471 273.318H371.2V262.024C371.2 237.929 351.624 218.353 327.529 218.353C303.435 218.353 283.859 237.929 283.859 262.024V273.318H278.588C270.306 273.318 263.529 280.094 263.529 288.377V370.447C263.529 378.73 270.306 385.506 278.588 385.506H376.471C384.753 385.506 391.529 378.73 391.529 370.447V288.377C391.529 280.094 384.753 273.318 376.471 273.318ZM298.918 262.024C298.918 246.212 311.718 233.412 327.529 233.412C343.341 233.412 356.141 246.212 356.141 262.024V273.318H298.165L298.918 262.024ZM278.588 370.447V288.377H376.471V370.447H278.588Z" fill="#4185DD"/>
<path d="M327.529 298.165C313.976 298.165 303.435 308.706 303.435 322.259C303.435 332.8 310.212 341.835 320 344.847V353.13C320 357.647 323.012 360.659 327.529 360.659C332.047 360.659 335.059 357.647 335.059 353.13V344.847C344.847 341.835 351.624 332.8 351.624 322.259C351.624 308.706 340.329 298.165 327.529 298.165ZM327.529 330.541C323.012 330.541 318.494 326.777 318.494 321.506C318.494 316.235 322.259 312.471 327.529 312.471C332.8 312.471 336.565 316.235 336.565 321.506C336.565 326.777 332.047 330.541 327.529 330.541ZM280.094 60.9883C250.729 60.9883 224.376 78.3059 213.835 106.165C212.329 109.929 213.835 114.447 218.353 115.953C222.118 117.459 226.635 115.953 228.141 111.435C237.176 89.6 257.506 76.0471 280.847 76.0471C285.365 76.0471 288.376 73.0353 288.376 68.5177C288.376 64 284.612 60.9883 280.094 60.9883Z" fill="#4185DD"/>
</svg>
