<svg width="512" height="512" viewBox="0 0 512 512" fill="none" xmlns="http://www.w3.org/2000/svg">
<path fill-rule="evenodd" clip-rule="evenodd" d="M354.097 401.295L391.907 363.507C393.223 362.202 395.002 361.47 396.856 361.472C398.709 361.474 400.486 362.21 401.799 363.519C404.491 366.252 404.491 370.659 401.799 373.387L358.018 417.068C355.314 419.781 350.933 419.763 348.185 417.115L323.426 392.801C320.676 390.103 320.676 385.684 323.368 382.933C324.007 382.28 324.769 381.76 325.609 381.402C326.449 381.044 327.352 380.855 328.265 380.847C329.179 380.838 330.085 381.01 330.932 381.351C331.779 381.693 332.55 382.199 333.201 382.839L351.99 401.294H354.097V401.295ZM314.531 237.61C304.288 237.61 295.567 230.879 292.641 221.614H336.422C333.436 230.879 324.773 237.61 314.531 237.61ZM197.469 237.61C187.226 237.61 178.506 230.879 175.579 221.614H219.36C216.375 230.879 207.712 237.61 197.469 237.61ZM197.469 169.521L216.199 207.66H178.74L197.469 169.521ZM333.26 207.66H295.8L314.53 169.521L333.26 207.66ZM350.702 211.558L320.793 150.622C320.214 149.454 319.321 148.471 318.215 147.783C317.109 147.094 315.833 146.727 314.53 146.723H197.469C196.165 146.72 194.885 147.083 193.778 147.773C192.67 148.462 191.779 149.45 191.206 150.622L161.239 211.563C160.771 212.488 160.537 213.53 160.537 214.636C160.537 234.998 177.101 251.563 197.469 251.563C217.838 251.563 234.402 234.998 234.402 214.636C234.402 212.851 233.716 211.878 233.641 211.558L208.648 160.678H249.034V276.035H220.588C219.672 276.035 218.765 276.215 217.919 276.566C217.073 276.916 216.305 277.43 215.658 278.078C215.011 278.726 214.498 279.496 214.149 280.342C213.8 281.189 213.621 282.096 213.623 283.012C213.62 283.928 213.798 284.836 214.146 285.683C214.495 286.53 215.008 287.299 215.655 287.948C216.303 288.596 217.072 289.11 217.918 289.46C218.765 289.81 219.672 289.99 220.588 289.988H291.352C295.214 289.988 298.375 286.874 298.375 283.012C298.375 279.16 295.214 276.035 291.352 276.035H262.964V160.678H303.291L278.299 211.564C277.831 212.489 277.596 213.531 277.596 214.637C277.596 234.999 294.16 251.564 314.529 251.564C334.897 251.564 351.461 234.999 351.461 214.637C351.463 212.894 350.702 211.592 350.702 211.558ZM310.609 308.882C310.611 309.798 310.432 310.705 310.083 311.552C309.734 312.398 309.221 313.168 308.574 313.816C307.927 314.464 307.158 314.978 306.312 315.328C305.466 315.679 304.559 315.859 303.644 315.859H208.356C204.493 315.859 201.391 312.733 201.391 308.882C201.391 305.031 204.493 301.906 208.356 301.906H303.644C304.559 301.905 305.466 302.085 306.312 302.436C307.158 302.786 307.927 303.3 308.574 303.948C309.221 304.597 309.734 305.366 310.083 306.212C310.432 307.059 310.611 307.966 310.609 308.882ZM359.891 310.954C361.061 310.954 362.232 310.995 363.344 311.048V103.06H148.597V359.528H288.484C299.781 331.112 327.524 310.954 359.891 310.954ZM422.812 387.804C422.812 353.13 394.6 324.907 359.892 324.907C325.242 324.907 296.972 353.13 296.972 387.804C296.972 422.495 325.243 450.712 359.892 450.712C394.6 450.712 422.812 422.495 422.812 387.804ZM116.405 401.295C115.352 401.295 114.474 400.4 114.474 399.351V375.425C114.474 374.365 115.352 373.481 116.405 373.481H284.387C282.663 382.596 282.562 392.157 284.271 401.295H116.405ZM114.474 87.1687V63.2296C114.474 62.182 115.352 61.286 116.405 61.286H395.536C396.59 61.286 397.468 62.181 397.468 63.2296V87.1687C397.468 88.2162 396.59 89.1122 395.536 89.1122H116.405C115.352 89.1122 114.474 88.2162 114.474 87.1687ZM460.154 304.966C466.826 304.966 472.27 310.386 472.27 317.046C472.27 323.708 466.826 329.127 460.154 329.127C453.54 329.127 448.096 323.707 448.096 317.046C448.096 310.386 453.54 304.966 460.154 304.966ZM51.7878 329.128C45.1154 329.128 39.7302 323.708 39.7302 317.047C39.7302 310.386 45.1144 304.967 51.7878 304.967C58.4602 304.967 63.9037 310.387 63.9037 317.047C63.9037 323.708 58.4602 329.128 51.7878 329.128ZM51.7878 243.369C45.1154 243.369 39.7302 237.955 39.7302 231.294C39.7302 224.627 45.1144 219.212 51.7878 219.212C58.4602 219.212 63.9037 224.626 63.9037 231.294C63.9037 237.955 58.4602 243.369 51.7878 243.369ZM51.7878 157.616C45.1154 157.616 39.7302 152.196 39.7302 145.535C39.7302 138.875 45.1144 133.448 51.7878 133.448C58.4602 133.448 63.9037 138.875 63.9037 145.535C63.9037 152.196 58.4602 157.616 51.7878 157.616ZM460.154 133.449C466.826 133.449 472.27 138.876 472.27 145.536C472.27 152.197 466.826 157.617 460.154 157.617C453.54 157.617 448.096 152.197 448.096 145.536C448.096 138.875 453.54 133.449 460.154 133.449ZM460.154 219.213C466.826 219.213 472.27 224.627 472.27 231.295C472.27 237.955 466.826 243.37 460.154 243.37C453.54 243.37 448.096 237.956 448.096 231.295C448.096 224.627 453.54 219.213 460.154 219.213ZM435.103 238.271C438.146 249.245 448.213 257.323 460.154 257.323C474.552 257.323 486.199 245.652 486.199 231.295C486.199 216.937 474.551 205.26 460.154 205.26C448.214 205.26 438.146 213.332 435.103 224.318H377.274V187.901H424.801C426.616 187.901 428.43 187.168 429.718 185.858L447.394 168.194C464.324 177.902 486.199 165.694 486.199 145.537C486.199 131.179 474.551 119.496 460.154 119.496C440.571 119.496 427.609 140.599 437.502 158.325L421.875 173.953H377.274V103.061H395.535C404.315 103.061 411.456 95.9269 411.456 87.1697V63.2296C411.456 54.4672 404.315 47.333 395.535 47.333H116.405C107.684 47.333 100.543 54.4682 100.543 63.2296V87.1687C100.543 95.9249 107.684 103.06 116.405 103.06H134.666V173.952H90.0659L74.4387 158.324C84.1861 141.331 71.935 119.495 51.7878 119.495C37.4477 119.495 25.7997 131.178 25.7997 145.536C25.7997 165.459 47.2975 177.966 64.6052 168.193L82.2815 185.857C82.9232 186.508 83.6887 187.024 84.5331 187.375C85.3774 187.726 86.2834 187.904 87.1977 187.9H134.665V224.317H76.8973C73.854 213.331 63.7276 205.259 51.7878 205.259C37.4477 205.259 25.7997 216.936 25.7997 231.294C25.7997 245.651 37.4477 257.322 51.7878 257.322C63.7276 257.322 73.854 249.244 76.8973 238.27H134.666V274.676H87.1987C85.3258 274.676 83.5697 275.414 82.2825 276.725L64.6062 294.389C47.2289 284.605 25.8007 297.172 25.8007 317.046C25.8007 331.398 37.4487 343.081 51.7888 343.081C71.9299 343.081 84.1892 321.254 74.4397 304.258L90.067 288.63H134.667V359.528H116.406C107.685 359.528 100.545 366.651 100.545 375.425V399.351C100.545 408.114 107.685 415.243 116.406 415.243H288.133C299.195 444.11 327.173 464.666 359.891 464.666C402.267 464.666 436.741 430.186 436.741 387.804C436.741 351.415 411.339 320.88 377.274 312.973V288.63H421.875L437.502 304.258C427.607 321.988 440.577 343.081 460.154 343.081C474.552 343.081 486.199 331.398 486.199 317.046C486.199 296.919 464.378 284.677 447.394 294.389L429.718 276.725C428.43 275.414 426.616 274.676 424.801 274.676H377.274V238.27L435.103 238.271Z" fill="#4185DD"/>
</svg>
