<svg width="512" height="512" viewBox="0 0 512 512" fill="none" xmlns="http://www.w3.org/2000/svg">
<g clip-path="url(#clip0_23_115)">
<path d="M72.6745 222.968C69.3727 224.287 66.4932 226.482 64.3459 229.316C62.1987 232.151 60.8651 235.517 60.4886 239.052C59.4816 250.297 59.4816 261.609 60.4886 272.853C60.8537 276.413 62.1852 279.805 64.339 282.663C66.4928 285.52 69.387 287.735 72.7085 289.066L98.9144 299.519C102.465 312.331 107.584 324.655 114.155 336.212L103.062 362.205C101.594 365.474 101.072 369.091 101.558 372.642C102.044 376.193 103.517 379.537 105.81 382.292C108.925 386.038 112.5 389.972 117.253 394.853C121.963 399.444 125.906 403.019 129.558 406.049C132.311 408.368 135.66 409.868 139.224 410.376C142.788 410.885 146.422 410.382 149.714 408.925L175.715 397.832C187.272 404.402 199.596 409.521 212.408 413.072L222.895 439.312C224.214 442.614 226.409 445.494 229.243 447.641C232.078 449.788 235.444 451.122 238.98 451.498C250.224 452.505 261.536 452.505 272.78 451.498C276.34 451.133 279.732 449.802 282.59 447.648C285.448 445.494 287.662 442.6 288.993 439.278L299.515 413.081C312.327 409.531 324.651 404.412 336.208 397.841L362.201 408.934C365.471 410.402 369.087 410.922 372.638 410.436C376.189 409.951 379.532 408.478 382.288 406.186C386.034 403.071 389.968 399.496 394.849 394.743C399.44 390.033 403.015 386.09 406.045 382.438C408.367 379.686 409.869 376.337 410.377 372.773C410.886 369.208 410.381 365.573 408.921 362.282L397.828 336.281C404.399 324.724 409.518 312.4 413.069 299.588L439.308 289.101C442.61 287.782 445.49 285.587 447.637 282.752C449.784 279.918 451.118 276.552 451.494 273.016C452.501 261.772 452.501 250.46 451.494 239.215C451.129 235.656 449.798 232.264 447.644 229.406C445.49 226.548 442.596 224.334 439.274 223.003L413.078 212.481C409.527 199.669 404.408 187.345 397.837 175.788L408.93 149.795C410.398 146.525 410.919 142.909 410.434 139.358C409.948 135.807 408.475 132.463 406.182 129.708C403.067 125.962 399.492 122.028 394.739 117.147C390.029 112.556 386.086 108.981 382.434 105.951C379.68 103.634 376.331 102.136 372.767 101.628C369.204 101.12 365.57 101.621 362.278 103.075L336.277 114.168C324.72 107.597 312.396 102.478 299.584 98.9273L289.027 72.6795C287.708 69.3776 285.513 66.4981 282.679 64.3508C279.844 62.2036 276.478 60.87 272.942 60.4935C261.698 59.4865 250.386 59.4865 239.142 60.4935C235.582 60.8586 232.19 62.1901 229.332 64.3439C226.474 66.4978 224.26 69.392 222.929 72.7135L212.476 98.9193C199.664 102.47 187.34 107.589 175.783 114.16L149.79 103.067C146.521 101.595 142.904 101.071 139.352 101.557C135.8 102.043 132.456 103.519 129.703 105.815C125.957 108.93 122.023 112.505 117.142 117.258C112.551 121.968 108.976 125.911 105.946 129.563C103.624 132.314 102.122 135.664 101.614 139.228C101.105 142.792 101.61 146.428 103.07 149.719L114.163 175.72C107.592 187.277 102.473 199.601 98.9224 212.413L72.6745 222.968ZM114.359 220.852C117.859 206.722 123.468 193.201 130.999 180.745C131.698 179.586 132.111 178.277 132.205 176.927C132.298 175.577 132.07 174.224 131.537 172.98L118.737 143.028C118.546 142.634 118.468 142.195 118.512 141.76C118.555 141.325 118.719 140.91 118.984 140.562C121.783 137.149 125.077 133.548 129.224 129.341C133.593 125.074 137.211 121.78 140.701 118.905C141.048 118.669 141.451 118.53 141.87 118.502C142.288 118.473 142.707 118.557 143.082 118.743L173.025 131.543C174.269 132.076 175.622 132.305 176.972 132.211C178.323 132.118 179.631 131.704 180.79 131.005C193.246 123.474 206.767 117.864 220.897 114.365C222.213 114.04 223.433 113.406 224.455 112.516C225.478 111.626 226.273 110.504 226.776 109.245L238.842 79.0544C238.998 78.6379 239.264 78.271 239.61 77.9919C239.957 77.7128 240.372 77.5317 240.813 77.4674C250.981 76.5624 261.21 76.5624 271.378 77.4674C271.796 77.5441 272.187 77.7274 272.512 77.9995C272.838 78.2716 273.088 78.6233 273.238 79.0204L285.261 109.228C285.764 110.487 286.559 111.609 287.582 112.499C288.604 113.389 289.824 114.023 291.14 114.348C305.27 117.847 318.79 123.457 331.247 130.988C332.406 131.687 333.714 132.1 335.065 132.194C336.415 132.287 337.768 132.058 339.012 131.526L368.964 118.726C369.357 118.533 369.796 118.454 370.232 118.497C370.668 118.541 371.083 118.706 371.43 118.973C374.843 121.772 378.444 125.066 382.651 129.213C386.918 133.582 390.212 137.2 393.087 140.69C393.574 141.394 393.636 142.308 393.249 143.071L380.449 173.014C379.916 174.258 379.687 175.611 379.781 176.961C379.874 178.311 380.288 179.62 380.987 180.779C388.518 193.235 394.128 206.756 397.627 220.886C397.952 222.202 398.586 223.422 399.476 224.444C400.366 225.466 401.488 226.262 402.747 226.765L432.937 238.83C433.354 238.987 433.721 239.253 434 239.599C434.279 239.946 434.46 240.361 434.524 240.801C435.429 250.97 435.429 261.199 434.524 271.367C434.448 271.785 434.264 272.175 433.992 272.501C433.72 272.827 433.369 273.077 432.971 273.227L402.764 285.268C401.505 285.771 400.383 286.566 399.493 287.589C398.603 288.611 397.969 289.831 397.644 291.147C394.144 305.276 388.535 318.797 381.004 331.254C380.305 332.413 379.892 333.721 379.798 335.072C379.705 336.422 379.933 337.775 380.466 339.019L393.266 368.971C393.656 369.774 393.56 370.728 393.019 371.437C390.22 374.85 386.926 378.451 382.779 382.658C378.41 386.925 374.792 390.219 371.302 393.094C370.954 393.327 370.551 393.465 370.133 393.493C369.715 393.522 369.297 393.44 368.921 393.256L338.978 380.456C337.734 379.923 336.381 379.694 335.031 379.788C333.68 379.881 332.372 380.295 331.213 380.994C318.757 388.525 305.236 394.135 291.106 397.634C289.79 397.958 288.57 398.592 287.548 399.483C286.525 400.373 285.73 401.494 285.227 402.754L273.161 432.944C273.005 433.361 272.739 433.728 272.393 434.007C272.046 434.286 271.631 434.467 271.19 434.531C261.022 435.436 250.793 435.436 240.625 434.531C240.207 434.455 239.816 434.271 239.49 433.999C239.165 433.727 238.915 433.376 238.765 432.978L226.724 402.771C226.221 401.511 225.426 400.39 224.403 399.5C223.381 398.609 222.161 397.976 220.845 397.651C206.715 394.151 193.194 388.542 180.738 381.011C179.578 380.316 178.269 379.904 176.92 379.811C175.571 379.717 174.218 379.944 172.973 380.473L143.021 393.273C142.627 393.463 142.189 393.54 141.753 393.497C141.318 393.453 140.903 393.29 140.555 393.026C137.142 390.227 133.541 386.933 129.334 382.786C125.067 378.417 121.773 374.799 118.898 371.309C118.659 370.963 118.518 370.56 118.489 370.141C118.461 369.721 118.546 369.302 118.736 368.928L131.536 338.985C132.069 337.741 132.298 336.388 132.204 335.038C132.111 333.687 131.697 332.379 130.998 331.22C123.467 318.764 117.857 305.243 114.358 291.113C114.033 289.797 113.399 288.577 112.509 287.555C111.619 286.532 110.497 285.737 109.238 285.234L79.0565 273.202C78.64 273.046 78.2731 272.78 77.994 272.433C77.7149 272.087 77.5338 271.672 77.4695 271.231C76.5645 261.063 76.5645 250.834 77.4695 240.665C77.5462 240.248 77.7295 239.857 78.0016 239.531C78.2737 239.206 78.6253 238.955 79.0225 238.805L109.221 226.731C110.48 226.228 111.602 225.432 112.492 224.41C113.382 223.388 114.016 222.168 114.341 220.852H114.359Z" fill="#4185DD"/>
<path d="M255.995 383.999C326.687 383.999 383.995 326.691 383.995 255.999C383.995 185.308 326.687 128 255.995 128C185.304 128 127.996 185.308 127.996 255.999C128.076 326.659 185.336 383.92 255.995 383.999ZM255.995 145.067C317.262 145.067 366.928 194.734 366.928 255.999C366.928 317.265 317.261 366.932 255.995 366.932C194.73 366.932 145.063 317.265 145.063 255.999C145.133 194.763 194.758 145.138 255.995 145.067Z" fill="#4185DD"/>
<path d="M230.396 290.133C230.396 287.87 229.497 285.7 227.896 284.099C226.296 282.499 224.126 281.6 221.863 281.6C219.6 281.6 217.429 282.499 215.829 284.099C214.229 285.7 213.33 287.87 213.33 290.133C213.356 310.401 227.611 327.864 247.463 331.946V341.333C247.463 343.596 248.362 345.766 249.962 347.366C251.562 348.967 253.732 349.866 255.995 349.866C258.259 349.866 260.429 348.967 262.029 347.366C263.629 345.766 264.528 343.596 264.528 341.333V331.946C287.621 327.257 302.54 304.735 297.851 281.642C296.183 273.429 292.134 265.889 286.208 259.963C280.282 254.037 272.742 249.987 264.528 248.319V197.837C269.503 199.595 273.812 202.848 276.867 207.149C279.922 211.45 281.573 216.591 281.595 221.866C281.595 224.13 282.494 226.3 284.095 227.9C285.695 229.5 287.865 230.399 290.128 230.399C292.391 230.399 294.562 229.5 296.162 227.9C297.762 226.3 298.661 224.13 298.661 221.866C298.635 201.599 284.38 184.136 264.528 180.054V170.667C264.528 168.404 263.629 166.233 262.029 164.633C260.429 163.033 258.259 162.134 255.995 162.134C253.732 162.134 251.562 163.033 249.962 164.633C248.362 166.233 247.463 168.404 247.463 170.667V180.054C224.37 184.743 209.451 207.265 214.14 230.357C215.807 238.571 219.857 246.111 225.783 252.037C231.709 257.963 239.249 262.013 247.463 263.68V314.172C242.487 312.413 238.177 309.159 235.122 304.856C232.066 300.553 230.416 295.41 230.396 290.133ZM281.595 290.133C281.573 295.409 279.922 300.549 276.867 304.851C273.812 309.152 269.503 312.404 264.528 314.163V266.103C269.503 267.862 273.812 271.114 276.867 275.416C279.922 279.717 281.573 284.857 281.595 290.133ZM230.396 221.866C230.418 216.591 232.069 211.45 235.124 207.149C238.179 202.848 242.488 199.595 247.463 197.837V245.896C242.488 244.138 238.179 240.885 235.124 236.584C232.069 232.283 230.418 227.142 230.396 221.866Z" fill="#4185DD"/>
<path d="M255.995 0.00097486C200.995 -0.185768 147.423 17.5078 103.352 50.4157C102.456 51.0884 101.701 51.931 101.131 52.8955C100.56 53.86 100.185 54.9274 100.027 56.0368C99.8692 57.1462 99.9314 58.2759 100.21 59.3613C100.489 60.4467 100.979 61.4665 101.651 62.3626C103.009 64.1715 105.03 65.3672 107.269 65.6871C109.508 66.007 111.782 65.4249 113.592 64.0686C154.71 33.3796 204.688 16.884 255.995 17.0669C387.784 16.8969 494.757 123.595 494.927 255.384C494.996 309.073 476.958 361.217 443.727 403.386V383.998C443.727 381.735 442.828 379.564 441.228 377.964C439.628 376.364 437.458 375.465 435.194 375.465C432.931 375.465 430.761 376.364 429.161 377.964C427.561 379.564 426.662 381.735 426.662 383.998V426.664C426.662 428.928 427.561 431.098 429.161 432.698C430.761 434.298 432.931 435.197 435.194 435.197H477.861C482.574 435.197 486.394 431.377 486.394 426.664C486.394 421.951 482.574 418.132 477.861 418.132H453.967C543.567 308.837 527.601 147.601 418.307 58.0006C372.537 20.4806 315.178 -0.0158568 255.995 0.00097486ZM255.995 511.998C310.996 512.185 364.568 494.491 408.639 461.583C409.536 460.912 410.292 460.07 410.864 459.106C411.436 458.143 411.812 457.076 411.971 455.966C412.131 454.857 412.07 453.727 411.793 452.642C411.516 451.556 411.027 450.535 410.356 449.638C409.684 448.741 408.842 447.985 407.879 447.413C406.915 446.841 405.848 446.465 404.739 446.305C403.63 446.146 402.5 446.207 401.414 446.484C400.328 446.761 399.308 447.25 398.411 447.921L398.399 447.93C357.281 478.619 307.303 495.115 255.995 494.932C124.036 494.911 17.0799 387.922 17.0999 255.962C17.1084 202.38 35.1275 150.355 68.2626 108.245V128C68.2626 130.263 69.1616 132.434 70.7618 134.034C72.3621 135.634 74.5325 136.533 76.7955 136.533C79.0586 136.533 81.229 135.634 82.8292 134.034C84.4295 132.434 85.3285 130.263 85.3285 128V85.3345C85.3285 84.2139 85.1078 83.1043 84.679 82.0691C84.2501 81.0338 83.6216 80.0931 82.8292 79.3008C82.0369 78.5084 81.0962 77.8799 80.061 77.4511C79.0257 77.0222 77.9161 76.8015 76.7955 76.8015H34.1298C31.8667 76.8015 29.6963 77.7005 28.0961 79.3008C26.4958 80.901 25.5968 83.0714 25.5968 85.3345C25.5968 87.5976 26.4958 89.7679 28.0961 91.3682C29.6963 92.9684 31.8667 93.8674 34.1298 93.8674H58.0226C-31.5718 203.172 -15.5939 364.413 93.7104 454.007C139.474 491.519 196.823 512.012 255.995 511.998Z" fill="#4185DD"/>
</g>
<defs>
<clipPath id="clip0_23_115">
<rect width="512" height="512" fill="white"/>
</clipPath>
</defs>
</svg>
