<svg width="50" height="50" viewBox="0 0 50 50" fill="none" xmlns="http://www.w3.org/2000/svg">
<path d="M46.1207 12.4242C45.5041 11.3562 44.5468 10.5493 43.3314 9.98091C43.3431 9.88052 43.3508 9.77905 43.3508 9.67554C43.3508 8.23452 42.1785 7.06216 40.737 7.06216C39.5355 7.06216 38.5237 7.87778 38.2192 8.98335C36.8303 8.97212 35.3217 9.1105 33.7206 9.40151C31.6934 4.17163 28.6415 0.895264 25.1696 0.895264C21.6431 0.895264 18.5488 4.27358 16.5227 9.6481C15.5156 9.45698 14.5426 9.32339 13.6124 9.24976C13.2285 8.28315 12.2859 7.59712 11.1841 7.59712C9.98365 7.59712 8.97232 8.41167 8.66705 9.51655C6.4776 10.0038 4.80094 11.023 3.87847 12.6204C2.06441 15.7626 3.57994 20.2971 7.4606 24.8708C3.94508 29.2412 2.63375 33.5222 4.36959 36.5289C4.69732 37.0965 5.12027 37.5917 5.62642 38.0168C5.54746 38.2692 5.50738 38.5321 5.50758 38.7965C5.50758 40.2375 6.68013 41.4099 8.12144 41.4099C9.18258 41.4099 10.0961 40.7733 10.5051 39.8629C11.9903 40.0361 13.7635 40.0506 16.2656 39.6397C18.2815 45.4257 21.49 49.1046 25.1696 49.1046C28.805 49.1046 31.9795 45.5113 33.9995 39.8448C35.1691 40.0238 36.333 40.1433 37.6237 40.1433C37.6332 40.1433 37.642 40.1428 37.6515 40.1427C38.0135 41.1525 38.9772 41.8779 40.1097 41.8779C41.5512 41.8779 42.7236 40.7055 42.7236 39.264C42.7236 39.2459 42.7212 39.2284 42.7209 39.2104C44.0128 38.6373 45.0034 37.8085 45.6292 36.725C47.1518 34.088 46.3529 30.3582 43.3791 26.2225C43.0595 25.778 42.7153 25.3344 42.3545 24.8922C46.3734 20.2452 47.9637 15.6163 46.1207 12.4242ZM40.737 8.00747C41.6569 8.00747 42.4055 8.75571 42.4055 9.67554C42.4055 10.5954 41.6569 11.3441 40.737 11.3441C39.817 11.3441 39.0684 10.5955 39.0684 9.67554C39.0684 8.75562 39.8171 8.00747 40.737 8.00747ZM34.8808 17.9865C32.1144 15.9787 29.1059 14.22 25.9596 12.7712C28.4463 11.7322 30.8621 10.9722 33.1076 10.5014C33.8878 12.7032 34.495 15.2329 34.8808 17.9865ZM35.045 19.2836C35.4427 22.8311 35.467 26.5528 35.098 30.1958C31.9309 32.5262 28.3569 34.5639 24.772 36.0854C21.5411 34.6761 18.2897 32.8355 15.2898 30.673C14.8593 26.8028 14.8724 22.716 15.3553 18.7835C18.237 16.659 21.4302 14.7888 24.7795 13.283C28.3163 14.831 31.8389 16.8643 35.045 19.2836ZM25.1696 1.84048C28.1872 1.84048 30.9013 4.8397 32.7689 9.59224C30.259 10.1287 27.5552 11.0138 24.7715 12.2425C22.2383 11.1556 19.7768 10.3541 17.4741 9.84448C19.3439 4.94692 22.0993 1.84048 25.1696 1.84048ZM17.1456 10.7502C19.1822 11.1943 21.3553 11.8748 23.5898 12.7809C20.873 14.0648 18.0967 15.6692 15.5337 17.4816C15.9057 15.0255 16.4544 12.7562 17.1456 10.7502ZM11.1842 8.54243C12.1042 8.54243 12.8526 9.29106 12.8526 10.211C12.8526 11.1309 12.1042 11.8795 11.1842 11.8795C10.2643 11.8795 9.51588 11.1309 9.51588 10.211C9.51588 9.29106 10.2643 8.54243 11.1842 8.54243ZM4.69742 13.093C5.44478 11.7988 6.80299 10.947 8.58746 10.4996C8.7317 11.8055 9.84058 12.8249 11.1842 12.8249C12.6216 12.8249 13.7912 11.6584 13.7972 10.2223C14.5681 10.2939 15.3685 10.4051 16.1962 10.5588C15.4194 12.8381 14.8284 15.4386 14.4617 18.263C11.941 20.1483 9.78863 22.1394 8.08013 24.1263C4.55142 19.9291 3.11617 15.832 4.69742 13.093ZM14.2557 29.9069C12.1145 28.2748 10.2454 26.5641 8.71529 24.8568C10.2313 23.0803 12.118 21.2895 14.3091 19.5783C13.9563 23.0225 13.9479 26.5607 14.2557 29.9069ZM8.12154 40.4647C7.20142 40.4647 6.45299 39.7165 6.45299 38.7966C6.45299 37.8767 7.20142 37.1281 8.12154 37.1281C9.04146 37.1281 9.7899 37.8767 9.7899 38.7966C9.7898 39.7165 9.04137 40.4647 8.12154 40.4647ZM10.728 38.9365C10.809 37.4127 9.594 36.1828 8.12144 36.1828C7.30035 36.1828 6.56744 36.564 6.08785 37.1581C5.7315 36.8335 5.42672 36.4691 5.18844 36.0563C3.67984 33.4433 4.91939 29.5941 8.10025 25.6012C9.8192 27.5048 11.9386 29.4016 14.3921 31.1964C14.7161 33.9333 15.2515 36.4666 15.9596 38.7163C14.0369 39.0231 12.2712 39.0976 10.728 38.9365ZM15.4485 31.9478C18.0308 33.7369 20.7462 35.287 23.5614 36.5769C21.2445 37.4844 18.9996 38.1474 16.9137 38.5516C16.2799 36.5627 15.7802 34.3399 15.4485 31.9478ZM25.1696 48.1594C21.9574 48.1594 19.0894 44.7605 17.2203 39.4658C19.589 38.9982 22.1414 38.2126 24.7785 37.1137C27.6114 38.3201 30.4122 39.1922 33.0439 39.6825C31.1735 44.8544 28.3383 48.1594 25.1696 48.1594ZM33.3542 38.7793C31.0079 38.354 28.517 37.6133 25.9846 36.5922C29.1305 35.1812 32.2109 33.4122 34.9516 31.4746C34.6097 34.1375 34.0647 36.6049 33.3542 38.7793ZM40.1097 40.9327C39.1898 40.9327 38.4417 40.184 38.4417 39.2641C38.4417 38.3442 39.1899 37.5956 40.1097 37.5956C41.0295 37.5956 41.7783 38.3442 41.7783 39.2641C41.7783 40.184 41.0296 40.9327 40.1097 40.9327ZM42.6119 26.7742C45.3554 30.5904 46.1364 33.9566 44.8103 36.2524C44.316 37.1085 43.5407 37.781 42.5252 38.2674C42.1326 37.3193 41.1983 36.6502 40.1097 36.6502C38.6943 36.6502 37.5409 37.782 37.5002 39.1881C36.2861 39.18 35.4165 39.0988 34.3077 38.9359C35.0931 36.5008 35.6735 33.7246 36 30.7116C38.2026 29.0667 40.1249 27.341 41.7168 25.6073C42.0299 25.9956 42.3317 26.3845 42.6119 26.7742ZM36.0833 20.09C37.9925 21.618 39.6835 23.2266 41.0963 24.8642C39.6934 26.4029 38.0226 27.9422 36.1226 29.4211C36.3813 26.2804 36.362 23.1179 36.0833 20.09ZM41.7284 24.1498C40.1153 22.2958 38.1594 20.4815 35.9438 18.779C35.572 15.6521 34.9244 12.7915 34.0581 10.3171C35.5097 10.0605 36.8786 9.93101 38.1362 9.93247C38.2657 11.2537 39.3823 12.2893 40.737 12.2893C41.7406 12.2893 42.6125 11.7204 43.0503 10.8886C44.0336 11.3708 44.8042 12.0349 45.3019 12.8967C46.9108 15.6834 45.3929 19.8761 41.7284 24.1498Z" fill="#4185DD"/>
<path d="M29.7656 21.8124C29.7656 20.9419 29.0576 20.2339 28.1871 20.2339H27.7564V18.3359C27.7564 18.0747 27.545 17.8633 27.2837 17.8633C27.0225 17.8633 26.8111 18.0747 26.8111 18.3359V20.2339H25.4721V18.3359C25.4721 18.0747 25.2605 17.8633 24.9995 17.8633C24.7384 17.8633 24.5268 18.0747 24.5268 18.3359V20.2339H23.188V18.3359C23.188 18.0747 22.9764 17.8633 22.7154 17.8633C22.4543 17.8633 22.2427 18.0747 22.2427 18.3359V20.2339H21.8119C20.9414 20.2339 20.2334 20.9419 20.2334 21.8124V22.2431H18.3352C18.0742 22.2431 17.8625 22.4545 17.8625 22.7157C17.8625 22.977 18.0742 23.1884 18.3352 23.1884H20.2334V24.5273H18.3352C18.0742 24.5273 17.8625 24.7388 17.8625 25C17.8625 25.2612 18.0742 25.4727 18.3352 25.4727H20.2334V26.8116H18.3352C18.0742 26.8116 17.8625 27.023 17.8625 27.2843C17.8625 27.5455 18.0742 27.7569 18.3352 27.7569H20.2334V28.1876C20.2334 29.0581 20.9414 29.7661 21.8119 29.7661H22.2427V31.6641C22.2427 31.9253 22.4543 32.1367 22.7154 32.1367C22.9764 32.1367 23.188 31.9253 23.188 31.6641V29.7661H24.5268V31.6641C24.5268 31.9253 24.7384 32.1367 24.9995 32.1367C25.2605 32.1367 25.4721 31.9253 25.4721 31.6641V29.7661H26.8111V31.6641C26.8111 31.9253 27.0225 32.1367 27.2837 32.1367C27.545 32.1367 27.7564 31.9253 27.7564 31.6641V29.7661H28.1871C29.0576 29.7661 29.7656 29.0581 29.7656 28.1876V27.7569H31.6635C31.9248 27.7569 32.1362 27.5455 32.1362 27.2843C32.1362 27.023 31.9248 26.8116 31.6635 26.8116H29.7656V25.4727H31.6635C31.9248 25.4727 32.1362 25.2612 32.1362 25C32.1362 24.7388 31.9248 24.5273 31.6635 24.5273H29.7656V23.1884H31.6635C31.9248 23.1884 32.1362 22.977 32.1362 22.7157C32.1362 22.4545 31.9248 22.2431 31.6635 22.2431H29.7656V21.8124ZM28.8204 28.1876C28.8202 28.3555 28.7535 28.5165 28.6347 28.6353C28.516 28.754 28.355 28.8208 28.1871 28.8209H21.812C21.644 28.8208 21.483 28.754 21.3643 28.6353C21.2456 28.5165 21.1788 28.3555 21.1787 28.1876V21.8125C21.1788 21.6446 21.2456 21.4836 21.3643 21.3648C21.483 21.2461 21.644 21.1793 21.812 21.1792H28.1871C28.355 21.1793 28.516 21.2461 28.6347 21.3648C28.7535 21.4836 28.8202 21.6446 28.8204 21.8125V28.1876Z" fill="#4185DD"/>
<path d="M24.1334 22.7268C23.3765 22.7268 22.7604 23.3425 22.7604 24.0995V26.8005C22.7604 27.0618 22.9721 27.2732 23.2331 27.2732C23.4941 27.2732 23.7057 27.0618 23.7057 26.8005V25.4727H24.5612V26.8006C24.5612 27.0619 24.7728 27.2733 25.0339 27.2733C25.2949 27.2733 25.5067 27.0619 25.5067 26.8006V24.0996C25.5068 23.3425 24.8906 22.7268 24.1334 22.7268ZM24.5613 24.5274H23.7058V24.0996C23.7058 23.8637 23.8976 23.6721 24.1335 23.6721C24.3693 23.6721 24.5613 23.8636 24.5613 24.0996V24.5274ZM26.7659 22.7268C26.7038 22.7268 26.6424 22.739 26.585 22.7627C26.5276 22.7865 26.4755 22.8213 26.4316 22.8652C26.3877 22.9091 26.3529 22.9612 26.3292 23.0186C26.3054 23.0759 26.2932 23.1374 26.2933 23.1995V26.8006C26.2933 27.0619 26.5047 27.2733 26.7659 27.2733C27.0271 27.2733 27.2386 27.0619 27.2386 26.8006V23.1995C27.2386 23.1374 27.2264 23.0759 27.2027 23.0185C27.1789 22.9612 27.1441 22.9091 27.1002 22.8652C27.0563 22.8213 27.0042 22.7864 26.9468 22.7627C26.8895 22.739 26.828 22.7268 26.7659 22.7268Z" fill="#4185DD"/>
</svg>
