<svg width="512" height="512" viewBox="0 0 512 512" fill="none" xmlns="http://www.w3.org/2000/svg">
<path fill-rule="evenodd" clip-rule="evenodd" d="M279.766 261.587L335 193.966C335.548 193.295 336.224 192.739 336.988 192.329C337.752 191.919 338.589 191.663 339.451 191.577C340.314 191.491 341.185 191.575 342.015 191.826C342.845 192.076 343.618 192.488 344.288 193.038C347.126 195.341 347.515 199.495 345.235 202.315L285.328 275.581C282.876 278.6 278.334 278.832 275.594 276.076L251.455 251.957C248.896 249.382 248.896 245.205 251.455 242.635C254.014 240.06 258.185 240.06 260.799 242.635L279.766 261.587ZM341.507 248.605C340.982 246.607 338.917 245.396 336.891 245.929C332.066 247.199 334.084 254.549 338.838 253.237C340.828 252.69 342.068 250.567 341.507 248.605ZM333.442 233.181C319.352 236.973 316.245 255.819 328.659 263.857C318.75 293.836 283.646 307.122 256.85 292.169C247.801 287.12 241.931 280.208 237.437 270.626C235.879 267.333 231.93 265.926 228.649 267.483C227.861 267.849 227.154 268.368 226.568 269.009C225.981 269.65 225.528 270.4 225.233 271.217C224.938 272.035 224.808 272.902 224.85 273.769C224.892 274.637 225.106 275.488 225.479 276.272C231.174 288.295 238.958 297.324 250.398 303.694C284.96 322.938 330.035 305.395 341.842 266.082C341.954 266.048 342.121 266.02 342.231 265.976C344.393 265.409 346.421 264.417 348.197 263.059C349.973 261.702 351.462 260.005 352.577 258.067C360.006 245.107 348.141 229.258 333.442 233.181ZM227.369 243.472C225.44 246.654 220.943 245.737 220.082 242.526C218.742 237.528 226.403 235.428 227.758 240.473C228.037 241.491 227.87 242.559 227.369 243.472ZM238.772 250.073C240.832 246.519 241.544 242.342 240.778 238.306C240.012 234.269 237.82 230.644 234.601 228.091C247.199 198.631 283.621 188.262 309.97 206.777C312.973 208.879 317.09 208.178 319.203 205.203C321.262 202.221 320.594 198.105 317.591 196.003C283.919 172.3 236.982 186.151 221.808 224.499C205.599 226.466 201.109 248.058 215.355 256.355C223.478 261.083 234.038 258.305 238.772 250.073ZM366.26 263.384V184.483C338.393 176.268 327.268 167.357 312.362 147.533H250.398C236.047 166.951 224.477 176.196 196.443 184.483V263.384C196.443 290.401 208.124 313.812 229.372 329.303L281.324 367.644L333.331 329.331C354.579 313.812 366.26 290.401 366.26 263.384ZM374.603 173.136C344.901 164.998 336.446 158.129 320.982 137.031C319.703 135.34 317.756 134.339 315.642 134.339H247.059C244.89 134.339 242.942 135.357 241.663 137.081C226.812 157.712 217.968 164.943 188.099 173.136C185.206 173.92 183.259 176.524 183.259 179.494V263.384C183.259 294.723 196.831 321.922 221.528 339.95L277.429 381.149C278.564 381.99 279.939 382.444 281.351 382.444C282.763 382.444 284.138 381.99 285.272 381.149L341.117 339.966C365.869 321.922 379.441 294.723 379.441 263.384V179.494C379.439 178.052 378.965 176.649 378.091 175.502C377.218 174.354 375.993 173.523 374.603 173.136ZM437.457 421.108V110.945C437.457 101.539 429.836 93.8959 420.436 93.8959L343.622 93.901V97.5004C343.622 105.666 337.003 112.307 328.826 112.307H233.878C225.701 112.307 219.082 105.666 219.082 97.5004V93.9123L145.771 93.9287C134.424 93.9287 125.245 103.128 125.245 114.442V398.558H362.032C365.592 398.558 368.54 401.434 368.595 405.033C369.096 432.278 382.501 452.708 404.527 459.999C412.537 458.675 419.991 454.871 425.887 448.981C433.342 441.511 437.457 431.61 437.457 421.108ZM119.015 460.161C94.0964 456.957 75.5743 436.322 74.6281 411.758H355.746C357.526 431.76 365.702 448.708 378.718 460.161H119.015ZM232.264 80.7969C232.264 79.9234 232.987 79.178 233.877 79.178H257.183C261.23 79.178 264.247 75.5622 263.747 71.6915C262.34 60.8289 270.632 51.4562 281.324 51.4562C292.1 51.4562 300.362 60.8381 298.956 71.6915C298.449 75.6042 301.419 79.178 305.52 79.178H328.826C329.66 79.178 330.439 79.9234 330.439 80.7969V97.5004C330.439 98.3739 329.66 99.1132 328.826 99.1132H233.878C233.451 99.1103 233.042 98.9394 232.74 98.6376C232.439 98.3357 232.268 97.9272 232.265 97.5004L232.264 80.7969ZM420.381 80.6966L343.622 80.7078C343.566 72.5752 336.947 65.9786 328.826 65.9786H312.139C310.465 50.2336 297.221 38.2559 281.324 38.2559C265.426 38.2559 252.165 50.3831 250.508 65.9786H233.877C225.755 65.9786 219.137 72.5865 219.081 80.7129L145.77 80.7293C127.136 80.7293 112.063 95.8589 112.063 114.442V398.558H68.1206C64.6718 398.558 61.8353 401.207 61.5568 404.644C58.8872 439.014 83.6393 469.166 117.847 473.31C118.126 473.349 118.348 473.361 118.626 473.361H395.796C396.38 473.465 396.669 473.745 398.021 473.745C426.815 473.745 450.64 450.324 450.64 421.109V110.945C450.64 94.2625 437.068 80.6966 420.381 80.6966Z" fill="#4185DD"/>
</svg>
