<svg width="50" height="50" viewBox="0 0 50 50" fill="none" xmlns="http://www.w3.org/2000/svg">
<path fill-rule="evenodd" clip-rule="evenodd" d="M18.2237 19.2826C18.5763 19.1848 18.7897 18.8196 18.6963 18.4646C18.6023 18.1075 18.224 17.8952 17.8761 17.992C17.5176 18.0876 17.3058 18.4543 17.4035 18.81C17.4958 19.1658 17.8652 19.3776 18.2237 19.2826ZM18.0498 20.5944C17.1861 20.5944 16.3931 20.017 16.1595 19.143C15.8599 18.0299 16.5899 16.901 17.7076 16.7111C19.1585 11.7161 25.1134 9.62799 29.3862 12.6393C29.6795 12.8457 29.7447 13.2477 29.5383 13.5383C29.3373 13.8284 28.9353 13.8973 28.642 13.692C25.1525 11.2383 20.2889 12.8579 18.9895 16.9229C20.5298 17.7729 20.2616 20.0672 18.5549 20.527C18.3903 20.5718 18.2204 20.5945 18.0498 20.5944ZM40.9943 33.8363L40.9237 33.7488C40.6358 33.4017 40.1632 33.3132 39.7721 33.5337C36.5277 35.3485 32.7878 37.4997 30.3206 38.3219C29.6796 38.5348 29.0061 38.6766 28.3053 38.7445C27.7944 39.6887 26.6852 40.1303 25.6165 39.9037C24.5542 39.6784 23.0206 39.2833 22.0858 39.1948C21.7219 39.1606 21.3525 39.1709 20.9614 39.2274C20.6083 39.2774 20.2824 39.0335 20.2335 38.6809C20.1792 38.3289 20.429 38.0025 20.7767 37.9519C21.271 37.8802 21.7436 37.8677 22.2107 37.9122C23.2929 38.0152 24.7307 38.4022 25.8773 38.6423C26.9434 38.8655 27.5923 37.92 27.1701 37.1414C27.0343 36.8905 26.8116 36.7074 26.5454 36.627L20.9668 34.9453C19.5871 34.5287 18.5279 35.0594 17.3002 35.6748C16.6212 36.0149 15.9205 36.3674 15.1111 36.5874C14.0709 36.8703 13.037 37.1033 11.9986 37.3473V43.7868C14.8415 43.7588 17.7224 43.7108 20.5159 44.1149C22.3 44.3729 24.1837 45.0415 25.8935 44.902C27.9685 44.7331 30.201 43.4457 32.3086 42.0807C35.2252 40.1921 38.6543 37.2178 40.9182 35.0784C41.2659 34.7505 41.2985 34.2051 40.9943 33.8363ZM10.7113 36.6376C10.7113 36.4714 10.5701 36.3307 10.4017 36.3307H9.10351C8.93511 36.3307 8.79391 36.4714 8.79391 36.6376V44.6687C8.79391 44.8344 8.93511 44.9756 9.10351 44.9756H10.4017C10.5701 44.9756 10.7113 44.8344 10.7113 44.6687V36.6376ZM41.9883 33.0166C42.7216 33.9058 42.6401 35.2225 41.8036 36.0145C39.5059 38.1885 35.989 41.2303 33.0093 43.1618C30.5981 44.7249 28.0078 46.2107 25.3992 46.2107C23.6435 46.2107 22.02 45.6348 20.3312 45.39C17.6805 45.0057 14.7084 45.0405 11.9443 45.0766C11.7651 45.7588 11.1404 46.264 10.4016 46.264H9.10351C8.22351 46.264 7.50651 45.5486 7.50651 44.6686V36.6375C7.50651 35.7575 8.22351 35.0416 9.10351 35.0416H10.4017C11.0753 35.0416 11.6511 35.4599 11.8846 36.0503C12.8575 35.8222 13.8374 35.5989 14.7744 35.3442C15.4588 35.1579 16.0998 34.8347 16.719 34.5229C18.0716 33.8466 19.4676 33.1465 21.3416 33.7119L26.9148 35.3931C27.8339 35.6704 28.4758 36.4674 28.577 37.4154C29.0308 37.3493 29.478 37.2436 29.9133 37.0993C32.1998 36.3363 35.9949 34.186 39.1367 32.411C40.0656 31.8868 41.2389 32.1052 41.9178 32.9303L41.9883 33.0166ZM9.30991 25.2827C8.96771 25.3745 8.76131 25.7276 8.85361 26.0714C8.94881 26.4164 9.30321 26.6159 9.64671 26.5277L12.417 25.7803L12.5854 25.6874C12.5854 25.6858 12.5908 25.6831 12.5908 25.6814C12.7782 25.5268 12.8554 25.3255 12.8298 25.0871C12.8124 24.9253 12.705 24.7897 12.7049 24.7894C12.7049 24.785 12.6995 24.7818 12.6995 24.7774L10.6625 22.735C10.4072 22.4835 9.99981 22.4835 9.74991 22.735C9.68929 22.7944 9.64112 22.8653 9.60824 22.9436C9.57536 23.0218 9.55843 23.1059 9.55843 23.1907C9.55843 23.2756 9.57536 23.3597 9.60824 23.4379C9.64112 23.5162 9.68929 23.5871 9.74991 23.6465L9.95631 23.8556C6.85471 22.7801 5.68681 21.5622 5.68681 20.6817C5.68681 19.6034 7.43591 18.0201 12.3463 16.812C12.6939 16.7273 12.9003 16.3775 12.8189 16.032C12.7774 15.8659 12.6718 15.723 12.5252 15.6347C12.3786 15.5463 12.2029 15.5196 12.0367 15.5605C7.10991 16.7729 4.39941 18.5915 4.39941 20.6817C4.39941 22.4275 6.29511 23.9838 9.78791 25.1554L9.30991 25.2827ZM14.8396 20.5221V10.4399L24.9973 5.10789L35.155 10.4399V20.5221C35.155 23.6553 33.7427 26.3728 31.1788 28.1735L24.9973 32.5158L18.8158 28.1735C16.2519 26.3729 14.8396 23.6553 14.8396 20.5221ZM13.5522 20.5221V10.051C13.5522 9.81089 13.688 9.59139 13.8999 9.48009L24.6986 3.80969C24.8887 3.71139 25.1114 3.71139 25.2961 3.80969L36.1002 9.48009C36.312 9.59139 36.4424 9.81089 36.4424 10.051V20.5221C36.4424 24.0876 34.84 27.1789 31.923 29.2279L25.3667 33.8304C25.1465 33.9869 24.8516 33.9857 24.628 33.8304L18.0771 29.2279C15.1601 27.1789 13.5522 24.0876 13.5522 20.5221ZM40.2121 16.2086L40.6847 16.081C40.7667 16.0596 40.8436 16.0221 40.911 15.9707C40.9784 15.9194 41.035 15.8552 41.0774 15.7818C41.1198 15.7085 41.1473 15.6275 41.1582 15.5434C41.1691 15.4594 41.1633 15.374 41.141 15.2923C41.0487 14.949 40.6956 14.7442 40.3534 14.8366L37.5505 15.5971L37.4147 15.6742L37.3549 15.7247L37.2463 15.8708L37.1866 16.0055C37.1866 16.0109 37.1866 16.0153 37.1812 16.0196C37.1812 16.0197 37.1399 16.2461 37.1703 16.2765C37.1703 16.3556 37.2409 16.5164 37.2898 16.5742C37.2952 16.5785 37.3007 16.5829 37.3007 16.5862C37.317 16.6025 37.3279 16.6182 37.3441 16.6334C37.3441 16.6361 37.3495 16.6394 37.3495 16.6421L39.3376 18.6286C39.5898 18.8823 40.0022 18.8793 40.2502 18.6286C40.5001 18.3766 40.5001 17.9686 40.2502 17.7182L40.0383 17.5091C43.1399 18.5841 44.3078 19.8014 44.3078 20.6819C44.3078 21.7601 42.5587 23.3435 37.6537 24.5516C36.9132 24.7342 37.0565 25.8227 37.8058 25.8227C37.8547 25.8227 37.909 25.8162 37.9579 25.8037C42.8846 24.5913 45.6006 22.7727 45.6006 20.682C45.6006 18.936 43.7048 17.3803 40.2121 16.2086ZM31.9501 18.3787C31.2571 18.3787 31.0363 19.2922 31.6133 19.6253C32.1282 19.9226 32.7466 19.4457 32.5965 18.8735C32.5577 18.7317 32.4734 18.6066 32.3567 18.5172C32.2399 18.4278 32.0971 18.3792 31.9501 18.3787ZM32.9279 17.352C34.5033 18.265 34.088 20.6495 32.2924 20.9724C30.9069 25.7074 25.4804 27.8106 21.3579 25.5086C19.9851 24.742 19.0668 23.678 18.3866 22.2342C18.2345 21.9132 18.3703 21.5291 18.6908 21.3759C19.0113 21.2238 19.397 21.3612 19.5491 21.6828C20.1206 22.8865 20.8459 23.7466 21.9826 24.383C25.3404 26.263 29.7856 24.5919 31.0105 20.761C30.9973 20.7554 30.9846 20.7487 30.9725 20.7409C29.4022 19.7773 29.8356 17.5868 31.4451 17.1558C31.9501 17.0212 32.477 17.0908 32.9279 17.352ZM24.8723 20.7497L22.4334 18.3124C22.1835 18.0604 21.7761 18.0604 21.5208 18.3124C21.2709 18.5639 21.2709 18.9713 21.5208 19.2233L24.4649 22.1647C24.7309 22.4324 25.1731 22.4157 25.4155 22.1175L32.7269 13.1771C32.9496 12.9022 32.9116 12.4959 32.6346 12.2711C32.3576 12.0456 31.9502 12.0864 31.7275 12.3618L24.8723 20.7497Z" fill="#4185DD"/>
</svg>
