<svg width="512" height="512" viewBox="0 0 512 512" fill="none" xmlns="http://www.w3.org/2000/svg">
<path fill-rule="evenodd" clip-rule="evenodd" d="M431.093 386.56L446.213 397.536L450.096 360.501L416.085 375.653L431.093 386.56ZM381.2 229.376C389.6 219.941 405.344 225.349 406.085 238.043C406.197 239.91 405.938 241.78 405.323 243.547C404.709 245.313 403.752 246.941 402.507 248.336C392.368 259.179 382.672 271.424 372.757 282.613L372.763 282.619C367.413 288.629 358.016 289.04 352.219 283.403L351.888 283.072L332.715 265.904C323.259 257.44 328.848 241.797 341.413 241.099C343.278 240.994 345.145 241.26 346.907 241.879C348.669 242.499 350.291 243.461 351.68 244.709L360.885 252.955L381.211 229.381L381.2 229.376ZM391.573 234.384C390.989 234.419 390.417 234.57 389.89 234.827C389.364 235.084 388.894 235.443 388.507 235.883L388.501 235.877L365.024 263.104L365.019 263.099C364.595 263.588 364.079 263.989 363.499 264.276C362.919 264.564 362.288 264.733 361.642 264.775C360.996 264.816 360.349 264.728 359.737 264.516C359.126 264.305 358.562 263.973 358.08 263.541L345.168 251.979C342.267 249.381 337.52 251.531 337.744 255.557C337.775 256.142 337.92 256.715 338.173 257.243C338.426 257.771 338.78 258.244 339.216 258.635L358.395 275.808C359.456 276.704 360.261 277.739 362.384 277.616C362.969 277.581 363.541 277.431 364.067 277.173C364.594 276.916 365.064 276.557 365.451 276.117L365.456 276.123L394.912 242.171C395.813 241.051 396.421 240.219 396.325 238.581C396.247 237.396 395.704 236.29 394.814 235.504C393.924 234.718 392.759 234.315 391.573 234.384ZM373.648 180.293L416.661 199.493C419.278 200.633 421.503 202.514 423.061 204.905C424.619 207.296 425.443 210.09 425.429 212.944V264.763C425.429 268.181 424.651 271.307 423.051 274.357C412.117 295.184 395.915 319.083 374.235 331.227C373.498 331.641 372.73 331.994 371.936 332.283V358.965C371.922 364.864 369.573 370.517 365.402 374.687C361.231 378.858 355.578 381.207 349.68 381.221H162.32C156.422 381.207 150.769 378.858 146.598 374.687C142.428 370.517 140.078 364.864 140.064 358.965V313.472C140.064 306.523 143.291 300.235 148.421 296.112C145.816 294.031 143.711 291.389 142.265 288.384C140.818 285.379 140.066 282.087 140.064 278.752V233.253C140.066 229.918 140.819 226.626 142.265 223.621C143.712 220.616 145.816 217.975 148.421 215.893C145.816 213.812 143.712 211.17 142.265 208.165C140.819 205.16 140.066 201.869 140.064 198.533V153.035C140.078 147.136 142.428 141.484 146.598 137.313C150.769 133.142 156.422 130.793 162.32 130.779H349.675C355.573 130.793 361.226 133.142 365.397 137.313C369.567 141.484 371.917 147.136 371.931 153.035V179.632C372.507 179.819 373.077 180.037 373.648 180.293ZM362.139 332.277C361.345 331.989 360.576 331.636 359.84 331.221C347.077 324.075 336.32 312.912 327.52 301.003H162.32C159.02 301.015 155.858 302.332 153.524 304.666C151.191 307 149.874 310.161 149.861 313.461V358.955C149.874 362.255 151.191 365.417 153.524 367.75C155.858 370.084 159.02 371.401 162.32 371.413H349.675C352.975 371.401 356.137 370.084 358.47 367.75C360.804 365.417 362.121 362.255 362.133 358.955L362.139 332.277ZM320.784 291.211C317.904 286.715 312.731 277.947 310.88 274.059C309.365 270.869 308.645 268.331 308.645 264.763V220.795H162.32C159.02 220.807 155.858 222.124 153.524 224.458C151.191 226.792 149.874 229.953 149.861 233.253V278.752C149.874 282.052 151.191 285.214 153.524 287.548C155.858 289.881 159.02 291.198 162.32 291.211H320.784ZM308.773 210.997C309.095 208.493 310.063 206.116 311.582 204.099C313.1 202.082 315.117 200.495 317.435 199.493L360.688 180.288C361.168 180.075 361.653 179.883 362.144 179.717V153.045C362.131 149.745 360.815 146.584 358.481 144.25C356.147 141.916 352.986 140.599 349.685 140.587H162.32C159.02 140.599 155.858 141.916 153.524 144.25C151.191 146.584 149.874 149.745 149.861 153.045V198.544C149.874 201.844 151.191 205.006 153.524 207.34C155.858 209.673 159.02 210.99 162.32 211.003L308.773 210.997ZM412.683 208.405L369.669 189.205C368.881 188.835 368.021 188.642 367.15 188.641C366.279 188.64 365.418 188.831 364.629 189.2L321.376 208.405C317.968 209.92 318.443 212.923 318.443 215.893V264.763C318.443 266.656 318.795 268.181 319.669 269.803C323.493 277.088 328.181 285.152 333.701 292.923L338.315 299.077C345.76 308.48 354.539 317.045 364.619 322.693C365.351 323.126 366.185 323.353 367.035 323.353C367.885 323.353 368.719 323.126 369.451 322.693C389.333 311.552 404.32 288.997 414.4 269.797C415.28 268.128 415.627 266.672 415.627 264.757V212.939C415.654 211.974 415.387 211.023 414.861 210.213C414.335 209.404 413.576 208.773 412.683 208.405ZM181.835 193.013H212.165C218.613 193.013 218.613 183.216 212.165 183.216H181.835C175.387 183.216 175.387 193.013 181.835 193.013ZM181.835 168.357H212.165C218.613 168.357 218.613 158.56 212.165 158.56H181.835C175.387 158.56 175.387 168.357 181.835 168.357ZM181.835 353.44H212.165C218.613 353.44 218.613 343.643 212.165 343.643H181.835C175.387 343.643 175.387 353.44 181.835 353.44ZM181.835 328.779H212.165C218.613 328.779 218.613 318.987 212.165 318.987H181.835C175.387 318.987 175.387 328.779 181.835 328.779ZM181.835 273.227H212.165C218.613 273.227 218.613 263.429 212.165 263.429H181.835C175.387 263.429 175.387 273.227 181.835 273.227ZM181.835 248.571H212.165C218.613 248.571 218.613 238.773 212.165 238.773H181.835C175.387 238.773 175.387 248.571 181.835 248.571ZM151.493 450.096L136.341 416.085L114.464 446.213L151.493 450.096ZM152.832 429.115L141.813 404.379C140.261 400.901 135.552 400.528 133.403 403.504L133.397 403.499L120.507 421.248C77.5574 385.84 49.7814 334.949 43.9628 278.992C61.6641 275.413 68.8108 253.659 56.4001 240.288C52.4641 236.048 46.1814 232.843 40.0054 232.843V232.859C33.8872 232.667 27.9411 234.901 23.4614 239.072C19.2214 243.008 16.0161 249.291 16.0161 255.467H16.0321C15.87 260.858 17.5839 266.138 20.8812 270.406C24.1785 274.674 28.8549 277.665 34.1121 278.869C39.9628 338.021 69.2801 391.904 114.747 429.179L101.573 447.323C101.057 448.034 100.743 448.871 100.662 449.747C100.582 450.622 100.739 451.502 101.116 452.296C101.494 453.089 102.079 453.767 102.808 454.256C103.538 454.745 104.387 455.029 105.264 455.077L158.901 460.704C159.769 460.792 160.644 460.647 161.436 460.283C162.228 459.919 162.908 459.35 163.406 458.634C163.904 457.919 164.202 457.083 164.268 456.214C164.333 455.344 164.166 454.473 163.781 453.691L152.832 429.115ZM25.8134 255.467L25.8081 255.307C25.9574 248.501 32.2828 242.288 40.0001 242.629V242.64C43.3228 242.581 47.0721 244.619 49.2374 246.944C50.4463 248.247 51.3866 249.775 52.0046 251.442C52.6227 253.108 52.9064 254.88 52.8395 256.656C52.7726 258.432 52.3565 260.177 51.6149 261.793C50.8733 263.408 49.8208 264.861 48.5174 266.069C39.7494 274.208 25.2534 267.733 25.7921 255.461H25.8134V255.467ZM61.8988 151.493L95.9094 136.341L65.7814 114.464L61.8988 151.493ZM82.8908 152.832L107.627 141.808C111.104 140.256 111.477 135.552 108.501 133.397L108.507 133.392L90.7574 120.501C126.165 77.5521 177.056 49.7761 233.013 43.9574C236.592 61.6588 258.347 68.8054 271.717 56.3948C275.957 52.4588 279.163 46.1761 279.163 40.0001H279.147C279.338 33.8819 277.105 27.9357 272.933 23.4561C268.997 19.2161 262.715 16.0161 256.539 16.0161V16.0268C251.148 15.867 245.868 17.5824 241.6 20.8804C237.333 24.1785 234.341 28.8549 233.136 34.1121C173.984 39.9681 120.096 69.2854 82.8268 114.747L64.6828 101.568C63.9714 101.052 63.1341 100.737 62.259 100.657C61.3838 100.577 60.5032 100.733 59.7097 101.111C58.9162 101.489 58.2391 102.073 57.7496 102.803C57.2601 103.533 56.9763 104.381 56.9281 105.259L51.3014 158.901C51.2132 159.769 51.3586 160.644 51.7225 161.436C52.0865 162.228 52.6558 162.908 53.3714 163.406C54.0869 163.904 54.9227 164.202 55.792 164.268C56.6612 164.333 57.5323 164.166 58.3148 163.781L82.8908 152.832ZM256.533 25.8134L256.693 25.8081C263.499 25.9574 269.712 32.2828 269.371 40.0054H269.36C269.419 43.3281 267.387 47.0828 265.056 49.2428C263.753 50.4516 262.225 51.3919 260.559 52.0099C258.892 52.628 257.12 52.9117 255.344 52.8448C253.568 52.778 251.823 52.3619 250.208 51.6203C248.592 50.8787 247.139 49.8261 245.931 48.5228C237.792 39.7548 244.267 25.2641 256.539 25.8028L256.533 25.8134ZM360.507 61.8988L375.659 95.9094L397.536 65.7814L360.507 61.8988ZM359.168 82.8854L370.187 107.621C371.739 111.099 376.448 111.472 378.597 108.496L378.603 108.501L391.493 90.7521C434.443 126.155 462.219 177.051 468.037 233.008C450.336 236.587 443.189 258.341 455.605 271.712C459.541 275.952 465.824 279.157 472 279.157V279.141C478.118 279.333 484.065 277.1 488.544 272.928C492.784 268.992 495.989 262.715 495.989 256.533H495.973C496.136 251.143 494.423 245.863 491.125 241.596C487.828 237.328 483.151 234.338 477.893 233.136C472.043 173.984 442.725 120.096 397.259 82.8268L410.437 64.6828C410.953 63.9714 411.268 63.1341 411.349 62.259C411.429 61.3838 411.272 60.5032 410.895 59.7097C410.517 58.9162 409.932 58.2391 409.202 57.7496C408.473 57.2601 407.624 56.9763 406.747 56.9281L353.099 51.3014C352.232 51.2132 351.356 51.3586 350.564 51.7225C349.772 52.0865 349.092 52.6558 348.594 53.3714C348.096 54.0869 347.799 54.9227 347.733 55.792C347.667 56.6612 347.835 57.5323 348.219 58.3148L359.168 82.8854ZM486.187 256.533L486.192 256.693C486.043 263.499 479.717 269.712 471.995 269.371V269.36C468.672 269.419 464.923 267.381 462.757 265.056C461.549 263.753 460.608 262.225 459.99 260.559C459.372 258.892 459.089 257.12 459.155 255.344C459.222 253.568 459.638 251.823 460.38 250.208C461.122 248.592 462.174 247.139 463.477 245.931C472.245 237.792 486.741 244.267 486.203 256.539H486.187V256.533ZM429.173 397.253C391.899 442.715 338.016 472.037 278.864 477.888C277.66 483.146 274.669 487.823 270.401 491.121C266.133 494.419 260.853 496.134 255.461 495.973V495.989C249.285 495.989 243.003 492.789 239.067 488.544C234.895 484.065 232.662 478.118 232.853 472H232.837C232.837 465.824 236.037 459.547 240.283 455.605C253.653 443.195 275.408 450.341 278.987 468.037C334.944 462.219 385.835 434.448 421.243 391.493L403.493 378.603L403.499 378.597C400.523 376.443 400.896 371.739 404.373 370.187L453.68 348.219C454.463 347.835 455.334 347.667 456.203 347.733C457.072 347.799 457.908 348.096 458.624 348.594C459.339 349.092 459.908 349.772 460.272 350.564C460.636 351.356 460.782 352.232 460.693 353.099L455.067 406.736C455.019 407.614 454.735 408.462 454.245 409.192C453.756 409.922 453.079 410.506 452.285 410.884C451.492 411.261 450.611 411.418 449.736 411.338C448.861 411.257 448.024 410.943 447.312 410.427L429.173 397.253ZM269.664 473.477C269.66 473.278 269.668 473.079 269.685 472.88C270.064 466.107 264.219 459.429 256.661 459.147C249.099 458.864 242.784 465.061 242.64 471.835L242.645 471.995H242.635C242.299 479.712 248.507 486.043 255.312 486.192L255.472 486.187V486.197C259.036 486.374 262.526 485.137 265.183 482.755C267.84 480.373 269.451 477.04 269.664 473.477Z" fill="#4185DD"/>
</svg>
