<svg width="512" height="512" viewBox="0 0 512 512" fill="none" xmlns="http://www.w3.org/2000/svg">
<g clip-path="url(#clip0_23_90)">
<path d="M507.56 372.52L455.08 346.28L421.68 259.4C421.287 258.373 420.686 257.438 419.915 256.653C419.144 255.868 418.22 255.251 417.2 254.84L209.96 172C208.511 171.423 206.925 171.282 205.397 171.595C203.869 171.908 202.466 172.66 201.36 173.76L173.72 201.4C172.635 202.507 171.895 203.905 171.589 205.425C171.284 206.944 171.427 208.52 172 209.96L254.84 417.2C255.251 418.22 255.868 419.144 256.653 419.915C257.438 420.686 258.373 421.287 259.4 421.68L346.28 455.08L372.52 507.56C373.072 508.717 373.895 509.724 374.918 510.497C375.942 511.27 377.136 511.785 378.4 512C378.826 512.04 379.254 512.04 379.68 512C381.798 511.991 383.827 511.142 385.32 509.64L509.64 385.32C510.555 384.437 511.246 383.349 511.657 382.145C512.067 380.942 512.185 379.658 512 378.4C511.785 377.136 511.27 375.942 510.497 374.918C509.725 373.895 508.717 373.072 507.56 372.52ZM188.76 208.92L193.2 204.52L296.36 307.68C289.561 317.314 286.625 329.148 288.132 340.842C289.639 352.536 295.479 363.24 304.497 370.835C313.516 378.431 325.056 382.366 336.836 381.863C348.616 381.359 359.779 376.454 368.116 368.116C376.454 359.779 381.359 348.616 381.863 336.836C382.366 325.056 378.431 313.516 370.835 304.497C363.24 295.479 352.536 289.639 340.842 288.132C329.148 286.625 317.314 289.561 307.68 296.36L204.52 193.2L208.92 188.76L408 268.4L439.4 350.08L350.08 439.4L268.4 408L188.76 208.92ZM334.8 303.72C341.99 303.731 348.954 306.234 354.505 310.803C360.056 315.372 363.852 321.725 365.245 328.779C366.638 335.832 365.542 343.151 362.144 349.487C358.747 355.824 353.257 360.786 346.611 363.529C339.965 366.272 332.573 366.626 325.696 364.531C318.818 362.435 312.879 358.02 308.892 352.037C304.904 346.054 303.114 338.874 303.827 331.719C304.539 324.565 307.711 317.879 312.8 312.8C318.641 306.978 326.553 303.712 334.8 303.72ZM381.88 490.48L361.88 450.48L450.4 361.96L490.4 381.96L381.88 490.48Z" fill="#4185DD"/>
<path d="M153 428C151.47 426.554 149.445 425.749 147.34 425.749C145.235 425.749 143.21 426.554 141.68 428L131.52 438.16C104.407 401.362 89.4499 357.022 88.7329 311.32C88.0159 265.618 101.575 220.831 127.52 183.2C135.293 187.477 144.243 189.12 153.029 187.883C161.814 186.646 169.962 182.594 176.252 176.337C182.541 170.079 186.633 161.951 187.915 153.172C189.196 144.393 187.598 135.435 183.36 127.64C220.99 101.695 265.778 88.136 311.48 88.8531C357.182 89.5701 401.522 104.527 438.32 131.64L428 141.68C426.512 143.18 425.678 145.208 425.68 147.32C425.674 148.373 425.876 149.417 426.274 150.391C426.672 151.366 427.258 152.253 428 153L463.28 188C464.779 189.49 466.806 190.326 468.92 190.326C471.033 190.326 473.061 189.49 474.56 188L509.64 152.92C510.384 152.177 510.974 151.295 511.376 150.324C511.779 149.352 511.986 148.311 511.986 147.26C511.986 146.209 511.779 145.168 511.376 144.197C510.974 143.225 510.384 142.343 509.64 141.6L474.56 106.52C473.061 105.03 471.033 104.194 468.92 104.194C466.806 104.194 464.779 105.03 463.28 106.52L449.72 120C416.3 94.852 376.789 79.052 335.244 74.2226C293.699 69.3933 251.617 75.7086 213.32 92.5201L259.44 46.5201C264.669 49.0188 270.615 49.5844 276.221 48.1166C281.828 46.6487 286.734 43.2423 290.068 38.5017C293.402 33.7611 294.949 27.9927 294.435 22.2199C293.92 16.4471 291.378 11.0431 287.258 6.96658C283.138 2.89009 277.708 0.404642 271.93 -0.0488216C266.152 -0.502285 260.4 1.10555 255.695 4.48944C250.99 7.87333 247.635 12.8145 246.227 18.4364C244.818 24.0583 245.446 29.9974 248 35.2001L170.16 113.16C162.257 107.859 152.758 105.465 143.286 106.39C133.814 107.314 124.957 111.498 118.227 118.228C111.498 124.957 107.314 133.814 106.39 143.286C105.465 152.758 107.858 162.257 113.16 170.16L35.1999 248C29.9769 245.455 24.0206 244.844 18.3896 246.276C12.7586 247.708 7.81747 251.089 4.44434 255.82C1.07121 260.551 -0.515495 266.324 -0.0338346 272.114C0.447826 277.905 2.96666 283.337 7.07509 287.445C11.1835 291.553 16.6154 294.072 22.4056 294.554C28.1958 295.036 33.9693 293.449 38.7 290.076C43.4308 286.703 46.8125 281.762 48.2443 276.13C49.676 270.499 49.0651 264.543 46.5199 259.32L92.6399 213.32C75.8117 251.607 69.4764 293.683 74.2846 335.228C79.0928 376.772 94.8713 416.289 120 449.72L106.48 463.28C104.99 464.779 104.154 466.807 104.154 468.92C104.154 471.034 104.99 473.061 106.48 474.56L141.56 509.64C143.053 511.142 145.082 511.991 147.2 512C148.256 512.001 149.301 511.793 150.276 511.388C151.251 510.983 152.136 510.389 152.88 509.64L188 474.56C189.49 473.061 190.326 471.034 190.326 468.92C190.326 466.807 189.49 464.779 188 463.28L153 428ZM469 123.4L492.76 147.16L469 170.92L445.24 147.16L469 123.4ZM264 18.5201C265.189 17.3216 266.707 16.5033 268.361 16.1689C270.016 15.8346 271.733 15.9992 273.293 16.642C274.854 17.2849 276.189 18.3768 277.128 19.7795C278.067 21.1821 278.569 22.8321 278.569 24.5201C278.569 26.2082 278.067 27.8582 277.128 29.2608C276.189 30.6634 274.854 31.7554 273.293 32.3982C271.733 33.041 270.016 33.2057 268.361 32.8713C266.707 32.5369 265.189 31.7186 264 30.5201C263.211 29.7325 262.586 28.7972 262.159 27.7677C261.732 26.7382 261.512 25.6346 261.512 24.5201C261.512 23.4056 261.732 22.302 262.159 21.2725C262.586 20.243 263.211 19.3077 264 18.5201ZM129.6 129.6C131.923 127.266 134.684 125.414 137.725 124.15C140.766 122.886 144.027 122.235 147.32 122.235C150.613 122.235 153.874 122.886 156.915 124.15C159.956 125.414 162.717 127.266 165.04 129.6C168.551 133.106 170.944 137.575 171.915 142.441C172.886 147.307 172.392 152.352 170.495 156.937C168.598 161.522 165.383 165.441 161.258 168.199C157.133 170.957 152.282 172.429 147.32 172.429C142.358 172.429 137.507 170.957 133.382 168.199C129.257 165.441 126.042 161.522 124.145 156.937C122.248 152.352 121.754 147.307 122.725 142.441C123.696 137.575 126.088 133.106 129.6 129.6ZM30.5599 276C28.9267 277.362 26.8432 278.064 24.7187 277.968C22.5942 277.872 20.5825 276.985 19.0787 275.481C17.575 273.978 16.6879 271.966 16.592 269.841C16.496 267.717 17.1979 265.633 18.5599 264C20.1608 262.427 22.3155 261.545 24.5599 261.545C26.8044 261.545 28.9591 262.427 30.5599 264C31.3485 264.788 31.9741 265.723 32.4009 266.753C32.8277 267.782 33.0474 268.886 33.0474 270C33.0474 271.115 32.8277 272.218 32.4009 273.248C31.9741 274.277 31.3485 275.213 30.5599 276ZM147.32 492.52L123.56 468.76L147.32 445L171.08 468.76L147.32 492.52Z" fill="#4185DD"/>
</g>
<defs>
<clipPath id="clip0_23_90">
<rect width="512" height="512" fill="white"/>
</clipPath>
</defs>
</svg>
