<svg width="50" height="50" viewBox="0 0 50 50" fill="none" xmlns="http://www.w3.org/2000/svg">
<path fill-rule="evenodd" clip-rule="evenodd" d="M25.0264 35.6371C24.9793 35.6371 24.9324 35.6314 24.8864 35.6198C23.698 35.3221 22.5693 34.823 21.5493 34.1443C20.5529 33.4818 19.6748 32.6613 18.9396 31.7056C18.2051 30.7512 17.6311 29.6835 17.2401 28.5445C16.837 27.3718 16.6318 26.1402 16.6329 24.9002V18.4143C16.6329 18.119 16.8565 17.8717 17.1503 17.8421C20.1601 17.5382 22.8841 16.3849 24.6236 14.6779C24.7312 14.5724 24.8758 14.5133 25.0264 14.5133C25.1771 14.5133 25.3217 14.5724 25.4292 14.6779C27.1689 16.3849 29.8927 17.5383 32.9026 17.8421C33.0444 17.8564 33.1759 17.9229 33.2715 18.0286C33.3671 18.1343 33.42 18.2718 33.42 18.4143V24.9002C33.42 24.9623 33.4195 25.0247 33.4183 25.0856C33.3371 30.0888 29.9439 34.4211 25.1664 35.6199C25.1206 35.6313 25.0736 35.6371 25.0264 35.6371ZM17.7831 18.9264V24.9001C17.7831 29.4149 20.754 33.3282 25.0264 34.4679C29.2263 33.3468 32.1963 29.5016 32.2682 25.0658C32.2693 25.01 32.2697 24.9552 32.2697 24.9002V18.9265C30.8149 18.735 29.4382 18.3628 28.1705 17.8176C26.9619 17.2977 25.9068 16.6447 25.0264 15.8725C24.146 16.6447 23.0908 17.2977 21.8823 17.8176C20.6146 18.3628 19.2379 18.735 17.7831 18.9264Z" fill="#4185DD"/>
<path fill-rule="evenodd" clip-rule="evenodd" d="M28.2886 29.4804H21.7643C21.6118 29.4804 21.4655 29.4198 21.3577 29.3119C21.2498 29.2041 21.1892 29.0578 21.1892 28.9053V24.0793C21.1892 23.9267 21.2498 23.7804 21.3577 23.6726C21.4655 23.5647 21.6118 23.5042 21.7643 23.5042H28.2886C28.4411 23.5042 28.5874 23.5647 28.6953 23.6726C28.8031 23.7804 28.8637 23.9267 28.8637 24.0793V28.9053C28.8637 29.0578 28.8031 29.204 28.6952 29.3119C28.5874 29.4197 28.4411 29.4803 28.2886 29.4804ZM22.3394 28.3302H27.7135V24.6544H22.3394V28.3302Z" fill="#4185DD"/>
<path fill-rule="evenodd" clip-rule="evenodd" d="M27.0064 24.6544C26.8539 24.6544 26.7076 24.5938 26.5997 24.4859C26.4919 24.3781 26.4313 24.2318 26.4313 24.0793V21.9807C26.4313 21.5938 26.2838 21.2306 26.016 20.9579C25.7511 20.6881 25.3996 20.5395 25.0264 20.5395C24.2518 20.5395 23.6215 21.1861 23.6215 21.9808V24.0793C23.6215 24.2318 23.5609 24.3781 23.4531 24.4859C23.3452 24.5938 23.1989 24.6544 23.0464 24.6544C22.8939 24.6544 22.7476 24.5938 22.6398 24.4859C22.5319 24.3781 22.4713 24.2318 22.4713 24.0793V21.9808C22.4713 20.5518 23.6176 19.3893 25.0265 19.3893C25.711 19.3893 26.3539 19.6603 26.8369 20.1521C27.3172 20.6412 27.5816 21.2906 27.5816 21.9809V24.0794C27.5815 24.2319 27.5209 24.3781 27.413 24.486C27.3052 24.5938 27.1589 24.6544 27.0064 24.6544ZM8.9386 11.0399C7.66146 11.0399 6.62244 9.98647 6.62244 8.69166C6.62244 7.39684 7.66146 6.34338 8.9386 6.34338C10.2157 6.34338 11.2549 7.39684 11.2549 8.69166C11.2549 9.98647 10.2158 11.0399 8.9386 11.0399ZM8.9386 7.49369C8.29571 7.49369 7.77264 8.03109 7.77264 8.69166C7.77264 9.35223 8.29571 9.88973 8.9386 9.88973C9.58148 9.88973 10.1046 9.35233 10.1046 8.69166C10.1046 8.03109 9.58148 7.49369 8.9386 7.49369Z" fill="#4185DD"/>
<path fill-rule="evenodd" clip-rule="evenodd" d="M41.1143 25.6503H32.8433C32.6908 25.6503 32.5445 25.5897 32.4367 25.4819C32.3288 25.374 32.2682 25.2278 32.2682 25.0752C32.2682 24.9227 32.3288 24.7764 32.4367 24.6686C32.5445 24.5607 32.6908 24.5001 32.8433 24.5001H40.5392V17.7534C40.5392 13.0739 36.8054 9.2669 32.2162 9.2669H10.6796C10.529 9.26407 10.3854 9.20223 10.2799 9.09469C10.1744 8.98715 10.1152 8.84248 10.1152 8.6918C10.1152 8.54112 10.1744 8.39646 10.2799 8.28891C10.3854 8.18137 10.529 8.11953 10.6796 8.1167H32.2161C33.496 8.1167 34.7379 8.37209 35.9072 8.87574C37.0356 9.36182 38.0487 10.0573 38.9184 10.943C39.7849 11.8241 40.4734 12.864 40.9461 14.0057C41.4393 15.1932 41.6893 16.4541 41.6893 17.7535V25.0753C41.6893 25.2278 41.6287 25.3741 41.5209 25.4819C41.413 25.5898 41.2668 25.6503 41.1143 25.6503ZM41.1143 43.8069C39.837 43.8069 38.798 42.7535 38.798 41.4587C38.798 40.1639 39.837 39.1104 41.1143 39.1104C42.3914 39.1104 43.4304 40.1639 43.4304 41.4587C43.4304 42.7535 42.3914 43.8069 41.1143 43.8069ZM41.1143 40.2607C40.4714 40.2607 39.9483 40.7981 39.9483 41.4587C39.9483 42.1192 40.4714 42.6566 41.1143 42.6566C41.7572 42.6566 42.2802 42.1192 42.2802 41.4587C42.2802 40.7981 41.7572 40.2607 41.1143 40.2607Z" fill="#4185DD"/>
<path fill-rule="evenodd" clip-rule="evenodd" d="M39.3731 42.0336H17.8366C16.5568 42.0336 15.3149 41.7783 14.1456 41.2746C13.0171 40.7885 12.0041 40.093 11.1343 39.2073C10.2678 38.3262 9.57939 37.2864 9.10666 36.1446C8.61346 34.9571 8.36346 33.6962 8.36346 32.3969V25.0751C8.36346 24.9996 8.37834 24.9248 8.40724 24.855C8.43614 24.7852 8.4785 24.7218 8.53191 24.6684C8.58531 24.615 8.64871 24.5727 8.71848 24.5438C8.78826 24.5149 8.86304 24.5 8.93857 24.5H17.2095C17.362 24.5 17.5083 24.5606 17.6162 24.6684C17.724 24.7763 17.7846 24.9226 17.7846 25.0751C17.7846 25.2276 17.724 25.3739 17.6162 25.4818C17.5083 25.5896 17.362 25.6502 17.2095 25.6502H9.51367V32.3969C9.51367 37.0764 13.2473 40.8834 17.8366 40.8834H39.3731C39.5238 40.8863 39.6673 40.9481 39.7728 41.0556C39.8784 41.1632 39.9375 41.3079 39.9375 41.4585C39.9375 41.6092 39.8784 41.7539 39.7728 41.8614C39.6673 41.969 39.5238 42.0308 39.3731 42.0336Z" fill="#4185DD"/>
</svg>
