<svg width="50" height="50" viewBox="0 0 50 50" fill="none" xmlns="http://www.w3.org/2000/svg">
<path d="M9.08205 10.5957L10.5371 13.6035L13.8379 14.0527C14.4922 14.1406 14.7266 14.9512 14.2774 15.3809L11.8653 17.6953L12.461 20.9766C12.5781 21.6211 11.8946 22.1094 11.3281 21.7969L8.38869 20.2149L5.44924 21.7969C4.88283 22.0996 4.16994 21.6309 4.32619 20.9277L4.91213 17.6856L2.50002 15.3711C2.03127 14.9219 2.28518 14.1211 2.94924 14.0332L6.24026 13.584L7.69533 10.5762C7.96877 10 8.80862 10.0098 9.08205 10.5957ZM9.31643 14.6582L8.38869 12.7246L7.45119 14.6582C7.34377 14.8828 7.11916 15.0586 6.85549 15.0977L4.73635 15.3809L6.28908 16.8652C6.46486 17.041 6.56252 17.2949 6.51369 17.5586L6.13283 19.668L8.00783 18.6621C8.23244 18.5449 8.51565 18.5254 8.75002 18.6621L10.6348 19.6777L10.2637 17.6074C10.2051 17.3535 10.2735 17.0703 10.4785 16.8652L12.0313 15.3809L9.93166 15.0977C9.67776 15.0684 9.43362 14.9024 9.31643 14.6582ZM25.7031 3.51563L27.1582 6.52345L30.4688 6.97266C31.1231 7.06055 31.3574 7.8711 30.9082 8.31055L28.4961 10.625L29.0918 13.9063C29.209 14.5508 28.5254 15.0391 27.959 14.7266L25 13.1445L22.0606 14.7266C21.4942 15.0293 20.7813 14.5606 20.9375 13.8574L21.5235 10.6152L19.1016 8.30079C18.6328 7.85157 18.8867 7.05079 19.5508 6.9629L22.8418 6.51368L24.2969 3.51563C24.5899 2.91993 25.4199 2.9297 25.7031 3.51563ZM25.9375 7.57813L25 5.64454L24.0723 7.57813C23.9649 7.80274 23.7403 7.97852 23.4766 8.01759L21.3477 8.30079L22.9004 9.78516C23.086 9.96094 23.1738 10.2149 23.125 10.4785L22.7442 12.5879L24.6289 11.582C24.8535 11.4649 25.127 11.4453 25.3711 11.582L27.2559 12.5977L26.8848 10.5274C26.8262 10.2734 26.8946 9.99024 27.0996 9.78516L28.6524 8.30079L26.5528 8.00782C26.2891 7.98829 26.0547 7.82227 25.9375 7.57813ZM42.3145 10.5957L43.7696 13.6035L47.0703 14.0527C47.7246 14.1406 47.9688 14.9512 47.5098 15.3809L45.0977 17.6953L45.6934 20.9766C45.8106 21.6211 45.127 22.1094 44.5606 21.7969L41.6211 20.2149L38.6817 21.7969C38.1153 22.0996 37.4024 21.6309 37.5489 20.9277L38.1348 17.6856L35.7227 15.3711C35.2539 14.9219 35.5078 14.1211 36.1719 14.0332L39.4629 13.584L40.918 10.5762C41.2012 10 42.041 10.0098 42.3145 10.5957ZM42.5489 14.6582L41.6211 12.7246L40.6836 14.6582C40.5762 14.8828 40.3614 15.0586 40.0879 15.0977L37.9688 15.3809L39.5117 16.8652C39.6875 17.041 39.7852 17.2949 39.7363 17.5586L39.3555 19.668L41.2403 18.6621C41.4649 18.5449 41.7481 18.5254 41.9824 18.6621L43.877 19.6777L43.5059 17.6074C43.4473 17.3535 43.5156 17.0703 43.7207 16.8652L45.2637 15.3809L43.1641 15.0977C42.9102 15.0684 42.666 14.9024 42.5489 14.6582ZM21.377 30.5371C21.1621 30.166 21.2891 29.6875 21.6602 29.4727C22.0313 29.2578 22.5098 29.3848 22.7246 29.7559L23.75 31.5332L27.3926 27.8906C27.6953 27.5879 28.1934 27.5879 28.4961 27.8906C28.7988 28.1934 28.7988 28.6914 28.4961 28.9941L24.1309 33.3594C23.7696 33.7207 23.1641 33.6426 22.9102 33.2031L21.377 30.5371ZM25 22.2852C29.2481 22.2852 32.6953 25.7324 32.6953 29.9805C32.6953 34.2285 29.2481 37.6758 25 37.6758C20.752 37.6758 17.3047 34.2285 17.3047 29.9805C17.3047 25.7324 20.752 22.2852 25 22.2852ZM29.336 25.6445C26.9434 23.252 23.0567 23.252 20.6641 25.6445C18.2715 28.0371 18.2715 31.9238 20.6641 34.3164C23.0567 36.709 26.9434 36.709 29.336 34.3164C31.7285 31.9141 31.7285 28.0371 29.336 25.6445ZM25 17.4512C31.9141 17.4512 37.5196 23.0566 37.5196 29.9707C37.5196 32.5879 36.7188 35.0195 35.3418 37.0313L39.0821 43.5059C39.4434 44.1113 38.9453 44.7949 38.3008 44.6973L34.4727 44.0918L32.4219 46.6113C32.0606 47.0801 31.3867 47.002 31.1231 46.5332L28.5059 42.002C26.2207 42.666 23.7696 42.666 21.4942 42.002L18.877 46.5332C18.6133 47.002 17.9395 47.0801 17.5781 46.6113L15.5274 44.0918L11.6992 44.6973C11.0449 44.8047 10.586 44.0918 10.8985 43.5352L14.6582 37.0313C11.2598 32.0606 11.8946 25.3711 16.1524 21.1133C18.4082 18.8574 21.543 17.4512 25 17.4512ZM34.3067 38.3496C33.1153 39.6777 31.6504 40.7422 29.9903 41.4649L31.9043 44.7754L33.5449 42.7637C33.7305 42.5293 34.0137 42.4414 34.2871 42.4902L36.9239 42.9102L34.3067 38.3496ZM20 41.4649C18.3496 40.7422 16.8848 39.6777 15.6934 38.3594L13.0664 42.9102L15.7031 42.4902C15.9668 42.4414 16.2598 42.5391 16.4453 42.7637L18.086 44.7754L20 41.4649ZM32.7539 22.2266C28.4766 17.9492 21.5332 17.9492 17.2559 22.2266C12.9785 26.5039 12.9785 33.4473 17.2559 37.7246C21.543 42.002 28.4766 42.002 32.7539 37.7246C37.0313 33.4473 37.0313 26.5039 32.7539 22.2266Z" fill="#4185DD"/>
</svg>
