<svg width="100" height="100" viewBox="0 0 100 100" fill="none" xmlns="http://www.w3.org/2000/svg">
<path fill-rule="evenodd" clip-rule="evenodd" d="M89.6145 66.4939H92.3276C93.1935 66.4939 93.8963 67.1966 93.8963 68.0625C93.8963 68.9282 93.1935 69.6311 92.3276 69.6311H43.751C42.8851 69.6311 42.1823 68.9282 42.1823 68.0625C42.1823 67.1966 42.8851 66.4939 43.751 66.4939H46.0747V44.0788C46.0747 43.6627 46.2399 43.2638 46.5341 42.9696C46.8283 42.6754 47.2273 42.5101 47.6433 42.5101H56.2141C56.6301 42.5101 57.0291 42.6754 57.3233 42.9696C57.6175 43.2638 57.7827 43.6627 57.7827 44.0788V66.4939H61.9886V35.4696C61.9886 35.0535 62.1539 34.6545 62.448 34.3604C62.7422 34.0662 63.1412 33.9009 63.5572 33.9009H72.1317C72.5478 33.9009 72.9468 34.0662 73.2409 34.3604C73.5351 34.6545 73.7004 35.0535 73.7004 35.4696V66.4939H77.9065V27.7239C77.9065 27.3078 78.0717 26.9089 78.3659 26.6147C78.6601 26.3205 79.0591 26.1552 79.4751 26.1552H88.0459C88.4619 26.1552 88.8609 26.3205 89.1551 26.6147C89.4492 26.9089 89.6145 27.3078 89.6145 27.7239V66.4939ZM54.6455 66.4939V45.6474H49.2119V66.4939H54.6455ZM70.5631 66.4939V37.0382H65.1259V66.4939H70.5631ZM86.4772 66.4939V29.2925H81.0437V66.4939H86.4772ZM82.0486 18.6537C79.1463 22.6662 75.0461 26.2913 69.9643 29.0054L69.9637 29.0058C61.6002 33.469 52.4453 34.468 45.0525 32.4303C44.6857 32.329 44.3682 32.0978 44.1592 31.7797C43.9501 31.4617 43.8639 31.0785 43.9164 30.7016C43.9689 30.3246 44.1567 29.9796 44.4447 29.7309C44.7327 29.4821 45.1014 29.3465 45.4819 29.3494C50.6239 29.3909 55.8043 28.2648 61.39 25.2835C66.0184 22.8125 71.3429 18.1537 74.5233 13.8227L72.5604 12.5643C72.3125 12.4053 72.1143 12.1798 71.9886 11.9135C71.8628 11.6473 71.8146 11.351 71.8493 11.0586C71.8841 10.7662 72.0004 10.4894 72.1851 10.2601C72.3698 10.0307 72.6153 9.8579 72.8935 9.76151L83.1257 6.21661C83.3481 6.13961 83.5851 6.11366 83.8189 6.14067C84.0528 6.16769 84.2776 6.24699 84.4766 6.37269C84.6757 6.49839 84.8439 6.66727 84.9688 6.86682C85.0937 7.06637 85.1721 7.29146 85.1982 7.52543L86.4102 18.415C86.443 18.7096 86.3917 19.0074 86.2622 19.274C86.1327 19.5406 85.9303 19.7651 85.6785 19.9214C85.4267 20.0777 85.1357 20.1595 84.8394 20.1572C84.543 20.155 84.2533 20.0689 84.0039 19.9088L82.0486 18.6537ZM82.4621 15.1913L82.928 15.4903L82.2974 9.82386L76.9749 11.6678L77.581 12.0564C77.7545 12.1676 77.9044 12.3119 78.0221 12.481C78.1398 12.6502 78.223 12.8409 78.267 13.0422C78.311 13.2435 78.3149 13.4515 78.2784 13.6544C78.2419 13.8572 78.1658 14.0509 78.0545 14.2243C74.8102 19.2792 68.3861 25.1046 62.8674 28.0511C61.9195 28.5581 60.9525 29.0287 59.9686 29.4619C62.8278 28.7927 65.7047 27.7225 68.4865 26.2382C73.601 23.5064 77.6353 19.7746 80.2978 15.6594C80.5233 15.3109 80.8776 15.066 81.2833 14.9782C81.689 14.8905 82.1129 14.9671 82.4621 15.1913ZM54.2892 73.9852C54.3623 73.9839 54.4349 73.9829 54.5063 73.9823C54.6876 73.9804 54.8676 74.0146 55.0357 74.0827C55.2039 74.1508 55.3568 74.2516 55.4857 74.3792C55.6146 74.5069 55.717 74.6588 55.7868 74.8262C55.8566 74.9936 55.8926 75.1732 55.8925 75.3546V96.5966C55.8925 97.0079 55.731 97.4027 55.4428 97.6961C55.1545 97.9894 54.7626 98.1578 54.3513 98.165L48.0464 98.275C47.7254 98.2806 47.4104 98.1876 47.1439 98.0085C46.8774 97.8294 46.6723 97.5728 46.5563 97.2735L43.8812 90.3694C40.1578 89.4611 36.6012 88.0488 33.2902 86.1578L26.457 89.3152C26.1678 89.4489 25.8447 89.4913 25.5308 89.4368C25.2169 89.3823 24.927 89.2335 24.6998 89.0101L15.7761 80.2423C15.5487 80.0189 15.3949 79.7317 15.3349 79.4187C15.2749 79.1057 15.3117 78.7819 15.4404 78.4903L18.4784 71.6046C16.5297 68.3273 15.0533 64.7913 14.0927 61.1013L7.12997 58.536C6.82891 58.4251 6.56911 58.2246 6.3856 57.9614C6.20209 57.6982 6.1037 57.3851 6.1037 57.0643V44.4415C6.10366 44.1284 6.19736 43.8225 6.37271 43.5631C6.54807 43.3037 6.79706 43.1027 7.08762 42.986L14.0835 40.1758C15.0491 36.4277 16.5284 32.8311 18.4792 29.4882L15.4441 22.7152C15.315 22.4272 15.2758 22.107 15.3316 21.7964C15.3874 21.4857 15.5356 21.1992 15.7568 20.9741L24.6804 11.8948C24.9013 11.6701 25.1847 11.5171 25.4938 11.4557C25.8029 11.3944 26.1233 11.4275 26.4133 11.5509L33.2404 14.456C36.5534 12.4446 40.1295 10.9023 43.8663 9.87327L46.5537 2.84308C46.6655 2.5508 46.8621 2.29862 47.1184 2.11896C47.3746 1.9393 47.6787 1.84035 47.9915 1.83484L54.2966 1.72484C54.5049 1.72125 54.7118 1.75916 54.9052 1.83637C55.0987 1.91358 55.2748 2.02853 55.4234 2.17453C55.5719 2.32052 55.6899 2.49464 55.7705 2.68672C55.851 2.87879 55.8925 3.08499 55.8925 3.29327V24.3364C55.8926 24.749 55.73 25.1449 55.4402 25.4385C55.1503 25.7321 54.7564 25.8996 54.3439 25.9048C41.0498 26.137 30.2841 37.105 30.2841 50.3994C30.2841 63.6631 41.0255 74.2166 54.2892 73.9852ZM52.7553 77.1041C38.468 76.5317 27.1468 64.8937 27.1468 50.3994C27.1468 35.917 38.4727 23.8823 52.7553 22.8376V4.88955L49.1059 4.95327L46.5096 11.7441C46.4199 11.9788 46.2751 12.1885 46.0874 12.3555C45.8997 12.5226 45.6747 12.6421 45.4312 12.7041C41.4602 13.7143 37.6849 15.3443 34.2149 17.5431C34.0002 17.6791 33.7558 17.7609 33.5025 17.7815C33.2492 17.8021 32.9948 17.7608 32.761 17.6613L26.1686 14.8562L18.7449 22.4095L21.6755 28.9496C21.7796 29.1818 21.8256 29.4359 21.8096 29.6899C21.7935 29.9439 21.716 30.1902 21.5835 30.4076C19.4451 33.915 17.881 37.7178 16.9402 41.6931C16.8823 41.9376 16.7666 42.1646 16.6027 42.3551C16.4388 42.5455 16.2316 42.6938 15.9984 42.7874L9.24095 45.5019V55.9703L15.9559 58.4444C16.1984 58.5338 16.415 58.6816 16.5866 58.8748C16.7582 59.0681 16.8794 59.3007 16.9394 59.5521C17.875 63.4805 19.4406 67.2314 21.5755 70.6592C21.7106 70.8761 21.7906 71.1227 21.8087 71.3776C21.8268 71.6325 21.7823 71.8879 21.6792 72.1217L18.7484 78.7647L26.1251 86.0125L32.7172 82.9664C32.9491 82.8593 33.2037 82.8104 33.4588 82.824C33.7139 82.8377 33.9618 82.9134 34.181 83.0447C37.6472 85.1199 41.4186 86.616 45.3853 87.4988C45.6372 87.5548 45.8714 87.6721 46.0671 87.8403C46.2628 88.0086 46.414 88.2225 46.5072 88.4631L49.0861 95.1192L52.7553 95.055V77.1041Z" fill="#4185DD"/>
</svg>
