<svg width="512" height="512" viewBox="0 0 512 512" fill="none" xmlns="http://www.w3.org/2000/svg">
<g clip-path="url(#clip0_27_164)">
<path d="M188.587 320H101.333C97.0898 320 93.0202 318.314 90.0196 315.314C87.019 312.313 85.3333 308.243 85.3333 304C85.3333 299.757 87.019 295.687 90.0196 292.686C93.0202 289.686 97.0898 288 101.333 288H188.587C192.83 288 196.9 289.686 199.9 292.686C202.901 295.687 204.587 299.757 204.587 304C204.587 308.243 202.901 312.313 199.9 315.314C196.9 318.314 192.83 320 188.587 320ZM176 384H101.333C97.0898 384 93.0202 382.314 90.0196 379.314C87.019 376.313 85.3333 372.243 85.3333 368C85.3333 363.757 87.019 359.687 90.0196 356.686C93.0202 353.686 97.0898 352 101.333 352H176C180.243 352 184.313 353.686 187.314 356.686C190.314 359.687 192 363.757 192 368C192 372.243 190.314 376.313 187.314 379.314C184.313 382.314 180.243 384 176 384Z" fill="#4185DD"/>
<path d="M176 448H58.6667C43.1108 447.989 28.1952 441.804 17.1956 430.804C6.19586 419.805 0.0113011 404.889 0 389.333L0 58.6667C0.0113011 43.1108 6.19586 28.1952 17.1956 17.1956C28.1952 6.19586 43.1108 0.0113011 58.6667 0L304 0C319.556 0.0113011 334.471 6.19586 345.471 17.1956C356.471 28.1952 362.655 43.1108 362.667 58.6667V177.28C362.667 181.523 360.981 185.593 357.98 188.594C354.98 191.594 350.91 193.28 346.667 193.28C342.423 193.28 338.354 191.594 335.353 188.594C332.352 185.593 330.667 181.523 330.667 177.28V58.6667C330.667 43.968 318.699 32 304 32H58.6667C43.968 32 32 43.968 32 58.6667V389.333C32 404.032 43.968 416 58.6667 416H176C180.243 416 184.313 417.686 187.314 420.686C190.314 423.687 192 427.757 192 432C192 436.243 190.314 440.313 187.314 443.314C184.313 446.314 180.243 448 176 448Z" fill="#4185DD"/>
<path d="M181.333 149.333C204.897 149.333 224 130.231 224 106.667C224 83.1025 204.897 64 181.333 64C157.769 64 138.667 83.1025 138.667 106.667C138.667 130.231 157.769 149.333 181.333 149.333Z" fill="#4185DD"/>
<path d="M250.667 256H112C107.757 256 103.687 254.315 100.686 251.314C97.6857 248.313 96 244.244 96 240V229.334C96.0113 213.778 102.196 198.862 113.196 187.863C124.195 176.863 139.111 170.678 154.667 170.667H208C223.556 170.678 238.471 176.863 249.471 187.863C260.471 198.862 266.655 213.778 266.667 229.334V240C266.667 244.244 264.981 248.313 261.98 251.314C258.98 254.315 254.91 256 250.667 256ZM373.333 234.667C296.875 234.667 234.667 296.875 234.667 373.334C234.667 449.792 296.875 512 373.333 512C449.792 512 512 449.792 512 373.334C512 296.875 449.792 234.667 373.333 234.667ZM442.709 339.392L368.043 424.726C366.118 426.921 363.764 428.698 361.125 429.946C358.487 431.195 355.62 431.889 352.702 431.985C349.784 432.081 346.878 431.577 344.163 430.504C341.448 429.432 338.982 427.814 336.917 425.75L294.251 383.083C292.27 381.102 290.699 378.751 289.627 376.163C288.555 373.575 288.003 370.801 288.003 368C288.003 365.199 288.555 362.426 289.627 359.838C290.699 357.25 292.27 354.898 294.251 352.918C296.231 350.937 298.583 349.366 301.171 348.294C303.759 347.222 306.532 346.67 309.333 346.67C312.134 346.67 314.908 347.222 317.496 348.294C320.084 349.366 322.435 350.937 324.416 352.918L350.955 379.456L410.603 311.275C414.397 307.263 419.598 304.876 425.114 304.617C430.631 304.357 436.033 306.244 440.187 309.883C444.342 313.521 446.925 318.627 447.395 324.129C447.866 329.631 446.186 335.102 442.709 339.392Z" fill="#4185DD"/>
</g>
<defs>
<clipPath id="clip0_27_164">
<rect width="512" height="512" fill="white"/>
</clipPath>
</defs>
</svg>
