<svg width="512" height="512" viewBox="0 0 512 512" fill="none" xmlns="http://www.w3.org/2000/svg">
<path fill-rule="evenodd" clip-rule="evenodd" d="M80.391 283.949L28.6469 343.583C27.2502 345.191 25.2723 346.179 23.1478 346.329C21.0232 346.48 18.9259 345.78 17.3166 344.385C15.7087 342.989 14.721 341.011 14.5706 338.887C14.4202 336.762 15.1194 334.665 16.5145 333.056L82.3567 257.175C83.0042 256.428 83.4289 254.407 88.4224 254.407H148.825C144.896 223.781 134.838 210.663 127.14 196.879C120.697 185.345 115.647 173.421 115.647 153.11C115.647 101.484 157.499 59.6319 209.125 59.6319C260.751 59.6319 302.603 101.484 302.603 153.11C302.603 173.421 297.552 185.345 291.11 196.879C283.412 210.663 273.354 223.781 269.424 254.407H329.798C333.623 254.216 334.904 256.187 335.477 256.759L356.18 277.462C357.686 278.968 358.531 281.011 358.531 283.14C358.531 285.27 357.686 287.313 356.18 288.819C354.674 290.324 352.631 291.17 350.501 291.17C348.371 291.17 346.329 290.324 344.822 288.819L337.83 281.828V493.359C337.83 495.489 336.983 497.532 335.477 499.038C333.971 500.544 331.928 501.391 329.798 501.391H88.4224C86.2923 501.391 84.2495 500.544 82.7434 499.038C81.2372 497.532 80.391 495.489 80.391 493.359V283.949ZM165.013 254.407H186.347V181.615H174.506C159.18 181.615 146.63 169.065 146.63 153.74C146.63 138.377 159.183 125.836 174.506 125.836C189.865 125.836 202.41 138.381 202.41 153.74V165.553H215.84V153.74C215.84 138.381 228.385 125.836 243.744 125.836C259.067 125.836 271.62 138.377 271.62 153.74C271.62 169.065 259.07 181.615 243.744 181.615H231.903V254.407H253.237C256.631 225.22 264.909 209.997 272.577 196.843C279.777 184.492 286.54 174.297 286.54 153.11C286.54 110.356 251.88 75.6946 209.125 75.6946C166.37 75.6946 131.709 110.356 131.709 153.11C131.709 174.297 138.473 184.492 145.672 196.843C153.341 209.997 161.618 225.22 165.013 254.407ZM202.41 254.407H215.84V181.615H202.41V254.407ZM317.344 270.469H101.621L133.588 332.249H289.36L317.344 270.469ZM96.4538 295.436V485.328H321.767V299.634L301.855 343.593C301.218 345 300.19 346.193 298.892 347.029C297.595 347.866 296.083 348.311 294.54 348.312H128.701C127.228 348.311 125.784 347.906 124.526 347.141C123.268 346.375 122.245 345.279 121.568 343.971L96.4538 295.436ZM231.903 165.553H243.744C250.239 165.553 255.557 160.235 255.557 153.74C255.557 147.226 250.243 141.899 243.744 141.899C237.227 141.899 231.903 147.222 231.903 153.74V165.553ZM186.347 165.553V153.74C186.347 147.222 181.023 141.899 174.506 141.899C168.007 141.899 162.693 147.226 162.693 153.74C162.693 160.235 168.011 165.553 174.506 165.553H186.347ZM217.156 38.7714C217.156 43.2037 213.557 46.8028 209.125 46.8028C204.693 46.8028 201.094 43.2037 201.094 38.7714V18.6407C201.094 14.2084 204.693 10.6094 209.125 10.6094C213.557 10.6094 217.156 14.2084 217.156 18.6407V38.7714ZM151.626 52.0272C152.689 53.8729 152.975 56.0651 152.423 58.1219C151.87 60.1788 150.523 61.9319 148.678 62.996C146.832 64.0586 144.64 64.345 142.583 63.7923C140.527 63.2397 138.773 61.8931 137.709 60.0485L127.659 42.6094C126.596 40.7637 126.31 38.5717 126.862 36.5149C127.415 34.4582 128.762 32.705 130.606 31.6405C132.452 30.578 134.644 30.2918 136.701 30.8446C138.758 31.3975 140.511 32.7443 141.575 34.589L151.626 52.0272ZM101.525 96.275C103.368 97.3413 104.713 99.096 105.263 101.153C105.813 103.211 105.524 105.403 104.459 107.247C103.393 109.09 101.638 110.435 99.5806 110.985C97.5232 111.536 95.3314 111.247 93.4872 110.181L76.0481 100.102C72.2101 97.8843 70.8959 92.9671 73.1136 89.1301C74.1803 87.2866 75.9352 85.942 77.9927 85.3918C80.0502 84.8416 82.242 85.1307 84.0865 86.1956L101.525 96.275ZM280.507 60.0565C279.44 61.9001 277.686 63.2449 275.628 63.7951C273.571 64.3454 271.379 64.0562 269.535 62.991C267.691 61.9247 266.347 60.17 265.796 58.1126C265.246 56.0551 265.535 53.8634 266.6 52.0191L276.68 34.58C278.897 30.742 283.815 29.4279 287.652 31.6455C289.495 32.7122 290.84 34.4671 291.39 36.5246C291.94 38.5822 291.651 40.774 290.586 42.6184L280.507 60.0565ZM324.768 110.179C322.924 111.245 320.732 111.536 318.674 110.987C316.616 110.438 314.861 109.095 313.793 107.252C312.727 105.408 312.436 103.217 312.985 101.159C313.534 99.1013 314.877 97.3457 316.72 96.278L334.13 86.1986C335.974 85.1322 338.165 84.8413 340.223 85.3901C342.281 85.9389 344.036 87.2823 345.104 89.1251C346.171 90.9685 346.461 93.16 345.913 95.2178C345.364 97.2756 344.02 99.0313 342.178 100.099L324.768 110.179ZM479.688 132.714L432.97 73.4308L386.253 132.714H403.76C405.89 132.714 407.933 133.561 409.439 135.067C410.945 136.573 411.792 138.616 411.792 140.746V173.603C411.792 178.035 408.194 181.634 403.76 181.634C399.328 181.634 395.729 178.035 395.729 173.603V148.777H383.039C370.859 148.777 364.165 134.798 371.616 125.338L371.618 125.336L421.591 61.9188C422.935 60.1811 424.66 58.7744 426.633 57.8066C428.605 56.8388 430.773 56.3356 432.97 56.3356C435.167 56.3356 437.335 56.8388 439.308 57.8066C441.281 58.7744 443.005 60.1811 444.35 61.9188L494.325 125.338C501.776 134.798 495.082 148.777 482.9 148.777H470.212V278.675C470.212 283.107 466.613 286.706 462.18 286.706C457.747 286.706 454.149 283.107 454.149 278.675V140.746C454.149 138.616 454.995 136.573 456.501 135.067C458.008 133.561 460.05 132.714 462.18 132.714H479.688ZM421.317 241.352L392.52 204.808L363.723 241.352H371.583C373.714 241.352 375.756 242.198 377.263 243.704C378.769 245.21 379.615 247.253 379.615 249.383V344.399C379.615 348.832 376.016 352.431 371.583 352.431C367.15 352.431 363.552 348.832 363.552 344.399V257.414H356.73C346.088 257.414 340.245 245.198 346.756 236.93L346.757 236.928L382.574 191.477C383.75 189.959 385.257 188.73 386.981 187.884C388.705 187.039 390.6 186.599 392.52 186.599C394.44 186.599 396.334 187.039 398.058 187.884C399.782 188.73 401.29 189.959 402.465 191.477L438.285 236.93C444.794 245.198 438.953 257.414 428.309 257.414H421.488V344.399C421.488 348.832 417.889 352.431 413.457 352.431C409.024 352.431 405.426 348.832 405.426 344.399V249.383C405.426 247.253 406.272 245.21 407.778 243.704C409.284 242.198 411.327 241.352 413.457 241.352H421.317Z" fill="#4185DD"/>
</svg>
