<svg width="512" height="512" viewBox="0 0 512 512" fill="none" xmlns="http://www.w3.org/2000/svg">
<g clip-path="url(#clip0_25_141)">
<path d="M116.973 94.4712C118.962 94.4712 120.87 93.681 122.276 92.2745C123.683 90.8679 124.473 88.9603 124.473 86.9712C124.473 84.982 123.683 83.0744 122.276 81.6679C120.87 80.2613 118.962 79.4712 116.973 79.4712C114.984 79.4712 113.076 80.2613 111.67 81.6679C110.263 83.0744 109.473 84.982 109.473 86.9712C109.473 88.9603 110.263 90.8679 111.67 92.2745C113.076 93.681 114.984 94.4712 116.973 94.4712ZM56.973 94.4712C58.9621 94.4712 60.8698 93.681 62.2763 92.2745C63.6828 90.8679 64.473 88.9603 64.473 86.9712C64.473 84.982 63.6828 83.0744 62.2763 81.6679C60.8698 80.2613 58.9621 79.4712 56.973 79.4712C54.9839 79.4712 53.0762 80.2613 51.6697 81.6679C50.2632 83.0744 49.473 84.982 49.473 86.9712C49.473 88.9603 50.2632 90.8679 51.6697 92.2745C53.0762 93.681 54.9839 94.4712 56.973 94.4712ZM86.973 94.4712C88.9621 94.4712 90.8698 93.681 92.2763 92.2745C93.6828 90.8679 94.473 88.9603 94.473 86.9712C94.473 84.982 93.6828 83.0744 92.2763 81.6679C90.8698 80.2613 88.9621 79.4712 86.973 79.4712C84.9839 79.4712 83.0762 80.2613 81.6697 81.6679C80.2632 83.0744 79.473 84.982 79.473 86.9712C79.473 88.9603 80.2632 90.8679 81.6697 92.2745C83.0762 93.681 84.9839 94.4712 86.973 94.4712ZM85.328 173.924L85.466 173.925L153.275 173.942H153.279C157.964 173.942 161.941 170.907 163.178 166.389C164.416 161.869 162.537 157.23 158.505 154.845L148.192 148.743C156.42 140.593 162.936 130.881 167.359 120.177C171.781 109.473 174.019 97.9933 173.943 86.4122C173.646 39.4442 135.204 0.685169 88.25 0.00916923C39.595 -0.689831 0 38.6672 0 86.9732C0 133.296 38.168 172.921 85.328 173.924ZM36.45 35.7132C50.28 22.0812 68.56 14.7362 88.035 15.0072C126.888 15.5662 158.697 47.6402 158.943 86.5062C159.011 96.8635 156.842 107.113 152.584 116.555C148.326 125.997 142.08 134.409 134.272 141.214C132.967 142.355 131.951 143.789 131.306 145.398C130.662 147.007 130.407 148.746 130.563 150.472C130.724 152.196 131.29 153.858 132.216 155.322C133.142 156.785 134.402 158.009 135.891 158.892L135.966 158.936L85.54 158.924C46.558 158.176 15 126.062 15 86.9732C15 67.5522 22.618 49.3482 36.45 35.7132ZM504.5 497H497V385.31C497 356.048 479.709 329.476 452.865 317.577L413.339 300.636C422.957 297.601 431.646 292.189 438.716 284.682C449.383 273.357 455.5 257.99 455.5 242.521C455.5 228.307 450.534 214.891 441.137 203.72C429.372 189.734 422.918 172.047 422.91 153.771V117.831C422.91 86.3532 410.651 56.7652 388.393 34.5182C366.135 12.2582 336.544 0.00016923 305.07 0.00016923C240.098 0.00016923 187.24 52.8582 187.24 117.83V152.6C187.244 171.488 179.821 189.517 167.759 204.05C152.578 222.34 149.424 247.069 159.529 268.586C167.029 284.558 180.557 296.033 196.752 300.89L157.502 317.958C129.965 329.546 112.171 356.337 112.171 386.211V474.501C112.171 478.643 115.528 482.001 119.671 482.001C123.814 482.001 127.171 478.643 127.171 474.501V386.211C127.171 362.389 141.36 341.024 163.402 331.749L212.6 310.355V355.5H189.997C186.842 355.502 183.723 356.167 180.842 357.45C177.96 358.734 175.38 360.608 173.269 362.952C171.161 365.299 169.569 368.062 168.597 371.062C167.624 374.063 167.292 377.234 167.623 380.371L179.986 497H7.5C3.357 497 0 500.358 0 504.5C0 508.642 3.357 512 7.5 512H504.5C508.643 512 512 508.642 512 504.5C512 500.358 508.643 497 504.5 497ZM429.661 213.378C436.752 221.808 440.5 231.885 440.5 242.52C440.5 254.207 435.87 265.825 427.797 274.397C419.249 283.472 407.506 288.47 394.731 288.47H384.957L372.118 282.967C366.66 280.629 361.905 276.912 358.318 272.179C354.732 267.447 352.438 261.864 351.663 255.977C374.804 243.517 390.571 219.063 390.571 190.99V134.607C392.759 134.758 394.952 134.835 397.146 134.837C400.753 134.837 404.346 134.632 407.911 134.228V153.77C407.92 175.58 415.622 196.688 429.661 213.378ZM306.893 331.779C280.114 332.255 253.407 328.857 227.6 321.689V303.832L229.769 302.889L229.821 302.867L243.201 297.049C250.446 293.901 256.827 289.056 261.807 282.924C266.786 276.791 270.217 269.551 271.811 261.814C278.491 263.761 285.413 264.75 292.371 264.751H316.81C323.794 264.75 330.742 263.754 337.445 261.792C339.092 269.496 342.563 276.692 347.568 282.776C352.573 288.86 358.965 293.653 366.207 296.754L380.487 302.874L380.514 302.885L381.572 303.338V320.215C357.32 327.446 332.196 331.336 306.893 331.779ZM381.57 335.831V355.501H227.6V337.221C253.556 344.033 280.324 347.248 307.155 346.777C332.327 346.337 357.337 342.658 381.57 335.831ZM407.91 119.104C387.251 121.895 363.964 116.361 347.92 103.93C346.346 102.728 344.361 102.197 342.398 102.453C340.434 102.709 338.651 103.731 337.439 105.297C336.226 106.862 335.681 108.843 335.924 110.809C336.166 112.774 337.176 114.564 338.733 115.787C349.222 123.913 361.873 129.637 375.571 132.523V173.354C371.967 181.568 367.955 188.399 358.91 195.861C355.115 198.989 350.934 201.618 346.47 203.682C342.825 196.569 335.422 191.687 326.896 191.687H309.32C297.197 191.687 287.335 201.55 287.335 213.672C287.335 225.794 297.197 235.657 309.32 235.657H326.896C337.098 235.657 345.698 228.671 348.167 219.233C358.2 215.41 374.559 201.772 374.563 201.767C369.484 229.034 345.528 249.747 316.811 249.747H292.37C259.97 249.747 233.61 223.388 233.61 190.987V133.013C259.083 129.02 283.148 120.4 305.218 107.346C338.822 87.4692 360.377 61.4952 373.385 40.9742C395.642 60.7972 408.303 89.2162 407.91 119.104ZM333.879 213.693C333.868 217.536 330.74 220.659 326.895 220.659H309.319C305.467 220.659 302.334 217.525 302.334 213.674C302.334 209.823 305.468 206.689 309.319 206.689H326.895C330.739 206.689 333.866 209.81 333.879 213.651V213.693ZM202.24 117.83C202.24 61.1292 248.369 15.0002 305.07 15.0002C325.405 15.0002 344.837 20.8702 361.442 31.7982C349.471 50.9872 329.322 75.6632 297.581 94.4392C275.806 107.319 251.921 115.542 226.587 118.88H202.239V117.83H202.24ZM173.105 262.21C165.5 246.012 167.874 227.397 179.292 213.641C193.619 196.38 202.256 175.052 202.24 152.6V133.88H218.61V190.99C218.61 219.079 234.397 243.545 257.559 255.998C256.843 261.926 254.589 267.564 251.021 272.352C247.453 277.139 242.695 280.911 237.219 283.292L225.311 288.47H214.44C196.55 288.47 180.712 278.408 173.105 262.21ZM434.192 378.791L421.661 497H195.07L182.539 378.791C182.422 377.745 182.53 376.687 182.854 375.685C183.179 374.684 183.713 373.764 184.421 372.985C185.121 372.199 185.98 371.571 186.941 371.143C187.903 370.714 188.944 370.496 189.997 370.501H426.734C428.888 370.501 430.869 371.383 432.31 372.985C433.018 373.764 433.552 374.684 433.877 375.685C434.201 376.687 434.309 377.745 434.192 378.791ZM482 497H436.745L449.108 380.373C449.439 377.236 449.107 374.065 448.134 371.064C447.162 368.063 445.57 365.3 443.462 362.953C441.351 360.609 438.771 358.735 435.889 357.451C433.008 356.167 429.889 355.503 426.734 355.501H396.57V309.768L446.871 331.327C468.211 340.787 482 361.976 482 385.31V497ZM308.365 405.25C292.65 405.25 279.865 418.035 279.865 433.75C279.865 449.465 292.65 462.25 308.365 462.25C324.08 462.25 336.865 449.465 336.865 433.75C336.865 418.035 324.08 405.25 308.365 405.25ZM308.365 447.25C300.921 447.25 294.865 441.194 294.865 433.75C294.865 426.306 300.921 420.25 308.365 420.25C315.809 420.25 321.865 426.306 321.865 433.75C321.865 441.194 315.81 447.25 308.365 447.25Z" fill="#4185DD"/>
</g>
<defs>
<clipPath id="clip0_25_141">
<rect width="512" height="512" fill="white"/>
</clipPath>
</defs>
</svg>
