<svg width="512" height="512" viewBox="0 0 512 512" fill="none" xmlns="http://www.w3.org/2000/svg">
<path d="M389.896 450.017H220.238C210.386 450.017 202.395 458.007 202.395 467.782V468.402C202.395 478.177 210.386 486.167 220.238 486.167H389.896C399.748 486.167 407.738 478.177 407.738 468.402V467.782C407.738 457.929 399.748 450.017 389.896 450.017ZM169.581 361.58L178.735 347.849L161.513 329.852L148.325 339.394C142.584 335.67 136.378 333.033 129.707 331.403L126.914 314.88H102.555L99.7625 331.403C93.0134 333.033 86.8074 335.748 81.0668 339.394L67.8789 329.852L50.7346 347.849L59.8886 361.58C56.3977 367.554 53.6825 374.07 52.131 381.052L36.4607 383.922V409.367L52.2086 412.237C53.6825 419.297 56.3977 425.736 59.8886 431.709L50.7346 445.44L67.8789 463.437L81.0668 453.896C86.8074 457.619 93.0134 460.257 99.7625 461.886L102.555 478.409H126.914L129.707 461.886C136.378 460.257 142.584 457.542 148.325 453.896L161.513 463.437L178.735 445.44L169.581 431.709C172.994 425.736 175.709 419.297 177.183 412.237L193.009 409.367V383.922L177.261 381.052C175.755 374.193 173.162 367.62 169.581 361.58ZM114.812 341.023C117.915 341.023 120.398 343.583 120.398 346.686C120.438 347.449 120.322 348.213 120.058 348.93C119.793 349.647 119.385 350.303 118.859 350.858C118.333 351.412 117.699 351.854 116.997 352.156C116.294 352.458 115.538 352.613 114.773 352.613C114.009 352.613 113.252 352.458 112.55 352.156C111.848 351.854 111.214 351.412 110.688 350.858C110.162 350.303 109.754 349.647 109.489 348.93C109.225 348.213 109.109 347.449 109.149 346.686C109.149 343.583 111.554 341.023 114.812 341.023ZM64.1552 403.006C63.3918 403.046 62.6282 402.93 61.9109 402.666C61.1937 402.401 60.5378 401.993 59.9832 401.467C59.4286 400.941 58.987 400.307 58.6852 399.605C58.3834 398.903 58.2277 398.146 58.2277 397.382C58.2277 396.617 58.3834 395.861 58.6852 395.158C58.987 394.456 59.4286 393.822 59.9832 393.296C60.5378 392.77 61.1937 392.362 61.9109 392.098C62.6282 391.833 63.3918 391.717 64.1552 391.757C64.9187 391.717 65.6823 391.833 66.3995 392.098C67.1168 392.362 67.7727 392.77 68.3273 393.296C68.8819 393.822 69.3235 394.456 69.6253 395.158C69.9271 395.861 70.0827 396.617 70.0827 397.382C70.0827 398.146 69.9271 398.903 69.6253 399.605C69.3235 400.307 68.8819 400.941 68.3273 401.467C67.7727 401.993 67.1168 402.401 66.3995 402.666C65.6823 402.93 64.9187 403.046 64.1552 403.006ZM74.9383 357.546C76.0127 356.485 77.4621 355.89 78.9722 355.89C80.4824 355.89 81.9317 356.485 83.0061 357.546C85.1783 359.719 85.2558 363.287 83.0061 365.614C80.834 367.786 77.2655 367.709 75.0158 365.537C72.7662 363.365 72.6886 359.796 74.9383 357.546ZM82.9286 437.139C80.7565 439.311 77.188 439.389 74.9383 437.217C73.8771 436.142 73.282 434.693 73.282 433.183C73.282 431.673 73.8771 430.223 74.9383 429.149C76.0127 428.088 77.4621 427.493 78.9722 427.493C80.4824 427.493 81.9317 428.088 83.0061 429.149C85.2558 431.321 85.1783 434.889 82.9286 437.139ZM114.812 453.663C111.554 453.663 109.149 451.103 109.149 448C109.149 444.897 111.632 442.337 114.812 442.337C117.915 442.337 120.398 444.897 120.398 448C120.398 451.103 117.915 453.663 114.812 453.663ZM114.735 427.054C98.5989 427.054 85.4886 413.401 85.4886 396.567C85.4886 379.733 98.5989 366.08 114.735 366.08C130.87 366.08 143.903 379.733 143.903 396.567C143.981 413.479 130.87 427.054 114.735 427.054ZM154.531 437.217C152.359 439.389 148.79 439.311 146.541 437.139C145.485 436.082 144.886 434.654 144.871 433.16C144.857 431.666 145.428 430.226 146.463 429.149C147.538 428.088 148.987 427.493 150.497 427.493C152.007 427.493 153.457 428.088 154.531 429.149C156.703 431.321 156.781 434.889 154.531 437.217ZM154.531 365.537C152.359 367.709 148.79 367.786 146.541 365.614C145.48 364.54 144.884 363.091 144.884 361.58C144.884 360.07 145.48 358.621 146.541 357.546C147.615 356.485 149.064 355.89 150.575 355.89C152.085 355.89 153.534 356.485 154.609 357.546C156.781 359.796 156.703 363.365 154.531 365.537ZM165.392 403.006C164.628 403.046 163.865 402.93 163.147 402.666C162.43 402.401 161.774 401.993 161.22 401.467C160.665 400.941 160.223 400.307 159.922 399.605C159.62 398.903 159.464 398.146 159.464 397.382C159.464 396.617 159.62 395.861 159.922 395.158C160.223 394.456 160.665 393.822 161.22 393.296C161.774 392.77 162.43 392.362 163.147 392.098C163.865 391.833 164.628 391.717 165.392 391.757C166.155 391.717 166.919 391.833 167.636 392.098C168.353 392.362 169.009 392.77 169.564 393.296C170.118 393.822 170.56 394.456 170.862 395.158C171.163 395.861 171.319 396.617 171.319 397.382C171.319 398.146 171.163 398.903 170.862 399.605C170.56 400.307 170.118 400.941 169.564 401.467C169.009 401.993 168.353 402.401 167.636 402.666C166.919 402.93 166.155 403.046 165.392 403.006ZM68.4219 189.052C71.8352 189.052 74.5504 186.259 74.5504 182.923C74.5504 179.51 71.7577 176.795 68.4219 176.795H45.2268C41.8134 176.795 39.0983 179.588 39.0983 182.923C39.0983 186.337 41.891 189.052 45.2268 189.052H68.4219Z" fill="#4185DD"/>
<path d="M469.876 222.099L469.566 222.255C471.738 211.239 472.824 200.068 472.669 188.587C471.893 104.417 405.488 32.9697 321.629 26.3757C279.75 22.9388 238.157 35.7751 205.498 62.2157H113.028C110.933 62.2157 108.994 63.3018 107.83 65.086L57.8715 143.127H13.8861C10.5503 143.127 7.75757 145.842 7.75757 149.256C7.75757 152.669 10.5503 155.384 13.8861 155.384H61.2073C63.3018 155.384 65.2412 154.298 66.4048 152.514L116.364 74.3951H267.481L312.32 88.3588C309.682 91.5394 307.665 95.1854 306.269 99.1418L275.627 85.7212H181.527C174.545 94.1769 168.495 103.331 163.297 113.105H134.594C132.577 113.105 130.715 114.114 129.552 115.743L84.9454 179.2C84.7903 179.433 84.7127 179.665 84.5576 179.976C84.48 180.208 84.3248 180.364 84.2473 180.596C83.7042 181.993 83.7042 183.544 84.2473 184.941C84.3248 185.173 84.48 185.328 84.5576 185.561C84.7127 185.794 84.7903 186.104 84.9454 186.337L129.552 249.794C130.715 251.423 132.577 252.431 134.594 252.431H356.228C356.15 252.121 356.15 251.811 356.15 251.501H364.373C363.985 253.518 363.753 255.535 363.753 257.629C363.753 259.724 363.985 261.818 364.373 263.758H161.59C164.538 269.653 167.796 275.472 171.442 280.979C171.442 280.979 173.692 284.005 176.873 288.116H112.873L58.6473 211.006C58.0836 210.215 57.3389 209.569 56.4752 209.124C55.6116 208.679 54.6541 208.446 53.6824 208.446H13.8861C10.5503 208.446 7.75757 211.239 7.75757 214.575C7.75757 217.91 10.5503 220.703 13.8861 220.703H50.4242L104.65 297.813C105.813 299.442 107.675 300.451 109.692 300.451H242.347L249.949 311.855H198.284C206.662 319.457 215.816 326.361 225.668 332.102V433.493H384.388V392.611H440.087C448.543 392.611 455.447 385.784 455.447 377.251V322.793C455.447 311.622 462.274 301.615 472.669 297.581L504.242 285.324L469.876 222.099ZM306.89 311.932H265.309L292.383 352.504H291.918L257.241 300.528H298.744C298.667 300.218 298.667 299.908 298.667 299.598H306.89C306.502 301.615 306.269 303.631 306.269 305.726C306.269 307.821 306.502 309.915 306.89 311.932ZM317.518 376.165H296.727C295.716 376.17 294.719 375.924 293.826 375.451C292.933 374.977 292.17 374.29 291.607 373.45L284.781 363.21C285.867 364.141 287.185 364.761 288.659 364.761H309.45C309.372 364.451 309.372 364.141 309.372 363.83H317.595C316.794 367.9 316.767 372.085 317.518 376.165ZM314.57 294.4C314.57 284.315 322.793 276.092 332.878 276.092C342.962 276.092 351.185 284.315 351.185 294.4C351.185 304.485 342.962 312.708 332.878 312.708C328.025 312.7 323.373 310.768 319.941 307.337C316.509 303.905 314.578 299.253 314.57 294.4ZM343.505 376.941C333.421 376.941 325.198 368.718 325.198 358.633C325.198 348.548 333.421 340.325 343.505 340.325C353.59 340.325 361.813 348.548 361.813 358.633C361.813 368.718 353.59 376.941 343.505 376.941ZM330.938 80.7563C341.023 80.7563 349.246 88.9794 349.246 99.0642C349.246 109.149 341.023 117.372 330.938 117.372C320.853 117.372 312.63 109.149 312.63 99.0642C312.63 88.9794 320.776 80.7563 330.938 80.7563ZM320 188.121C319.767 189.828 319.457 191.535 319.457 193.396C319.457 195.801 319.69 198.206 320.155 200.456H295.641L269.11 240.175H254.293L287.185 190.914C287.728 190.138 288.427 189.595 289.202 189.13H312.087C312.01 188.819 312.01 188.509 312.01 188.199H320V188.121ZM195.413 182.924C195.413 172.839 203.636 164.616 213.721 164.616C223.806 164.616 232.029 172.839 232.029 182.924C232.029 193.008 223.806 201.231 213.721 201.231C203.636 201.231 195.413 193.008 195.413 182.924ZM240.795 101.159C250.88 101.159 259.103 109.382 259.103 119.467C259.103 129.551 250.88 137.775 240.795 137.775C230.71 137.775 222.487 129.551 222.487 119.467C222.487 109.382 230.71 101.159 240.795 101.159ZM137.775 125.595H206.662C206.584 125.285 206.584 124.975 206.584 124.664H214.807C214.419 126.681 214.187 128.698 214.187 130.793C214.187 132.887 214.419 134.982 214.807 136.921H152.979C148.635 149.566 145.92 162.831 144.834 176.64H101.935L137.775 125.595ZM101.857 189.052H179.588C179.51 188.742 179.51 188.431 179.51 188.121H187.733C187.345 190.138 187.113 192.155 187.113 194.25C187.113 196.344 187.345 198.439 187.733 200.378H144.601C145.455 214.109 148.015 227.452 152.048 240.097H137.852L101.857 189.052ZM346.065 200.301C335.981 200.301 327.758 192.078 327.758 181.993C327.758 171.908 335.981 163.685 346.065 163.685C356.15 163.685 364.373 171.908 364.373 181.993C364.373 192.078 356.15 200.301 346.065 200.301ZM390.361 264.611C380.276 264.611 372.053 256.388 372.053 246.303C372.053 236.218 380.276 227.995 390.361 227.995C400.446 227.995 408.669 236.218 408.669 246.303C408.649 251.152 406.713 255.797 403.284 259.226C399.855 262.655 395.21 264.59 390.361 264.611Z" fill="#4185DD"/>
</svg>
