<svg width="50" height="50" viewBox="0 0 50 50" fill="none" xmlns="http://www.w3.org/2000/svg">
<path d="M48.7182 15.9683L46.7666 15.2171C46.4827 14.1755 46.0677 13.1742 45.5313 12.2372L46.3807 10.3249C46.4448 10.1806 46.4636 10.0203 46.4348 9.86503C46.406 9.70981 46.3308 9.56697 46.2191 9.45532L43.5298 6.76597C43.4182 6.6543 43.2753 6.57909 43.1201 6.55026C42.9649 6.52142 42.8045 6.54031 42.6603 6.60444L40.7473 7.45405C39.8105 6.91793 38.8095 6.50292 37.7683 6.21899L37.0169 4.26694C36.9602 4.11959 36.8602 3.99288 36.73 3.90351C36.5999 3.81415 36.4457 3.76633 36.2878 3.76636H32.4846C32.3267 3.76636 32.1725 3.81419 32.0424 3.90355C31.9122 3.99291 31.8122 4.11961 31.7555 4.26694L31.004 6.21909C29.9627 6.50298 28.9617 6.91799 28.025 7.45415L26.112 6.60454C25.9677 6.54041 25.8074 6.52152 25.6522 6.55035C25.4969 6.57919 25.3541 6.6544 25.2425 6.76606L22.5531 9.45552C22.4415 9.56716 22.3663 9.71001 22.3375 9.86523C22.3086 10.0204 22.3275 10.1808 22.3916 10.325L23.2412 12.2377C22.7049 13.1745 22.2899 14.1756 22.0061 15.217L20.0542 15.9684C19.9069 16.0251 19.7802 16.1252 19.6908 16.2553C19.6014 16.3855 19.5536 16.5396 19.5536 16.6975V20.5007C19.5536 20.6586 19.6014 20.8128 19.6908 20.9429C19.7802 21.0731 19.9069 21.1731 20.0542 21.2298L22.0057 21.981C22.2896 23.0226 22.7047 24.024 23.241 24.961L22.3916 26.8732C22.3275 27.0175 22.3086 27.1778 22.3375 27.333C22.3663 27.4882 22.4415 27.6311 22.5531 27.7427L25.2425 30.4321C25.3541 30.5437 25.497 30.6189 25.6522 30.6478C25.8074 30.6766 25.9677 30.6578 26.112 30.5937L28.0251 29.7441C28.9618 30.2802 29.9628 30.6952 31.0041 30.9791L31.7555 32.9312C31.8122 33.0786 31.9122 33.2053 32.0423 33.2946C32.1725 33.384 32.3267 33.4318 32.4846 33.4318H36.2878C36.4457 33.4318 36.5998 33.384 36.73 33.2946C36.8602 33.2052 36.9602 33.0785 37.0169 32.9312L37.7681 30.9796C38.8097 30.6957 39.811 30.2806 40.748 29.7443L42.6604 30.5936C42.8046 30.6577 42.965 30.6766 43.1202 30.6477C43.2754 30.6189 43.4182 30.5437 43.5299 30.4321L46.2191 27.7427C46.3308 27.6311 46.406 27.4882 46.4348 27.333C46.4636 27.1778 46.4448 27.0175 46.3807 26.8732L45.5311 24.9601C46.0672 24.0234 46.4822 23.0225 46.766 21.9812L48.7182 21.2298C48.8655 21.1731 48.9922 21.0731 49.0816 20.9429C49.1709 20.8128 49.2188 20.6586 49.2188 20.5007V16.6975C49.2188 16.5396 49.1709 16.3854 49.0816 16.2552C48.9922 16.1251 48.8655 16.025 48.7182 15.9683ZM47.6562 19.9642L45.8282 20.6678C45.7098 20.7134 45.6042 20.7871 45.5207 20.8826C45.4372 20.9782 45.3782 21.0926 45.3489 21.2161C45.073 22.3758 44.6135 23.484 43.9879 24.4988C43.9214 24.6068 43.8822 24.7295 43.8737 24.8561C43.8652 24.9827 43.8877 25.1095 43.9392 25.2254L44.7348 27.017L42.8041 28.9478L41.0132 28.1524C40.8972 28.1009 40.7704 28.0784 40.6438 28.0869C40.5171 28.0954 40.3945 28.1346 40.2864 28.2012C39.2714 28.827 38.1628 29.2865 37.0027 29.5625C36.8793 29.5918 36.7649 29.6509 36.6694 29.7344C36.5739 29.8179 36.5002 29.9234 36.4546 30.0418L35.7512 31.8692H33.0208L32.3172 30.0413C32.2716 29.9228 32.1979 29.8173 32.1023 29.7338C32.0068 29.6502 31.8924 29.5912 31.7689 29.5619C30.6092 29.2859 29.501 28.8265 28.4862 28.2009C28.3782 28.1344 28.2555 28.0952 28.1289 28.0867C28.0023 28.0782 27.8756 28.1006 27.7596 28.1521L25.9679 28.9478L24.0371 27.017L24.8326 25.2262C24.8841 25.1102 24.9066 24.9834 24.8981 24.8568C24.8896 24.7301 24.8503 24.6074 24.7838 24.4994C24.1581 23.4843 23.6985 22.3757 23.4226 21.2157C23.3932 21.0922 23.3342 20.9778 23.2507 20.8823C23.1672 20.7868 23.0617 20.7131 22.9433 20.6675L21.1159 19.9642V17.2337L22.9437 16.5301C23.0621 16.4845 23.1676 16.4108 23.2511 16.3153C23.3346 16.2198 23.3936 16.1053 23.4229 15.9819C23.6989 14.8221 24.1584 13.7138 24.7841 12.699C24.8506 12.5909 24.8899 12.4682 24.8984 12.3416C24.9069 12.2149 24.8844 12.0881 24.8329 11.9721L24.0373 10.1808L25.9681 8.25005L27.7597 9.04575C27.8757 9.09722 28.0024 9.11968 28.129 9.11117C28.2556 9.10266 28.3783 9.06345 28.4863 8.99692C29.5012 8.3714 30.6094 7.91196 31.7691 7.63599C31.8926 7.6066 32.007 7.54759 32.1025 7.46406C32.198 7.38053 32.2717 7.275 32.3173 7.15659L33.021 5.32866H35.7514L36.455 7.15659C36.5006 7.275 36.5743 7.38053 36.6698 7.46406C36.7653 7.54759 36.8797 7.6066 37.0031 7.63599C38.1629 7.91193 39.2711 8.37136 40.2859 8.99692C40.394 9.06344 40.5166 9.10265 40.6432 9.11116C40.7698 9.11966 40.8966 9.09721 41.0126 9.04575L42.8042 8.25005L44.735 10.1808L43.9396 11.9716C43.8881 12.0876 43.8656 12.2144 43.8741 12.341C43.8826 12.4677 43.9218 12.5903 43.9884 12.6984C44.6141 13.7134 45.0736 14.8219 45.3495 15.982C45.3788 16.1054 45.4378 16.2199 45.5213 16.3154C45.6049 16.4109 45.7104 16.4847 45.8288 16.5302L47.6562 17.2337V19.9642ZM34.386 10.5561C29.9512 10.5561 26.3432 14.1641 26.3432 18.599C26.3432 23.0338 29.9512 26.6418 34.386 26.6418C38.8208 26.6418 42.4288 23.0338 42.4288 18.599C42.4288 14.1641 38.8208 10.5561 34.386 10.5561ZM30.1802 23.5231C30.5753 21.5354 32.3194 20.0805 34.386 20.0805C36.4526 20.0805 38.1968 21.5354 38.5919 23.523C37.459 24.4921 35.9902 25.0793 34.386 25.0793C32.7818 25.0793 31.3131 24.4921 30.1802 23.5231ZM34.3861 18.518C33.4032 18.518 32.6034 17.7183 32.6034 16.7354C32.6034 15.7525 33.4031 14.9528 34.3861 14.9528C35.3691 14.9528 36.1688 15.7524 36.1688 16.7354C36.1688 17.7184 35.3691 18.518 34.3861 18.518ZM39.8039 22.1484C39.2373 20.7594 38.1573 19.6508 36.8078 19.0395C37.3794 18.4391 37.7313 17.6278 37.7313 16.7354C37.7313 14.8909 36.2308 13.3903 34.3862 13.3903C32.5417 13.3903 31.041 14.8909 31.041 16.7354C31.041 17.6278 31.393 18.439 31.9645 19.0394C30.6149 19.6508 29.5349 20.7594 28.9683 22.1485C28.2975 21.1281 27.9058 19.9087 27.9058 18.599C27.9058 15.0257 30.8129 12.1186 34.3861 12.1186C37.9594 12.1186 40.8664 15.0257 40.8664 18.599C40.8664 19.9086 40.4746 21.128 39.8039 22.1484ZM39.7335 35.8233L30.6535 38.2934C30.2538 38.4021 29.863 38.4567 29.473 38.4567H29.4706C29.6542 38.2675 29.8192 38.0483 29.9626 37.8C30.7816 36.3816 30.3019 34.5432 28.8701 33.6149C28.8406 33.5958 28.8098 33.5786 28.778 33.5636C26.6343 32.5539 24.6244 31.153 23.0096 30.0274C22.4475 29.6356 21.9166 29.2656 21.4597 28.9693C19.6042 27.7655 17.5543 28.0877 15.7937 28.5617L9.10225 30.3634L8.82725 29.3007C8.69512 28.7904 8.37119 28.3614 7.91504 28.0927C7.45879 27.8242 6.92647 27.7491 6.41621 27.881L3.87842 28.5377C2.82236 28.811 2.18535 29.8925 2.45859 30.9487L5.87012 44.1321C6.00215 44.6424 6.32607 45.0714 6.78232 45.3401C7.0916 45.5222 7.43574 45.6155 7.78447 45.6154C7.9501 45.6154 8.1167 45.5944 8.28105 45.5519L10.8189 44.8952C11.3293 44.763 11.7582 44.4392 12.0269 43.983C12.2955 43.5267 12.3707 42.9945 12.2387 42.4842L11.9018 41.1823L13.3588 40.7918L22.6746 46.1704C23.6871 46.755 24.7661 47.0504 25.8615 47.0504C26.4658 47.0504 27.0753 46.9605 27.6812 46.7797L44.2861 41.8222C45.8294 41.3616 46.8011 39.4208 46.3246 37.7504C46.0937 36.9405 44.9356 34.408 39.7335 35.8233ZM10.6805 43.1902C10.6476 43.246 10.5709 43.3454 10.4275 43.3825L7.88965 44.0392C7.746 44.0762 7.63105 44.0266 7.5751 43.9937C7.51914 43.9608 7.41992 43.8841 7.38281 43.7408L3.97139 30.5573C3.91494 30.339 4.05156 30.1069 4.26992 30.0503L6.80771 29.3936C6.84114 29.3849 6.87553 29.3805 6.91006 29.3804C7.00537 29.3804 7.08047 29.4145 7.12236 29.4391C7.17822 29.472 7.27754 29.5487 7.31465 29.6919L10.7261 42.8755C10.7631 43.0191 10.7134 43.1342 10.6805 43.1902ZM25.9407 39.0116L26.875 39.4322C28.2862 40.0631 29.6566 40.1837 31.0636 39.8011L40.1436 37.331C42.7216 36.6298 44.4705 36.9467 44.822 38.1791C45.0633 39.0248 44.5673 40.1078 43.8393 40.3251L27.2342 45.2826C25.9337 45.6707 24.6624 45.5141 23.456 44.8173L13.8598 39.277C13.7709 39.2257 13.6729 39.1924 13.5711 39.179C13.4694 39.1656 13.3661 39.1724 13.267 39.199L11.5104 39.6697L9.49375 31.8762L16.2001 30.0705C17.6997 29.6666 19.2721 29.4125 20.6094 30.2801C21.0445 30.5624 21.5411 30.9084 22.1161 31.3092C23.7664 32.4595 25.8171 33.8889 28.06 34.9525C28.7747 35.4419 29.0118 36.3221 28.6096 37.0189C28.0806 37.9352 27.2217 37.8377 26.5832 37.5864C25.4927 37.0397 24.4789 36.4324 23.4062 35.7894C22.8966 35.4839 22.3696 35.168 21.825 34.8536C21.7362 34.8022 21.6381 34.7689 21.5364 34.7555C21.4346 34.7421 21.3313 34.7489 21.2322 34.7754C21.1331 34.802 21.0402 34.8478 20.9588 34.9103C20.8774 34.9727 20.8091 35.0506 20.7578 35.1395C20.6542 35.3189 20.6261 35.5322 20.6798 35.7323C20.7334 35.9324 20.8643 36.1031 21.0438 36.2067C21.5773 36.5147 22.0987 36.8272 22.6029 37.1295M6.83975 31.7181C6.821 31.8781 6.75522 32.029 6.65073 32.1516C6.54624 32.2742 6.40774 32.3631 6.25273 32.407C6.09772 32.4509 5.93318 32.4479 5.7799 32.3983C5.62662 32.3487 5.4915 32.2547 5.39162 32.1283C5.29174 32.0019 5.23158 31.8487 5.21876 31.6881C5.20594 31.5275 5.24103 31.3667 5.3196 31.2261C5.39816 31.0854 5.51667 30.9713 5.66013 30.898C5.8036 30.8247 5.96558 30.7955 6.12559 30.8143C6.23183 30.8268 6.33458 30.86 6.42797 30.9122C6.52136 30.9643 6.60356 31.0344 6.66987 31.1183C6.73619 31.2022 6.78533 31.2984 6.81447 31.4013C6.84362 31.5042 6.85221 31.6119 6.83975 31.7181ZM3.11211 16.8311L2.62471 17.9286C2.56062 18.0728 2.54175 18.2332 2.57058 18.3884C2.59942 18.5436 2.6746 18.6865 2.78623 18.7981L4.51016 20.522C4.62179 20.6337 4.76463 20.7089 4.91985 20.7377C5.07507 20.7666 5.23539 20.7477 5.37969 20.6836L6.47773 20.1959C7.02091 20.4949 7.59537 20.733 8.19072 20.9061L8.62188 22.0264C8.67859 22.1738 8.77862 22.3005 8.90877 22.3898C9.03893 22.4792 9.1931 22.527 9.35098 22.527H11.7891C11.9469 22.527 12.1011 22.4792 12.2313 22.3898C12.3614 22.3005 12.4614 22.1738 12.5182 22.0264L12.9492 20.9065C13.5448 20.7334 14.1195 20.4952 14.6629 20.1961L15.7603 20.6835C15.9045 20.7476 16.0649 20.7665 16.2201 20.7377C16.3753 20.7088 16.5181 20.6337 16.6298 20.522L18.3537 18.798C18.4653 18.6864 18.5405 18.5435 18.5694 18.3883C18.5982 18.2331 18.5793 18.0728 18.5152 17.9285L18.0276 16.8305C18.3265 16.2873 18.5646 15.7129 18.7378 15.1175L19.8581 14.6863C20.0055 14.6296 20.1322 14.5296 20.2216 14.3994C20.311 14.2693 20.3588 14.1151 20.3588 13.9572V11.5192C20.3588 11.3613 20.311 11.2071 20.2216 11.077C20.1322 10.9468 20.0055 10.8468 19.8582 10.7901L18.7382 10.3589C18.565 9.76339 18.3268 9.18873 18.0278 8.64536L18.5152 7.5479C18.5793 7.40362 18.5982 7.2433 18.5694 7.08808C18.5405 6.93286 18.4653 6.79001 18.3537 6.67837L16.6299 4.95454C16.5183 4.8429 16.3754 4.76769 16.2202 4.73884C16.065 4.70999 15.9046 4.72884 15.7604 4.79292L14.6624 5.28052C14.1192 4.98161 13.5448 4.74346 12.9494 4.57036L12.5183 3.45005C12.4615 3.30271 12.3615 3.17601 12.2314 3.08665C12.1012 2.99729 11.947 2.94946 11.7892 2.94946H9.35107C9.1932 2.94946 9.03902 2.99729 8.90887 3.08665C8.77872 3.17601 8.67869 3.30271 8.62197 3.45005L8.19072 4.57036C7.59539 4.74353 7.02093 4.98172 6.47773 5.28062L5.37979 4.79292C5.23549 4.72884 5.07517 4.70999 4.91995 4.73884C4.76472 4.76769 4.62189 4.8429 4.51025 4.95454L2.78623 6.67856C2.6746 6.79021 2.59942 6.93305 2.57058 7.08827C2.54175 7.2435 2.56062 7.40381 2.62471 7.5481L3.1123 8.64585C2.81338 9.18907 2.57519 9.76356 2.40205 10.3589L1.28184 10.7902C1.1345 10.8469 1.0078 10.9469 0.918441 11.0771C0.82908 11.2072 0.781249 11.3614 0.78125 11.5193V13.9574C0.781249 14.1153 0.82908 14.2694 0.918441 14.3996C1.0078 14.5297 1.1345 14.6298 1.28184 14.6865L2.40176 15.1175C2.57497 15.713 2.81319 16.2877 3.11211 16.8311ZM2.34375 12.0556L3.33574 11.6738C3.45416 11.6282 3.55969 11.5544 3.64321 11.4589C3.72674 11.3634 3.78574 11.249 3.81514 11.1255C3.98507 10.4111 4.2681 9.72839 4.65352 9.10327C4.72007 8.99521 4.75929 8.87256 4.7678 8.74593C4.77631 8.6193 4.75384 8.49251 4.70234 8.37651L4.27041 7.40415L5.23574 6.43882L6.2083 6.87075C6.32428 6.92224 6.45105 6.94471 6.57765 6.93622C6.70426 6.92772 6.8269 6.88853 6.93496 6.82202C7.56012 6.43661 8.24285 6.15355 8.95732 5.98354C9.08075 5.95415 9.19516 5.89515 9.29067 5.81162C9.38617 5.72809 9.4599 5.62256 9.50547 5.50415L9.8874 4.51206H11.2525L11.6344 5.50415C11.6799 5.62256 11.7537 5.72809 11.8492 5.81162C11.9447 5.89515 12.0591 5.95415 12.1825 5.98354C12.897 6.15356 13.5797 6.43659 14.2049 6.82192C14.3129 6.88845 14.4356 6.92766 14.5622 6.93617C14.6888 6.94468 14.8156 6.92222 14.9315 6.87075L15.9041 6.43882L16.8694 7.40415L16.4377 8.37622C16.3862 8.49222 16.3637 8.61901 16.3722 8.74564C16.3807 8.87226 16.42 8.99491 16.4865 9.10298C16.872 9.72824 17.1551 10.4111 17.325 11.1257C17.3544 11.2492 17.4134 11.3636 17.4969 11.4592C17.5804 11.5547 17.686 11.6285 17.8044 11.6741L18.7962 12.0558V13.4209L17.804 13.8028C17.6856 13.8484 17.58 13.9221 17.4965 14.0177C17.413 14.1132 17.354 14.2277 17.3246 14.3511C17.1547 15.0656 16.8716 15.7483 16.4862 16.3734C16.4197 16.4815 16.3805 16.6041 16.372 16.7307C16.3635 16.8573 16.386 16.9841 16.4375 17.1L16.8694 18.0725L15.9041 19.0379L14.932 18.6062C14.816 18.5547 14.6892 18.5322 14.5626 18.5407C14.436 18.5492 14.3133 18.5884 14.2053 18.655C13.58 19.0405 12.8971 19.3236 12.1825 19.4935C12.0591 19.5229 11.9446 19.5819 11.8491 19.6654C11.7536 19.7489 11.6799 19.8545 11.6343 19.9729L11.2525 20.9646H9.8874L9.50557 19.9725C9.45999 19.8541 9.38625 19.7485 9.29072 19.665C9.1952 19.5815 9.08077 19.5225 8.95732 19.4931C8.2429 19.3231 7.56021 19.0401 6.93506 18.6547C6.827 18.5882 6.70437 18.549 6.57776 18.5405C6.45116 18.532 6.32439 18.5544 6.2084 18.6059L5.23574 19.0378L4.27041 18.0724L4.70215 17.1003C4.75364 16.9843 4.77611 16.8576 4.7676 16.7309C4.75909 16.6043 4.71987 16.4816 4.65332 16.3736C4.26788 15.7482 3.98479 15.0654 3.81475 14.3507C3.78541 14.2273 3.72643 14.1128 3.64292 14.0173C3.55941 13.9218 3.45387 13.8481 3.33545 13.8025L2.34375 13.4209V12.0556ZM10.57 17.7714C13.3453 17.7714 15.6032 15.5136 15.6032 12.7383C15.6032 9.96304 13.3453 7.70503 10.57 7.70503C7.79473 7.70503 5.53682 9.96294 5.53682 12.7383C5.53682 15.5136 7.79473 17.7714 10.57 17.7714ZM10.57 9.26763C12.4838 9.26763 14.0407 10.8246 14.0407 12.7384C14.0407 14.6521 12.4838 16.209 10.57 16.209C8.65625 16.209 7.09932 14.6521 7.09932 12.7384C7.09932 10.8246 8.65635 9.26763 10.57 9.26763Z" fill="#4185DD"/>
</svg>
