<svg width="512" height="512" viewBox="0 0 512 512" fill="none" xmlns="http://www.w3.org/2000/svg">
<path fill-rule="evenodd" clip-rule="evenodd" d="M288 424H273.232C241.632 424 216 398.496 216 367.112C216 335.728 241.632 310.224 273.232 310.224C273.952 310.224 274.672 310.232 275.392 310.264C275.183 308.033 275.079 305.793 275.08 303.552C275.08 264.08 307.32 232 347.08 232C385.904 232 417.576 262.6 419.024 300.816C421.264 300.568 423.544 300.448 425.848 300.448C460.168 300.448 488 328.144 488 362.224C488 396.304 460.168 424 425.848 424H416V480C416 482.122 415.157 484.157 413.657 485.657C412.157 487.157 410.122 488 408 488H296C293.878 488 291.843 487.157 290.343 485.657C288.843 484.157 288 482.122 288 480V424ZM416 408H425.848C451.304 408 472 387.504 472 362.224C472 336.944 451.304 316.448 425.848 316.448C421.36 316.448 417.016 317.08 412.912 318.264C411.649 318.629 410.316 318.678 409.03 318.406C407.743 318.133 406.544 317.548 405.538 316.701C404.532 315.855 403.75 314.774 403.261 313.553C402.773 312.333 402.592 311.011 402.736 309.704C402.964 307.661 403.079 305.607 403.08 303.552C403.08 272.88 377.968 248 347.08 248C316.184 248 291.08 272.88 291.08 303.552C291.08 308.416 291.704 313.136 292.888 317.632C293.246 318.975 293.247 320.388 292.891 321.731C292.536 323.074 291.836 324.301 290.86 325.291C289.885 326.281 288.668 326.999 287.33 327.375C285.993 327.75 284.58 327.77 283.232 327.432C279.96 326.626 276.602 326.22 273.232 326.224C250.488 326.224 232 344.528 232 367.112C232 389.696 250.488 408 273.232 408H288V352C288 349.878 288.843 347.843 290.343 346.343C291.843 344.843 293.878 344 296 344H344C346.122 344 348.157 344.843 349.657 346.343C351.157 347.843 352 349.878 352 352C352 354.122 351.157 356.157 349.657 357.657C348.157 359.157 346.122 360 344 360H304V408H400V360H376C373.878 360 371.843 359.157 370.343 357.657C368.843 356.157 368 354.122 368 352C368 349.878 368.843 347.843 370.343 346.343C371.843 344.843 373.878 344 376 344H408C410.122 344 412.157 344.843 413.657 346.343C415.157 347.843 416 349.878 416 352V408ZM304 424V472H400V424H304ZM336 456C333.878 456 331.843 455.157 330.343 453.657C328.843 452.157 328 450.122 328 448C328 445.878 328.843 443.843 330.343 442.343C331.843 440.843 333.878 440 336 440H368C370.122 440 372.157 440.843 373.657 442.343C375.157 443.843 376 445.878 376 448C376 450.122 375.157 452.157 373.657 453.657C372.157 455.157 370.122 456 368 456H336ZM336 392C333.878 392 331.843 391.157 330.343 389.657C328.843 388.157 328 386.122 328 384C328 381.878 328.843 379.843 330.343 378.343C331.843 376.843 333.878 376 336 376H368C370.122 376 372.157 376.843 373.657 378.343C375.157 379.843 376 381.878 376 384C376 386.122 375.157 388.157 373.657 389.657C372.157 391.157 370.122 392 368 392H336ZM96 256H81.232C49.632 256 24 230.496 24 199.112C24 167.728 49.632 142.224 81.232 142.224C81.952 142.224 82.672 142.232 83.392 142.264C83.183 140.033 83.0789 137.793 83.08 135.552C83.08 96.0799 115.32 63.9999 155.08 63.9999C194.24 63.9999 226.12 95.1359 227.056 133.808C228.689 134.432 230.074 135.573 230.998 137.057C231.922 138.541 232.335 140.287 232.173 142.028C232.012 143.769 231.285 145.41 230.104 146.699C228.923 147.988 227.352 148.855 225.632 149.168C224.041 149.455 222.466 149.821 220.912 150.264C219.649 150.629 218.316 150.678 217.03 150.405C215.743 150.133 214.544 149.548 213.538 148.701C212.532 147.855 211.75 146.774 211.261 145.553C210.773 144.333 210.592 143.011 210.736 141.704C210.964 139.661 211.079 137.607 211.08 135.552C211.08 104.88 185.968 79.9999 155.08 79.9999C124.184 79.9999 99.08 104.88 99.08 135.552C99.08 140.416 99.704 145.136 100.888 149.632C101.246 150.975 101.247 152.388 100.891 153.731C100.536 155.074 99.8356 156.301 98.8603 157.291C97.885 158.281 96.6683 158.999 95.3305 159.375C93.9926 159.75 92.5799 159.77 91.232 159.432C87.9599 158.626 84.602 158.22 81.232 158.224C58.488 158.224 40 176.528 40 199.112C40 221.696 58.488 240 81.232 240H96V184C96 181.878 96.8429 179.843 98.3431 178.343C99.8434 176.843 101.878 176 104 176H216C218.122 176 220.157 176.843 221.657 178.343C223.157 179.843 224 181.878 224 184V240H233.848C259.296 240 280 219.504 280 194.224C280 175.608 268.776 159.592 252.704 152.432C251.744 152.004 250.878 151.392 250.155 150.63C249.432 149.867 248.866 148.97 248.49 147.989C247.73 146.008 247.788 143.806 248.652 141.868C249.516 139.93 251.114 138.414 253.095 137.654C254.076 137.278 255.121 137.098 256.172 137.126C257.222 137.154 258.256 137.388 259.216 137.816C280.896 147.472 296 169.112 296 194.224C296 228.304 268.168 256 233.848 256H224V312C224 314.122 223.157 316.157 221.657 317.657C220.157 319.157 218.122 320 216 320H104C101.878 320 99.8434 319.157 98.3431 317.657C96.8429 316.157 96 314.122 96 312V256ZM208 240V192H112V240H208ZM112 256V304H208V256H112ZM144 288C141.878 288 139.843 287.157 138.343 285.657C136.843 284.157 136 282.122 136 280C136 277.878 136.843 275.843 138.343 274.343C139.843 272.843 141.878 272 144 272H176C178.122 272 180.157 272.843 181.657 274.343C183.157 275.843 184 277.878 184 280C184 282.122 183.157 284.157 181.657 285.657C180.157 287.157 178.122 288 176 288H144ZM144 224C141.878 224 139.843 223.157 138.343 221.657C136.843 220.157 136 218.122 136 216C136 213.878 136.843 211.843 138.343 210.343C139.843 208.843 141.878 208 144 208H176C178.122 208 180.157 208.843 181.657 210.343C183.157 211.843 184 213.878 184 216C184 218.122 183.157 220.157 181.657 221.657C180.157 223.157 178.122 224 176 224H144ZM484.312 207.872L431.672 241.536C430.685 242.17 429.571 242.579 428.408 242.733C427.245 242.888 426.063 242.784 424.945 242.429C423.826 242.075 422.8 241.479 421.939 240.683C421.077 239.887 420.402 238.911 419.96 237.824L396.336 179.976C395.762 178.568 395.601 177.026 395.871 175.53C396.142 174.035 396.833 172.647 397.864 171.529C398.894 170.412 400.222 169.612 401.692 169.222C403.161 168.832 404.711 168.869 406.16 169.328L418.528 173.248C419.076 163.131 418.015 152.992 415.384 143.208C407.16 112.656 384.04 86.7839 351.664 76.5199C319.216 66.2239 285.32 74.1119 260.984 94.4559C259.404 95.7745 257.378 96.4337 255.325 96.2966C253.272 96.1596 251.35 95.2367 249.96 93.7199L228.312 70.1199C227.586 69.328 227.028 68.398 226.669 67.3854C226.311 66.3729 226.16 65.2986 226.226 64.2265C226.291 63.1544 226.572 62.1066 227.052 61.1454C227.531 60.1842 228.199 59.3294 229.016 58.6319C265.592 27.3999 316.992 15.1679 366.168 30.7599C421.784 48.3919 459.208 96.7359 465.672 151.168C467.135 163.435 466.998 175.84 465.264 188.072L482.416 193.512C483.869 193.966 485.162 194.827 486.142 195.992C487.122 197.157 487.748 198.577 487.948 200.087C488.147 201.596 487.911 203.131 487.266 204.51C486.622 205.889 485.597 207.056 484.312 207.872ZM461.304 203.6L453.816 201.224C451.948 200.632 450.361 199.375 449.359 197.69C448.356 196.006 448.006 194.013 448.376 192.088C450.904 178.968 451.304 165.824 449.784 153.056C444.04 104.664 410.776 61.6879 361.336 46.0159C320.448 33.0479 277.832 41.7279 245.888 65.6159L256.76 77.4719C270.947 67.1351 287.368 60.2818 304.694 57.4662C322.02 54.6505 339.766 55.9515 356.496 61.2639C394.264 73.2399 421.24 103.416 430.832 139.056C434.871 154.048 435.732 169.719 433.36 185.064C433.178 186.202 432.754 187.288 432.115 188.248C431.477 189.207 430.639 190.018 429.659 190.625C428.679 191.232 427.58 191.621 426.437 191.766C425.293 191.911 424.132 191.808 423.032 191.464L417.608 189.744L431.136 222.888L461.304 203.6Z" fill="#4185DD"/>
</svg>
