<svg width="50" height="50" viewBox="0 0 50 50" fill="none" xmlns="http://www.w3.org/2000/svg">
<path d="M42.8234 37.2539C42.7554 37.1859 42.6746 37.1319 42.5857 37.0951C42.4968 37.0582 42.4016 37.0393 42.3053 37.0393C42.2091 37.0393 42.1138 37.0582 42.0249 37.0951C41.936 37.1319 41.8553 37.1859 41.7872 37.2539C41.7192 37.3219 41.6652 37.4027 41.6284 37.4916C41.5916 37.5805 41.5726 37.6758 41.5726 37.772C41.5726 37.8682 41.5916 37.9635 41.6284 38.0524C41.6652 38.1413 41.7192 38.2221 41.7872 38.2901L44.1944 40.6974C44.4027 40.9153 44.5265 41.3645 44.1944 41.7334L41.8967 44.0312C41.6108 44.3169 41.146 44.3169 40.8606 44.0312L33.9864 37.1572C35.2685 36.2311 36.3946 35.1062 37.3221 33.8251L39.4477 35.9507C39.5156 36.0188 39.5964 36.0728 39.6853 36.1096C39.7742 36.1464 39.8695 36.1653 39.9657 36.1652C40.1106 36.1652 40.2523 36.1222 40.3728 36.0417C40.4932 35.9612 40.5871 35.8468 40.6426 35.7129C40.698 35.579 40.7125 35.4317 40.6843 35.2896C40.656 35.1475 40.5862 35.0169 40.4838 34.9144L38.1389 32.5695C41.4572 26.8569 40.6739 19.3976 35.7871 14.5106C29.9661 8.68955 20.4947 8.68975 14.6737 14.5106C11.91 17.2745 10.3575 20.9484 10.3025 24.8559C10.2476 28.7552 11.6876 32.4636 14.3572 35.2979C14.4907 35.4383 14.6744 35.5201 14.8681 35.5255C15.0618 35.5308 15.2497 35.4593 15.3907 35.3264C15.5317 35.1936 15.6144 35.0102 15.6207 34.8166C15.6269 34.6229 15.5561 34.4347 15.4239 34.2931C10.4029 28.9624 10.5285 20.7279 15.71 15.5468C20.9597 10.297 29.5015 10.297 34.7509 15.5468C40.0005 20.7964 40.0005 29.3382 34.7509 34.5877C30.3315 39.0071 23.299 39.7892 18.0292 36.4473C17.8652 36.3476 17.6686 36.3163 17.4818 36.36C17.2949 36.4037 17.1326 36.519 17.0299 36.6811C16.9271 36.8432 16.892 37.0391 16.9321 37.2268C16.9722 37.4144 17.0844 37.5789 17.2444 37.6848C19.6276 39.196 22.4196 39.9957 25.2433 39.9957C25.7592 39.9957 26.2763 39.9689 26.792 39.9151C28.8925 39.6954 30.9185 39.0256 32.7303 37.9734L39.8241 45.0672C40.2526 45.4956 40.8154 45.7099 41.3782 45.7098C41.941 45.7098 42.504 45.4955 42.9325 45.0672L45.2304 42.7693C46.0873 41.9123 46.0873 40.518 45.2304 39.6609L42.8234 37.2539Z" fill="#4185DD"/>
<path d="M30.1484 20.875C30.2266 20.6971 30.231 20.4955 30.1605 20.3144C30.0901 20.1333 29.9506 19.9876 29.7727 19.9094C28.2386 19.2346 26.7143 18.8925 25.2425 18.8925C20.9716 18.8925 17.3208 21.7527 15.5248 23.4578C15.0666 23.8927 14.8039 24.5049 14.8039 25.1372C14.8039 25.7695 15.0666 26.3815 15.5248 26.8166C17.3208 28.5216 20.9716 31.3819 25.2425 31.3819C29.5135 31.3819 33.1641 28.5217 34.9602 26.8166C35.4184 26.3816 35.6811 25.7695 35.6811 25.1372C35.6811 24.5049 35.4184 23.8928 34.9601 23.4578C34.3231 22.8524 33.6487 22.2875 32.9409 21.7665C32.7842 21.6539 32.5893 21.6077 32.3987 21.6379C32.2081 21.6681 32.0371 21.7723 31.9229 21.9279C31.8087 22.0834 31.7604 22.2778 31.7886 22.4687C31.8168 22.6596 31.9192 22.8317 32.0735 22.9475C32.7317 23.4321 33.3589 23.9574 33.9514 24.5205C34.1221 24.6824 34.2159 24.9014 34.2159 25.1371C34.2159 25.3727 34.1221 25.5919 33.9514 25.7537C32.3138 27.3084 29.0047 29.9164 25.2425 29.9164C21.4805 29.9164 18.1713 27.3084 16.5337 25.7537C16.3631 25.5918 16.2691 25.3727 16.2691 25.1371C16.2691 24.9014 16.3631 24.6823 16.5337 24.5205C18.1713 22.9658 21.4804 20.3578 25.2425 20.3578C26.51 20.3578 27.8357 20.6582 29.1828 21.2507C29.2709 21.2894 29.3657 21.3105 29.4619 21.3126C29.5581 21.3147 29.6538 21.2978 29.7435 21.2629C29.8331 21.228 29.9151 21.1758 29.9845 21.1092C30.054 21.0427 30.1097 20.9631 30.1484 20.875Z" fill="#4185DD"/>
<path d="M21.6472 25.1371C21.6472 27.1195 23.2601 28.7324 25.2425 28.7324C27.225 28.7324 28.8379 27.1195 28.8379 25.1371C28.8379 23.1545 27.225 21.5417 25.2425 21.5417C23.2601 21.5417 21.6472 23.1545 21.6472 25.1371ZM27.3727 25.1371C27.3727 26.3116 26.4171 27.267 25.2426 27.267C24.0681 27.267 23.1126 26.3116 23.1126 25.1371C23.1126 23.9626 24.0681 23.007 25.2426 23.007C26.417 23.007 27.3727 23.9626 27.3727 25.1371ZM37.9137 11.9523C38.1012 11.9523 38.2887 11.8807 38.4317 11.7377L41.6286 8.54077L43.0089 9.92105C43.4348 10.3466 44.1276 10.3466 44.554 9.92095L48.431 6.04399V7.02759C48.431 7.43228 48.7589 7.7602 49.1636 7.7602C49.5683 7.7602 49.8962 7.43228 49.8962 7.02759V4.31313C49.8962 4.21692 49.8773 4.12165 49.8405 4.03276C49.8036 3.94387 49.7497 3.8631 49.6816 3.79507C49.6136 3.72704 49.5328 3.67307 49.444 3.63626C49.3551 3.59945 49.2598 3.5805 49.1636 3.58052H46.4491C46.0444 3.58052 45.7165 3.90845 45.7165 4.31313C45.7165 4.71782 46.0444 5.04575 46.4491 5.04575H47.3566L43.7813 8.62124L42.4011 7.24097C41.975 6.81509 41.2819 6.81519 40.856 7.24106L37.3955 10.7015C37.293 10.804 37.2233 10.9345 37.195 11.0767C37.1667 11.2188 37.1813 11.3661 37.2367 11.5C37.2922 11.6339 37.3861 11.7483 37.5066 11.8288C37.6271 11.9093 37.7688 11.9523 37.9137 11.9523ZM3.86465 9.95171C5.94492 9.95171 7.6375 8.25923 7.6375 6.17886C7.6375 4.09849 5.94492 2.40601 3.86465 2.40601C1.78438 2.40601 0.0917969 4.09849 0.0917969 6.17886C0.0917969 8.25923 1.78428 9.95171 3.86465 9.95171ZM3.86465 3.87134C5.13701 3.87134 6.17217 4.90649 6.17217 6.17886C6.17217 7.45122 5.13701 8.48638 3.86465 8.48638C2.59229 8.48638 1.55703 7.45122 1.55703 6.17886C1.55703 4.90649 2.59219 3.87134 3.86465 3.87134ZM3.97666 12.4633C1.89639 12.4633 0.203809 14.1558 0.203809 16.2362C0.203809 18.3166 1.89629 20.009 3.97666 20.009C6.05703 20.009 7.74951 18.3166 7.74951 16.2362C7.74951 14.1558 6.05703 12.4633 3.97666 12.4633ZM3.97666 18.5437C2.7043 18.5437 1.66914 17.5085 1.66914 16.2362C1.66914 14.9638 2.7043 13.9287 3.97666 13.9287C5.24902 13.9287 6.28418 14.9638 6.28418 16.2362C6.28428 17.5085 5.24912 18.5437 3.97666 18.5437ZM3.97666 22.403C1.89639 22.403 0.203809 24.0955 0.203809 26.1758C0.203809 28.2562 1.89629 29.9487 3.97666 29.9487C6.05703 29.9487 7.74951 28.2562 7.74951 26.1758C7.74951 24.0955 6.05703 22.403 3.97666 22.403ZM3.97666 28.4834C2.7043 28.4834 1.66914 27.4482 1.66914 26.1758C1.66914 24.9035 2.7043 23.8683 3.97666 23.8683C5.24902 23.8683 6.28418 24.9035 6.28418 26.1758C6.28428 27.4482 5.24912 28.4834 3.97666 28.4834ZM10.6142 5.04058H17.098C17.5027 5.04058 17.8307 4.71265 17.8307 4.30796C17.8307 3.90327 17.5027 3.57534 17.098 3.57534H10.6142C10.2095 3.57534 9.88154 3.90327 9.88154 4.30796C9.88154 4.71265 10.2096 5.04058 10.6142 5.04058ZM10.6142 8.16274H13.8562C14.2608 8.16274 14.5888 7.83481 14.5888 7.43013C14.5888 7.02544 14.2608 6.69751 13.8562 6.69751H10.6142C10.4199 6.69751 10.2335 6.7747 10.0961 6.91209C9.95873 7.04948 9.88154 7.23582 9.88154 7.43013C9.88154 7.62443 9.95873 7.81077 10.0961 7.94817C10.2335 8.08556 10.4199 8.16274 10.6142 8.16274ZM49.2674 13.9429H45.6896C45.285 13.9429 44.957 14.2708 44.957 14.6755C44.957 15.0802 45.285 15.4082 45.6896 15.4082H49.2674C49.6721 15.4082 50 15.0802 50 14.6755C50 14.2708 49.6721 13.9429 49.2674 13.9429Z" fill="#4185DD"/>
<path d="M42.9728 15.5084C43.4222 15.5084 43.7865 15.1441 43.7865 14.6946C43.7865 14.2452 43.4222 13.8809 42.9728 13.8809C42.5233 13.8809 42.159 14.2452 42.159 14.6946C42.159 15.1441 42.5233 15.5084 42.9728 15.5084Z" fill="#4185DD"/>
<path d="M49.2674 16.9293H45.6896C45.285 16.9293 44.957 17.2573 44.957 17.6619C44.957 18.0666 45.285 18.3946 45.6896 18.3946H49.2674C49.6721 18.3946 50 18.0666 50 17.6619C50 17.2573 49.6721 16.9293 49.2674 16.9293Z" fill="#4185DD"/>
<path d="M42.9728 18.4947C43.4222 18.4947 43.7865 18.1304 43.7865 17.681C43.7865 17.2315 43.4222 16.8672 42.9728 16.8672C42.5233 16.8672 42.159 17.2315 42.159 17.681C42.159 18.1304 42.5233 18.4947 42.9728 18.4947Z" fill="#4185DD"/>
<path d="M29.9011 43.0421H26.3233C25.9186 43.0421 25.5907 43.37 25.5907 43.7747C25.5907 44.1794 25.9186 44.5073 26.3233 44.5073H29.9011C29.9973 44.5073 30.0925 44.4884 30.1814 44.4516C30.2703 44.4148 30.3511 44.3608 30.4191 44.2928C30.4872 44.2247 30.5411 44.144 30.5779 44.0551C30.6148 43.9662 30.6337 43.8709 30.6337 43.7747C30.6337 43.5804 30.5565 43.3941 30.4191 43.2567C30.2817 43.1193 30.0954 43.0421 29.9011 43.0421ZM23.6064 42.98C23.3906 42.98 23.1836 43.0657 23.031 43.2183C22.8784 43.3709 22.7927 43.5779 22.7927 43.7938C22.7927 44.0096 22.8784 44.2166 23.031 44.3692C23.1836 44.5218 23.3906 44.6075 23.6064 44.6075C23.8223 44.6075 24.0292 44.5218 24.1819 44.3692C24.3345 44.2166 24.4202 44.0096 24.4202 43.7938C24.4202 43.5779 24.3345 43.3709 24.1819 43.2183C24.0292 43.0657 23.8223 42.98 23.6064 42.98ZM29.9011 46.0286H26.3233C25.9186 46.0286 25.5907 46.3565 25.5907 46.7612C25.5907 47.1659 25.9186 47.4938 26.3233 47.4938H29.9011C30.3058 47.4938 30.6337 47.1659 30.6337 46.7612C30.6337 46.3565 30.3058 46.0286 29.9011 46.0286Z" fill="#4185DD"/>
<path d="M23.6064 47.5941C24.0559 47.5941 24.4202 47.2298 24.4202 46.7803C24.4202 46.3309 24.0559 45.9666 23.6064 45.9666C23.157 45.9666 22.7927 46.3309 22.7927 46.7803C22.7927 47.2298 23.157 47.5941 23.6064 47.5941Z" fill="#4185DD"/>
<path d="M49.2674 19.922H45.6896C45.285 19.922 44.957 20.2499 44.957 20.6546C44.957 21.0593 45.285 21.3872 45.6896 21.3872H49.2674C49.6721 21.3872 50 21.0593 50 20.6546C50 20.2499 49.6721 19.922 49.2674 19.922ZM49.2674 22.9085H45.6896C45.285 22.9085 44.957 23.2364 44.957 23.6411C44.957 24.0458 45.285 24.3738 45.6896 24.3738H49.2674C49.6721 24.3738 50 24.0458 50 23.6411C50 23.2364 49.6721 22.9085 49.2674 22.9085Z" fill="#4185DD"/>
<path d="M42.9728 24.474C43.4222 24.474 43.7865 24.1096 43.7865 23.6602C43.7865 23.2108 43.4222 22.8464 42.9728 22.8464C42.5233 22.8464 42.159 23.2108 42.159 23.6602C42.159 24.1096 42.5233 24.474 42.9728 24.474Z" fill="#4185DD"/>
<path d="M49.2674 25.895H45.6896C45.285 25.895 44.957 26.2229 44.957 26.6276C44.957 27.0323 45.285 27.3603 45.6896 27.3603H49.2674C49.6721 27.3603 50 27.0323 50 26.6276C50 26.2229 49.6721 25.895 49.2674 25.895ZM49.2674 28.8814H45.6896C45.285 28.8814 44.957 29.2094 44.957 29.6141C44.957 30.0187 45.285 30.3467 45.6896 30.3467H49.2674C49.3636 30.3467 49.4589 30.3277 49.5478 30.2909C49.6366 30.2541 49.7174 30.2002 49.7855 30.1321C49.8535 30.0641 49.9074 29.9833 49.9443 29.8944C49.9811 29.8055 50 29.7103 50 29.6141C50 29.5179 49.9811 29.4226 49.9442 29.3337C49.9074 29.2448 49.8535 29.1641 49.7854 29.096C49.7174 29.028 49.6366 28.974 49.5477 28.9372C49.4589 28.9004 49.3636 28.8814 49.2674 28.8814ZM42.9728 28.8193C42.8659 28.8193 42.7601 28.8404 42.6613 28.8813C42.5626 28.9222 42.4729 28.9821 42.3973 29.0577C42.3218 29.1332 42.2618 29.223 42.2209 29.3217C42.18 29.4204 42.159 29.5262 42.159 29.6331C42.159 29.74 42.18 29.8458 42.2209 29.9445C42.2618 30.0433 42.3218 30.133 42.3973 30.2085C42.4729 30.2841 42.5626 30.344 42.6613 30.3849C42.7601 30.4258 42.8659 30.4469 42.9728 30.4469C43.1886 30.4469 43.3956 30.3611 43.5482 30.2085C43.7008 30.0559 43.7865 29.8489 43.7865 29.6331C43.7865 29.4173 43.7008 29.2103 43.5482 29.0577C43.3956 28.9051 43.1886 28.8193 42.9728 28.8193ZM19.7723 46.034H17.031V41.8451C17.031 41.2257 16.527 40.7217 15.9075 40.7217H13.2503C12.6309 40.7217 12.1269 41.2257 12.1269 41.8451V46.034H11.0822V39.2225C11.0822 38.603 10.5782 38.099 9.95879 38.099H7.30156C6.68213 38.099 6.17812 38.603 6.17812 39.2225V46.034H5.27598V43.7186C5.27598 43.0991 4.77197 42.5951 4.15254 42.5951H1.49531C0.875879 42.5951 0.371875 43.0991 0.371875 43.7186V46.1294C0.259003 46.1931 0.165092 46.2857 0.099752 46.3977C0.0344117 46.5097 -1.29871e-05 46.637 6.51102e-09 46.7666C-1.28209e-05 46.8628 0.0189281 46.9581 0.055741 47.047C0.092554 47.1359 0.146518 47.2166 0.21455 47.2847C0.282582 47.3527 0.363351 47.4067 0.452242 47.4435C0.541133 47.4803 0.636405 47.4992 0.732617 47.4992H19.7723C20.177 47.4992 20.5049 47.1713 20.5049 46.7666C20.5049 46.3619 20.177 46.034 19.7723 46.034ZM13.5922 42.187H15.5656V46.034H13.5922V42.187ZM7.64355 39.5644H9.61699V46.034H7.64355V39.5644ZM1.83721 44.0604H3.81074V46.0339H1.83721V44.0604Z" fill="#4185DD"/>
</svg>
