<svg width="512" height="512" viewBox="0 0 512 512" fill="none" xmlns="http://www.w3.org/2000/svg">
<path d="M257.941 260.645C255.819 260.645 253.784 261.488 252.284 262.988C250.784 264.488 249.941 266.523 249.941 268.645V365.463C249.941 367.585 250.784 369.62 252.284 371.12C253.784 372.62 255.819 373.463 257.941 373.463H288.1C290.222 373.463 292.257 372.62 293.757 371.12C295.257 369.62 296.1 367.585 296.1 365.463V268.645C296.1 266.523 295.257 264.488 293.757 262.988C292.257 261.488 290.222 260.645 288.1 260.645H257.941ZM280.101 357.463H265.942V276.645H280.101V357.463ZM201.941 286.22C199.819 286.22 197.784 287.063 196.284 288.563C194.784 290.063 193.941 292.098 193.941 294.22V365.463C193.941 367.585 194.784 369.62 196.284 371.12C197.784 372.62 199.819 373.463 201.941 373.463H232.1C234.222 373.463 236.257 372.62 237.757 371.12C239.257 369.62 240.1 367.585 240.1 365.463V294.22C240.1 292.098 239.257 290.063 237.757 288.563C236.257 287.063 234.222 286.22 232.1 286.22H201.941ZM224.101 357.463H209.942V302.22H224.101V357.463ZM352.1 365.463V245.637C352.1 243.515 351.257 241.48 349.757 239.98C348.257 238.48 346.222 237.637 344.1 237.637H313.94C311.818 237.637 309.783 238.48 308.283 239.98C306.783 241.48 305.94 243.515 305.94 245.637V365.463C305.94 367.585 306.783 369.62 308.283 371.12C309.783 372.62 311.818 373.463 313.94 373.463H344.1C346.222 373.463 348.257 372.62 349.757 371.12C351.257 369.62 352.1 367.585 352.1 365.463ZM336.1 357.463H321.94V253.637H336.1V357.463ZM299.593 187.006L323.691 188.673C324.873 188.755 326.022 189.098 327.055 189.678C328.088 190.257 328.979 191.059 329.665 192.026C330.35 192.992 330.812 194.098 331.018 195.265C331.224 196.432 331.168 197.63 330.854 198.772L324.459 222.065C323.995 223.754 322.989 225.245 321.597 226.308C320.204 227.371 318.501 227.947 316.749 227.949C316.032 227.949 315.318 227.852 314.626 227.661C312.58 227.099 310.841 225.748 309.791 223.904C308.742 222.06 308.467 219.875 309.029 217.829L309.632 215.633C280.163 235.141 248.533 252.547 215.326 267.498C214.296 267.964 213.178 268.205 212.047 268.206C210.216 268.207 208.44 267.58 207.016 266.43C205.592 265.28 204.605 263.677 204.22 261.887C203.835 260.097 204.076 258.229 204.901 256.595C205.727 254.962 207.089 253.66 208.758 252.909C240.753 238.503 271.24 221.775 299.666 203.048L298.489 202.967C297.433 202.905 296.4 202.634 295.45 202.171C294.499 201.707 293.65 201.059 292.952 200.265C292.253 199.471 291.719 198.546 291.38 197.545C291.041 196.543 290.904 195.484 290.977 194.429C291.05 193.374 291.332 192.344 291.805 191.398C292.279 190.452 292.935 189.61 293.736 188.92C294.538 188.23 295.468 187.705 296.473 187.376C297.478 187.048 298.539 186.922 299.593 187.006ZM167.481 104.442L175.516 107.534C176.811 111.781 178.515 115.891 180.604 119.809L177.107 127.683C176.451 129.16 176.258 130.802 176.553 132.392C176.848 133.981 177.618 135.444 178.761 136.587L192.411 150.237C193.554 151.38 195.017 152.15 196.606 152.446C198.196 152.741 199.837 152.548 201.315 151.892L209.193 148.393C213.109 150.481 217.219 152.185 221.464 153.48L224.559 161.519C225.14 163.028 226.164 164.325 227.497 165.24C228.83 166.155 230.408 166.645 232.025 166.645H251.33C252.947 166.645 254.525 166.155 255.858 165.24C257.191 164.325 258.215 163.028 258.796 161.519L261.889 153.484C266.135 152.188 270.246 150.484 274.164 148.395L282.038 151.892C283.515 152.548 285.157 152.742 286.747 152.446C288.336 152.151 289.799 151.381 290.942 150.238L304.592 136.588C305.735 135.445 306.505 133.982 306.8 132.393C307.095 130.803 306.902 129.161 306.246 127.684L302.747 119.806C304.836 115.89 306.54 111.781 307.835 107.536L315.874 104.442C317.383 103.861 318.68 102.837 319.595 101.504C320.51 100.171 321 98.5927 321 96.976V77.671C321 76.0543 320.51 74.4756 319.595 73.1428C318.68 71.81 317.383 70.7858 315.874 70.205L307.838 67.112C306.543 62.8653 304.838 58.7544 302.749 54.837L306.246 46.963C306.902 45.4855 307.095 43.8439 306.8 42.2544C306.505 40.6649 305.735 39.2022 304.592 38.059L290.942 24.408C289.799 23.2646 288.336 22.4944 286.747 22.1991C285.157 21.9039 283.515 22.0973 282.038 22.754L274.16 26.253C270.244 24.165 266.134 22.4614 261.889 21.166L258.795 13.128C258.215 11.6188 257.191 10.3209 255.858 9.40541C254.526 8.48994 252.947 7.99993 251.33 8H232.025C230.408 7.99999 228.83 8.48978 227.497 9.40483C226.164 10.3199 225.14 11.6173 224.559 13.126L221.464 21.165C217.219 22.4605 213.11 24.1641 209.193 26.252L201.315 22.753C199.838 22.0967 198.196 21.9035 196.606 22.1988C195.017 22.494 193.554 23.2639 192.411 24.407L178.761 38.058C177.618 39.2012 176.848 40.6639 176.553 42.2534C176.258 43.8429 176.451 45.4845 177.107 46.962L180.605 54.839C178.516 58.7556 176.812 62.8655 175.517 67.111L167.48 70.205C165.971 70.7858 164.674 71.81 163.759 73.1428C162.844 74.4756 162.354 76.0543 162.354 77.671V96.976C162.354 98.5927 162.844 100.172 163.759 101.504C164.675 102.837 165.972 103.861 167.481 104.442ZM178.354 83.164L185.046 80.588C186.259 80.1211 187.339 79.3658 188.195 78.3875C189.05 77.4092 189.654 76.2372 189.955 74.973C191.256 69.504 193.423 64.2781 196.373 59.493C197.054 58.3864 197.456 57.1305 197.543 55.8338C197.63 54.5372 197.4 53.2388 196.873 52.051L193.959 45.489L199.841 39.606L206.403 42.52C207.59 43.0477 208.889 43.2781 210.185 43.1911C211.482 43.1042 212.738 42.7025 213.844 42.021C218.629 39.0705 223.856 36.9039 229.325 35.603C230.589 35.3022 231.761 34.698 232.739 33.8427C233.717 32.9874 234.472 31.9066 234.939 30.694L237.518 24H245.837L248.413 30.693C248.88 31.9056 249.635 32.9864 250.613 33.8417C251.591 34.697 252.763 35.3012 254.027 35.602C259.496 36.903 264.723 39.0696 269.508 42.02C270.614 42.7015 271.87 43.1031 273.167 43.19C274.463 43.2769 275.762 43.0466 276.949 42.519L283.511 39.605L289.393 45.487L286.48 52.046C285.952 53.2337 285.722 54.5321 285.809 55.8289C285.896 57.1256 286.298 58.3815 286.98 59.488C289.931 64.2749 292.099 69.5024 293.401 74.973C293.701 76.2371 294.305 77.409 295.16 78.3872C296.016 79.3654 297.096 80.1204 298.309 80.587L304.999 83.162V91.481L298.306 94.057C297.094 94.5236 296.013 95.2785 295.158 96.2565C294.303 97.2345 293.699 98.4061 293.398 99.67C292.096 105.14 289.929 110.366 286.978 115.152C286.297 116.259 285.896 117.514 285.809 118.811C285.722 120.107 285.952 121.405 286.479 122.593L289.393 129.155L283.511 135.037L276.952 132.124C275.764 131.596 274.466 131.366 273.169 131.453C271.872 131.54 270.616 131.942 269.51 132.624C264.723 135.575 259.495 137.742 254.024 139.044C252.76 139.345 251.589 139.949 250.611 140.805C249.633 141.66 248.878 142.74 248.411 143.953L245.836 150.643H237.517L234.941 143.95C234.474 142.738 233.719 141.657 232.741 140.802C231.763 139.946 230.592 139.342 229.328 139.041C223.858 137.739 218.631 135.572 213.845 132.622C212.739 131.941 211.483 131.54 210.187 131.453C208.89 131.366 207.592 131.596 206.405 132.123L199.843 135.038L193.961 129.156L196.874 122.598C197.401 121.41 197.631 120.112 197.544 118.815C197.457 117.518 197.055 116.262 196.374 115.155C193.423 110.368 191.256 105.14 189.954 99.669C189.653 98.4049 189.049 97.233 188.194 96.2548C187.339 95.2766 186.258 94.5216 185.045 94.055L178.356 91.48V83.164H178.354ZM241.677 128.99C264.653 128.99 283.345 110.299 283.345 87.323C283.345 64.347 264.653 45.655 241.677 45.655C218.701 45.655 200.01 64.348 200.01 87.324C200.01 110.299 218.701 128.99 241.677 128.99ZM241.677 61.656C255.83 61.656 267.345 73.171 267.345 87.324C267.345 101.476 255.83 112.991 241.677 112.991C227.524 112.991 216.01 101.477 216.01 87.324C216.01 73.17 227.523 61.656 241.677 61.656ZM168.188 280.225C168.188 236.337 132.482 200.631 88.594 200.631C44.706 200.631 9 236.337 9 280.225C9 324.113 44.706 359.819 88.594 359.819C132.482 359.819 168.188 324.113 168.188 280.225ZM25.2 285.022C25.9427 286.016 26.9071 286.824 28.0166 287.38C29.126 287.936 30.35 288.225 31.591 288.225H37.771C39.8927 288.225 41.9276 287.382 43.4279 285.882C44.9281 284.382 45.771 282.347 45.771 280.225C45.771 278.103 44.9281 276.068 43.4279 274.568C41.9276 273.068 39.8927 272.225 37.771 272.225H31.591C30.35 272.225 29.126 272.514 28.0166 273.07C26.9071 273.626 25.9427 274.434 25.2 275.428C26.244 261.511 31.78 248.835 40.368 238.842C40.1994 240.063 40.3159 241.306 40.7084 242.475C41.1008 243.643 41.7585 244.704 42.63 245.576L47 249.945C47.7419 250.689 48.6235 251.279 49.5942 251.681C50.5648 252.083 51.6054 252.289 52.656 252.288C53.7069 252.29 54.7477 252.083 55.7186 251.681C56.6895 251.279 57.5712 250.688 58.313 249.944C59.8129 248.444 60.6555 246.409 60.6553 244.287C60.6551 242.166 59.8122 240.131 58.312 238.631L53.942 234.262C53.0703 233.391 52.0089 232.734 50.8409 232.341C49.6728 231.949 48.4297 231.832 47.209 232C57.203 223.412 69.879 217.875 83.797 216.831C82.8026 217.574 81.9953 218.538 81.439 219.648C80.8828 220.758 80.5932 221.982 80.593 223.223V229.402C80.593 231.524 81.4359 233.559 82.9361 235.059C84.4364 236.559 86.4713 237.402 88.593 237.402C90.7147 237.402 92.7496 236.559 94.2499 235.059C95.7501 233.559 96.593 231.524 96.593 229.402V223.223C96.5928 221.982 96.3032 220.758 95.747 219.648C95.1908 218.538 94.3834 217.574 93.389 216.831C107.307 217.875 119.984 223.412 129.978 232.001C128.757 231.832 127.514 231.948 126.345 232.34C125.177 232.732 124.115 233.39 123.243 234.261L118.873 238.63C117.754 239.749 116.992 241.174 116.683 242.726C116.375 244.278 116.533 245.886 117.138 247.348C117.744 248.81 118.769 250.059 120.085 250.938C121.4 251.818 122.947 252.287 124.529 252.287C125.58 252.288 126.62 252.082 127.591 251.68C128.562 251.278 129.443 250.688 130.185 249.944L134.555 245.575C135.427 244.703 136.084 243.641 136.477 242.473C136.869 241.304 136.986 240.06 136.817 238.839C145.406 248.833 150.943 261.51 151.986 275.428C151.243 274.434 150.279 273.626 149.169 273.07C148.059 272.514 146.835 272.224 145.594 272.224H139.415C137.293 272.224 135.258 273.067 133.758 274.567C132.258 276.067 131.415 278.102 131.415 280.224C131.415 282.346 132.258 284.381 133.758 285.881C135.258 287.381 137.293 288.224 139.415 288.224H145.594C146.835 288.224 148.059 287.934 149.169 287.378C150.279 286.822 151.243 286.014 151.986 285.02C150.942 298.938 145.406 311.615 136.817 321.609C136.986 320.388 136.869 319.144 136.477 317.975C136.084 316.807 135.426 315.745 134.555 314.873L130.185 310.504C129.445 309.748 128.563 309.145 127.588 308.732C126.614 308.319 125.568 308.104 124.51 308.098C123.452 308.092 122.403 308.296 121.424 308.698C120.446 309.101 119.556 309.693 118.808 310.441C118.06 311.19 117.468 312.079 117.066 313.058C116.664 314.036 116.46 315.085 116.466 316.143C116.472 317.201 116.688 318.248 117.101 319.222C117.514 320.196 118.116 321.078 118.873 321.818L123.243 326.187C123.985 326.931 124.867 327.521 125.837 327.923C126.808 328.325 127.848 328.531 128.899 328.53C129.26 328.53 129.619 328.497 129.977 328.449C119.983 337.038 107.306 342.574 93.388 343.618C94.3824 342.875 95.1898 341.911 95.746 340.801C96.3022 339.691 96.5919 338.467 96.592 337.226V331.047C96.592 328.925 95.7491 326.89 94.2489 325.39C92.7486 323.89 90.7137 323.047 88.592 323.047C86.4703 323.047 84.4354 323.89 82.9351 325.39C81.4349 326.89 80.592 328.925 80.592 331.047V337.226C80.592 338.467 80.8816 339.691 81.4378 340.801C81.9941 341.911 82.8015 342.875 83.796 343.618C69.878 342.574 57.201 337.038 47.207 328.449C47.565 328.497 47.924 328.53 48.284 328.53C49.3346 328.531 50.3752 328.325 51.3459 327.923C52.3165 327.521 53.1981 326.931 53.94 326.187L58.31 321.818C59.0666 321.078 59.6689 320.196 60.0821 319.222C60.4953 318.248 60.7112 317.201 60.7172 316.143C60.7232 315.085 60.5193 314.036 60.1172 313.058C59.7151 312.079 59.1228 311.19 58.3747 310.441C57.6265 309.693 56.7374 309.101 55.7587 308.698C54.7801 308.296 53.7313 308.092 52.6733 308.098C51.6152 308.104 50.5687 308.319 49.5946 308.732C48.6204 309.145 47.7378 309.748 46.998 310.504L42.628 314.873C41.7565 315.745 41.0988 316.806 40.7064 317.974C40.3139 319.143 40.1974 320.386 40.366 321.607C31.78 311.615 26.244 298.939 25.2 285.022ZM80.594 280.225V253.138C80.594 251.016 81.4369 248.981 82.9371 247.481C84.4374 245.981 86.4723 245.138 88.594 245.138C90.7157 245.138 92.7506 245.981 94.2509 247.481C95.7511 248.981 96.594 251.016 96.594 253.138V275.607L110.679 283.739C112.205 284.62 113.398 285.98 114.072 287.608C114.746 289.236 114.864 291.041 114.407 292.742C113.95 294.444 112.944 295.947 111.545 297.019C110.146 298.09 108.433 298.67 106.671 298.668C105.269 298.668 103.892 298.298 102.679 297.595L84.594 287.154C83.3777 286.452 82.3677 285.442 81.6656 284.225C80.9634 283.009 80.5939 281.629 80.594 280.225ZM340.409 469.431C340.759 470.422 340.91 471.472 340.854 472.521C340.798 473.57 340.535 474.598 340.082 475.546C339.629 476.494 338.993 477.343 338.212 478.045C337.43 478.747 336.518 479.288 335.527 479.638C312.144 487.89 287.602 492.075 262.585 492.075C224.348 492.075 186.703 482.076 153.723 463.158C121.74 444.813 94.673 418.475 75.451 386.991C74.3458 385.18 74.0051 383.004 74.5037 380.942C75.0023 378.88 76.2995 377.1 78.11 375.994C79.921 374.889 82.0968 374.548 84.159 375.047C86.2212 375.545 88.001 376.843 89.107 378.653C126.352 439.655 191.204 476.074 262.586 476.074C285.785 476.074 308.535 472.197 330.204 464.549C332.205 463.844 334.403 463.962 336.317 464.878C338.23 465.793 339.702 467.431 340.409 469.431ZM334.913 74.417C335.715 72.4527 337.264 70.8874 339.22 70.0654C341.176 69.2435 343.379 69.2322 345.343 70.034C385.173 86.293 419.117 113.717 443.506 149.341C468.487 185.831 481.692 228.582 481.692 272.97C481.692 294.151 478.672 315.097 472.717 335.228C472.227 336.882 471.216 338.334 469.835 339.367C468.453 340.4 466.774 340.959 465.049 340.96C463.804 340.96 462.576 340.67 461.463 340.112C460.35 339.555 459.382 338.745 458.637 337.748C457.892 336.75 457.39 335.593 457.171 334.367C456.952 333.141 457.022 331.882 457.376 330.688C462.895 312.032 465.692 292.613 465.692 272.969C465.692 190.031 416.079 116.189 339.296 84.846C338.323 84.4491 337.438 83.8646 336.692 83.1256C335.945 82.3867 335.351 81.5079 334.944 80.5394C334.537 79.571 334.325 78.5318 334.32 77.4813C334.314 76.4308 334.516 75.3896 334.913 74.417ZM65.145 177.862C80.481 146.08 103.602 118.121 132.008 97.008C133.713 95.7737 135.835 95.2608 137.915 95.5805C139.996 95.9002 141.866 97.0266 143.122 98.7158C144.377 100.405 144.917 102.521 144.623 104.605C144.329 106.689 143.226 108.573 141.553 109.85C115.211 129.428 93.773 155.351 79.555 184.816C79.0984 185.762 78.4599 186.609 77.676 187.309C76.892 188.008 75.978 188.546 74.9861 188.892C73.9942 189.238 72.9438 189.386 71.8949 189.326C70.846 189.266 69.8192 189.001 68.873 188.544C67.9268 188.087 67.0799 187.449 66.3804 186.665C65.681 185.881 65.1429 184.967 64.7967 183.975C64.4505 182.983 64.3031 181.933 64.3629 180.884C64.4226 179.835 64.6884 178.808 65.145 177.862ZM424.516 347.03C381.239 347.03 346.031 382.238 346.031 425.515C346.031 468.792 381.238 504 424.516 504C467.792 504 503 468.792 503 425.515C503 382.238 467.792 347.03 424.516 347.03ZM424.516 488C390.062 488 362.031 459.969 362.031 425.515C362.031 391.061 390.062 363.03 424.516 363.03C458.97 363.03 487 391.061 487 425.515C487 459.969 458.97 488 424.516 488ZM454.945 441.051C455.726 447.484 453.985 453.373 449.912 458.082C445.909 462.711 439.673 465.998 432.516 467.401V470.118C432.516 472.24 431.673 474.275 430.173 475.775C428.673 477.275 426.638 478.118 424.516 478.118C422.394 478.118 420.359 477.275 418.859 475.775C417.359 474.275 416.516 472.24 416.516 470.118V467.266C405.335 464.744 396.792 457.043 394.142 446.411C393.629 444.352 393.954 442.174 395.047 440.355C396.14 438.537 397.911 437.227 399.97 436.714C402.028 436.2 404.207 436.526 406.025 437.619C407.844 438.712 409.154 440.482 409.667 442.541C411.492 449.865 419.168 452.294 425.245 452.151C430.524 452.025 435.573 450.202 437.811 447.615C438.911 446.344 439.296 444.913 439.062 442.979C438.793 440.771 438.166 435.599 423.284 433.156C401.735 429.617 396.697 418.242 396.264 409.324C395.678 397.275 403.782 387.161 416.515 383.906V380.912C416.515 378.79 417.358 376.755 418.858 375.255C420.358 373.755 422.393 372.912 424.515 372.912C426.637 372.912 428.672 373.755 430.172 375.255C431.672 376.755 432.515 378.79 432.515 380.912V383.833C440.755 385.847 448.529 391.208 452.642 401.005C453.049 401.974 453.261 403.013 453.266 404.063C453.271 405.114 453.069 406.155 452.672 407.128C452.274 408.1 451.689 408.985 450.95 409.732C450.211 410.478 449.332 411.071 448.363 411.478C446.407 412.299 444.204 412.31 442.24 411.507C440.277 410.705 438.712 409.155 437.89 407.199C434.779 399.789 427.138 397.892 420.941 399.294C419.43 399.637 411.912 401.693 412.245 408.546C412.333 410.361 412.567 415.18 425.876 417.366C443.61 420.278 453.392 428.246 454.945 441.051Z" fill="#4185DD"/>
</svg>
