<svg width="512" height="512" viewBox="0 0 512 512" fill="none" xmlns="http://www.w3.org/2000/svg">
<path d="M473.936 406.064L395.184 327.312C414.074 296.165 424.042 260.427 424 224C424 113.72 334.28 24 224 24C113.72 24 24 113.72 24 224C24 334.28 113.72 424 224 424C261.776 424 297.144 413.464 327.312 395.184L406.064 473.936C415.424 483.296 427.704 487.968 440 487.968C452.296 487.968 464.584 483.296 473.936 473.936C482.921 464.927 487.967 452.723 487.967 440C487.967 427.277 482.921 415.073 473.936 406.064ZM40 224C40 122.544 122.544 40 224 40C325.456 40 408 122.544 408 224C408 325.456 325.456 408 224 408C122.544 408 40 325.456 40 224ZM386.136 340.888L408.968 363.72L363.72 408.968L340.888 386.136C358.283 373.558 373.558 358.283 386.136 340.888ZM462.624 462.624C456.618 468.613 448.482 471.977 440 471.977C431.518 471.977 423.382 468.613 417.376 462.624L375.032 420.28L420.28 375.032L462.624 417.376C468.613 423.382 471.977 431.518 471.977 440C471.977 448.482 468.613 456.618 462.624 462.624ZM224 56C131.36 56 56 131.36 56 224C56 316.64 131.36 392 224 392C316.64 392 392 316.64 392 224C392 131.36 316.64 56 224 56ZM224 376C140.184 376 72 307.816 72 224C72 140.184 140.184 72 224 72C307.816 72 376 140.184 376 224C376 307.816 307.816 376 224 376ZM244.784 116C240.448 108.48 232.672 104 224 104C215.328 104 207.552 108.48 203.216 116L120.072 260C117.942 263.64 116.819 267.782 116.819 272C116.819 276.218 117.942 280.36 120.072 284C122.16 287.666 125.187 290.71 128.841 292.819C132.495 294.928 136.645 296.026 140.864 296H307.136C311.354 296.025 315.502 294.926 319.154 292.817C322.807 290.708 325.833 287.665 327.92 284C330.05 280.36 331.173 276.218 331.173 272C331.173 267.782 330.05 263.64 327.92 260L244.784 116ZM314.064 276C313.373 277.226 312.366 278.244 311.147 278.948C309.929 279.652 308.543 280.015 307.136 280H140.864C136.688 280 134.624 277.2 133.936 276C133.248 274.8 131.848 271.608 133.936 268L217.072 124C219.152 120.392 222.616 120 224 120C225.384 120 228.848 120.392 230.928 124L314.064 268C316.152 271.608 314.76 274.8 314.064 276ZM216 208V168C216 165.878 216.843 163.843 218.343 162.343C219.843 160.843 221.878 160 224 160C226.122 160 228.157 160.843 229.657 162.343C231.157 163.843 232 165.878 232 168V208C232 210.122 231.157 212.157 229.657 213.657C228.157 215.157 226.122 216 224 216C221.878 216 219.843 215.157 218.343 213.657C216.843 212.157 216 210.122 216 208ZM238 248C238 255.72 231.72 262 224 262C216.28 262 210 255.72 210 248C210 240.28 216.28 234 224 234C231.72 234 238 240.28 238 248Z" fill="#4185DD"/>
</svg>
