<svg width="400" height="400" viewBox="0 0 400 400" fill="none" xmlns="http://www.w3.org/2000/svg">
<g clip-path="url(#clip0_21_50)">
<path d="M115.459 386.77H147.1C154.405 386.77 160.327 380.848 160.327 373.543V347.691C160.327 340.386 154.405 334.464 147.1 334.464H19.8864C12.5816 334.464 6.65955 340.386 6.65955 347.691V373.543C6.65955 380.848 12.5816 386.77 19.8864 386.77H88.1146M274.148 224.328L257.493 211.857C258.305 207.958 258.713 203.986 258.71 200.004C258.712 196.019 258.304 192.045 257.493 188.144L274.148 175.673C277.121 173.451 277.959 169.354 276.103 166.135L267.783 151.722C266.886 150.167 265.45 148.996 263.748 148.429C262.045 147.863 260.193 147.941 258.544 148.649L239.402 156.843C233.454 151.515 226.468 147.475 218.883 144.978L216.408 124.319C216.195 122.537 215.336 120.895 213.994 119.704C212.652 118.513 210.92 117.854 209.125 117.854H192.477C188.765 117.854 185.64 120.634 185.194 124.319L182.727 144.978C175.139 147.473 168.15 151.514 162.201 156.843L143.065 148.649C141.416 147.941 139.565 147.862 137.862 148.429C136.159 148.995 134.723 150.167 133.827 151.722L125.499 166.135C123.644 169.355 124.482 173.452 127.455 175.673L144.116 188.144C143.304 192.045 142.896 196.019 142.899 200.004C142.899 204.068 143.317 208.032 144.116 211.857L127.455 224.328C126.019 225.404 125.027 226.968 124.667 228.726C124.306 230.483 124.602 232.312 125.499 233.866L133.827 248.285C134.724 249.839 136.16 251.01 137.862 251.576C139.565 252.143 141.416 252.065 143.065 251.358L162.201 243.163C168.15 248.494 175.139 252.534 182.727 255.029L185.194 275.688C185.409 277.469 186.269 279.109 187.611 280.299C188.953 281.489 190.684 282.146 192.477 282.147H209.125C212.837 282.147 215.969 279.374 216.408 275.688L218.883 255.029C226.468 252.532 233.454 248.492 239.402 243.163L258.544 251.358C260.194 252.064 262.044 252.141 263.747 251.575C265.449 251.009 266.885 249.839 267.783 248.285L276.103 233.866C277 232.312 277.297 230.483 276.936 228.725C276.576 226.968 275.584 225.403 274.148 224.328ZM200.804 230.181C184.136 230.181 170.627 216.665 170.627 200.004C170.627 183.336 184.136 169.827 200.804 169.827C217.465 169.827 230.974 183.336 230.974 200.004C230.974 216.666 217.465 230.181 200.804 230.181ZM147.099 334.46H19.888C12.5823 334.46 6.66033 328.538 6.66033 321.232V295.376C6.66033 288.07 12.5823 282.148 19.888 282.148H147.099C154.404 282.148 160.326 288.07 160.326 295.376V321.232C160.326 328.538 154.404 334.46 147.099 334.46Z" stroke="#4185DD" stroke-width="15.0004" stroke-miterlimit="10" stroke-linecap="round" stroke-linejoin="round"/>
<path d="M35.8818 319.338C41.976 319.338 46.9162 314.398 46.9162 308.304C46.9162 302.21 41.976 297.27 35.8818 297.27C29.7877 297.27 24.8475 302.21 24.8475 308.304C24.8475 314.398 29.7877 319.338 35.8818 319.338Z" stroke="#4185DD" stroke-width="15.0004" stroke-miterlimit="10" stroke-linecap="round" stroke-linejoin="round"/>
<path d="M72.4585 319.338C78.5526 319.338 83.4929 314.398 83.4929 308.304C83.4929 302.21 78.5526 297.27 72.4585 297.27C66.3644 297.27 61.4241 302.21 61.4241 308.304C61.4241 314.398 66.3644 319.338 72.4585 319.338Z" stroke="#4185DD" stroke-width="15.0004" stroke-miterlimit="10" stroke-linecap="round" stroke-linejoin="round"/>
<path d="M35.8818 371.65C41.976 371.65 46.9162 366.71 46.9162 360.616C46.9162 354.522 41.976 349.582 35.8818 349.582C29.7877 349.582 24.8475 354.522 24.8475 360.616C24.8475 366.71 29.7877 371.65 35.8818 371.65Z" stroke="#4185DD" stroke-width="15.0004" stroke-miterlimit="10" stroke-linecap="round" stroke-linejoin="round"/>
<path d="M72.4585 371.65C78.5526 371.65 83.4929 366.71 83.4929 360.616C83.4929 354.522 78.5526 349.582 72.4585 349.582C66.3644 349.582 61.4241 354.522 61.4241 360.616C61.4241 366.71 66.3644 371.65 72.4585 371.65Z" stroke="#4185DD" stroke-width="15.0004" stroke-miterlimit="10" stroke-linecap="round" stroke-linejoin="round"/>
<path d="M105.767 308.304H140.378M105.767 360.616H140.378M365.762 143.155H383.598C388.981 143.155 393.341 138.795 393.341 133.412V15.5972C393.341 10.222 388.981 5.86255 383.598 5.86255H349.316C341.167 5.86255 333.347 9.097 327.581 14.8628L294.057 48.3948C288.297 54.1587 285.06 61.9731 285.057 70.1219V133.412C285.057 138.795 289.416 143.155 294.799 143.155H338.417" stroke="#4185DD" stroke-width="15.0004" stroke-miterlimit="10" stroke-linecap="round" stroke-linejoin="round"/>
<path d="M352.091 5.85962C343.528 5.85962 336.586 12.8012 336.586 21.3647V47.6575C336.586 53.0357 332.226 57.396 326.848 57.396H300.564C292.001 57.396 285.059 64.3376 285.059 72.901M314.783 85.4724H363.616M314.783 109.888H363.616M116.639 62.1453C125.155 56.9186 134.139 52.4888 143.467 48.9341L145.452 60.6843C146.233 65.3251 151.749 67.372 155.374 64.3797L192.64 33.5743C196.266 30.5743 195.289 24.7773 190.883 23.1366L145.577 6.25338C141.163 4.61271 136.631 8.3628 137.413 12.9957L139.538 25.621C105.576 37.5901 75.2237 59.6999 53.3716 88.5678C28.9257 120.865 16.0114 159.398 16.0114 200C16.0114 207.696 16.4879 215.422 17.4333 222.962C18.1677 228.837 23.1756 233.142 28.9492 233.142C29.4257 233.142 29.9179 233.11 30.4101 233.048C36.7775 232.251 41.2932 226.438 40.4963 220.071C39.6682 213.493 39.2541 206.735 39.2541 200C39.2541 164.499 50.5434 130.819 71.9033 102.599C78.611 93.7468 86.2168 85.6122 94.5991 78.3254M384.17 177.043C383.372 170.674 377.57 166.158 371.195 166.956C364.827 167.753 360.31 173.563 361.108 179.931C361.937 186.589 362.352 193.292 362.35 200.002C362.35 235.503 351.058 269.185 329.696 297.406C311.396 321.583 286.29 340.334 258.131 351.069L256.151 339.321C255.369 334.681 249.855 332.627 246.228 335.626L208.96 366.428C205.333 369.426 206.311 375.226 210.721 376.869L256.026 393.748C260.437 395.391 264.971 391.644 264.189 387.004L262.061 374.381C296.024 362.41 326.377 340.303 348.229 311.435C372.672 279.142 385.593 240.609 385.593 200.002C385.593 192.327 385.118 184.659 384.17 177.043Z" stroke="#4185DD" stroke-width="15.0004" stroke-miterlimit="10" stroke-linecap="round" stroke-linejoin="round"/>
</g>
<defs>
<clipPath id="clip0_21_50">
<rect width="400" height="400" fill="white"/>
</clipPath>
</defs>
</svg>
