<svg width="18" height="15" viewBox="0 0 18 15" fill="none" xmlns="http://www.w3.org/2000/svg">
<path d="M0.287706 6.79946L6.78814 0.287898C6.9737 0.102025 7.22101 0 7.48472 0C7.74872 0 7.99589 0.102171 8.18145 0.287898L8.77164 0.879231C8.95705 1.06481 9.0592 1.31269 9.0592 1.57699C9.0592 1.84114 8.95705 2.09737 8.77164 2.28295L4.97938 6.08998H17.0276C17.5708 6.08998 18 6.51596 18 7.06024L18 7.89623C18 8.4405 17.5708 8.90944 17.0276 8.90944L4.93635 8.90944L8.77149 12.7377C8.9569 12.9236 9.05905 13.1647 9.05905 13.429C9.05905 13.693 8.9569 13.9377 8.77149 14.1234L8.1813 14.7128C7.99574 14.8987 7.74857 15 7.48458 15C7.22087 15 6.97355 14.8974 6.788 14.7115L0.287561 8.2001C0.101562 8.01364 -0.000728607 7.76474 3.8147e-06 7.50015C-0.000581741 7.23468 0.101562 6.98563 0.287706 6.79946Z" fill="white"/>
</svg>
