<svg width="502" height="110" viewBox="0 0 502 110" fill="none" xmlns="http://www.w3.org/2000/svg">
<path d="M28.3759 24.8802C39.6059 20.7202 51.7259 19.2202 63.4959 21.6302C67.7174 22.5079 71.829 23.8494 75.7559 25.6302C73.4259 15.2102 67.4559 6.70025 57.9759 0.260254C56.0859 0.120254 54.1459 0.0302734 52.1559 0.0302734C34.2129 0.108495 16.8279 6.27487 2.84586 17.5203C0.462295 25.6462 -0.435423 34.1355 0.195862 42.5803C8.30764 34.8508 17.8909 28.8315 28.3759 24.8802Z" fill="url(#paint0_linear_28_37)"/>
<path d="M83.5759 29.3802C85.7959 48.4702 76.5759 65.2202 62.4759 77.3802C66.9978 76.7779 71.4516 75.7432 75.7759 74.2902C90.9959 69.0802 100.436 59.3802 103.836 45.4502C106.176 29.0802 101.476 17.4502 101.476 17.4502C92.6501 10.3834 82.4247 5.27073 71.4759 2.4502C78.2325 9.93649 82.4653 19.357 83.5759 29.3802Z" fill="url(#paint1_linear_28_37)"/>
<path d="M77.8759 81.1497C69.9341 83.7802 61.6316 85.1601 53.2659 85.2397C52.6259 85.2397 52.2659 85.2397 52.1559 85.2397C43.2859 79.3097 36.1559 72.8597 30.9659 65.9997C30.0559 64.8097 29.2059 63.5996 28.4159 62.3896C28.6459 63.9296 28.9159 65.4997 29.2359 67.0897C32.7659 84.8597 40.4659 98.9397 52.1759 109.18C72.6059 97.8897 85.3459 85.4496 93.1759 73.4796C88.4855 76.7827 83.3288 79.3678 77.8759 81.1497Z" fill="url(#paint2_linear_28_37)"/>
<path d="M22.1959 68.2301C20.1916 57.8071 19.5695 47.1655 20.3459 36.5801C13.322 40.441 6.98344 45.4348 1.58588 51.3601C4.82588 65.0101 13.2359 81.1101 32.5259 96.3101C27.5312 87.5961 24.039 78.1034 22.1959 68.2301Z" fill="url(#paint3_linear_28_37)"/>
<path d="M57.9759 0.22998C56.0859 0.0899805 54.1459 0 52.1559 0C34.2129 0.0782212 16.8279 6.2446 2.84586 17.49C47.2559 0.419991 75.7559 25.6 75.7559 25.6C73.4259 15.18 67.4559 6.66998 57.9759 0.22998Z" fill="url(#paint4_linear_28_37)"/>
<path d="M29.1059 93.4701C30.2059 94.4001 31.3459 95.3401 32.5259 96.2701C27.5325 87.5821 24.0339 78.1171 22.1759 68.2701C20.1747 57.8332 19.5594 47.1779 20.3459 36.5801C19.5726 37.7496 18.8713 38.9652 18.2459 40.2201C13.8105 49.0255 12.4698 59.0681 14.44 68.7287C16.4102 78.3892 21.5765 87.1048 29.1059 93.4701Z" fill="url(#paint5_linear_28_37)"/>
<path d="M92.9759 73.5801C88.3432 76.8389 83.255 79.3964 77.8759 81.1701C69.9341 83.8007 61.6316 85.1805 53.2659 85.2601C52.6359 85.2601 52.2659 85.2601 52.1659 85.2601C54.2192 86.6867 56.4192 88.1134 58.7659 89.5401C62.368 91.7954 66.6245 92.7723 70.8495 92.3133C75.0746 91.8544 79.0221 89.9863 82.0559 87.0101C86.1915 82.9603 89.8549 78.4549 92.9759 73.5801Z" fill="url(#paint6_linear_28_37)"/>
<path d="M103.836 45.4805C106.176 29.1105 101.476 17.4805 101.476 17.4805C101.476 17.4805 107.476 59.3105 62.4759 77.4005C66.9978 76.7982 71.4516 75.7635 75.7759 74.3105C90.9959 69.1105 100.436 59.4105 103.836 45.4805Z" fill="url(#paint7_linear_28_37)"/>
<path d="M52.1659 60.45C58.1692 60.45 63.0359 55.5833 63.0359 49.58C63.0359 43.5766 58.1692 38.71 52.1659 38.71C46.1625 38.71 41.2959 43.5766 41.2959 49.58C41.2959 55.5833 46.1625 60.45 52.1659 60.45Z" fill="url(#paint8_linear_28_37)"/>
<path d="M162.056 36.9198C160.056 33.5898 154.566 30.4198 148.236 30.4198C140.076 30.4198 136.156 33.8398 136.156 38.1698C136.156 43.2498 142.156 44.6698 149.156 45.4998C161.316 46.9998 172.646 50.1598 172.646 64.0698C172.646 77.0698 161.156 82.6398 148.156 82.6398C136.246 82.6398 127.086 78.9798 122.756 68.3198L131.916 63.5698C134.506 69.9798 141.246 72.8198 148.326 72.8198C155.236 72.8198 161.736 70.3998 161.736 64.0698C161.736 58.5698 155.986 56.3298 148.246 55.4898C136.336 54.0798 125.336 50.9098 125.336 37.8398C125.336 25.8398 137.166 20.9298 147.906 20.8398C156.986 20.8398 166.396 23.4198 170.816 32.4098L162.056 36.9198Z" fill="white"/>
<path d="M210.066 40.0899H219.806V81.1399H210.196L209.696 75.1399C207.356 79.9699 200.946 82.2999 196.366 82.3799C184.206 82.4699 175.216 74.9699 175.216 60.5599C175.216 46.3999 184.626 38.9899 196.616 39.0799C202.116 39.0799 207.356 41.6599 209.696 45.7399L210.066 40.0899ZM185.416 60.5799C185.416 68.4099 190.826 73.0799 197.576 73.0799C213.576 73.0799 213.576 48.1699 197.576 48.1699C190.826 48.1599 185.416 52.7399 185.416 60.5799Z" fill="white"/>
<path d="M253.196 81.1398V59.1398C253.196 53.7198 250.366 48.8098 244.786 48.8098C239.206 48.8098 236.046 53.7198 236.046 59.1398V81.1398H225.896V39.9998H235.316L236.066 44.9998C238.226 40.8398 242.976 39.3398 246.886 39.3398C251.806 39.3398 256.716 41.3398 259.046 46.9998C262.716 41.1698 267.456 39.4998 272.786 39.4998C284.446 39.4998 290.196 46.6598 290.196 58.9898V81.1398H280.036V58.9898C280.036 53.5798 277.786 48.9898 272.286 48.9898C266.786 48.9898 263.376 53.7298 263.376 59.1498V81.1498L253.196 81.1398Z" fill="white"/>
<path d="M306.666 40.0901V61.5801C306.666 67.8301 310.076 72.5801 316.576 72.5801C322.826 72.5801 327.066 67.3301 327.066 61.0801V40.0801H337.196V81.2201H328.116L327.456 75.6401C323.206 79.8001 319.296 81.8001 313.546 81.8001C303.716 81.8001 296.546 74.3901 296.546 61.6501V40.0901H306.666Z" fill="white"/>
<path d="M352.836 40.09L353.586 44.83C356.746 39.75 360.996 39 365.156 39C369.048 38.9389 372.823 40.3373 375.736 42.9199L371.196 51.75C370.211 50.8435 369.056 50.1409 367.798 49.6826C366.54 49.2244 365.203 49.0196 363.866 49.08C358.536 49.08 353.626 51.91 353.626 59.49V81.1399H343.426V40.09H352.836Z" fill="white"/>
<path d="M408.276 40.0899H418.016V81.1399H408.446L407.946 75.1399C405.606 79.9699 399.196 82.2999 394.616 82.3799C382.456 82.4699 373.466 74.9699 373.466 60.5599C373.466 46.3999 382.876 38.9899 394.866 39.0799C400.366 39.0799 405.606 41.6599 407.946 45.7399L408.276 40.0899ZM383.626 60.5799C383.626 68.4099 389.036 73.0799 395.786 73.0799C411.786 73.0799 411.786 48.1699 395.786 48.1699C389.036 48.1599 383.626 52.7399 383.626 60.5799Z" fill="white"/>
<path d="M451.006 22.8496L424.856 81.1396H436.766L441.766 70.1396H472.246L477.156 81.1396H489.156L462.996 22.8496H451.006ZM446.196 59.9096L457.026 35.0896L467.846 59.9096H446.196ZM490.976 22.8496V81.1396H501.886V22.8496H490.976Z" fill="url(#paint9_linear_28_37)"/>
<defs>
<linearGradient id="paint0_linear_28_37" x1="-3.90414" y1="21.2903" x2="40.1059" y2="21.2903" gradientUnits="userSpaceOnUse">
<stop stop-color="#4582DD"/>
<stop offset="1" stop-color="#8B1CCD"/>
</linearGradient>
<linearGradient id="paint1_linear_28_37" x1="83.4759" y1="70.6102" x2="83.4759" y2="11.5202" gradientUnits="userSpaceOnUse">
<stop stop-color="#45B4FF"/>
<stop offset="1" stop-color="#A92DCD"/>
</linearGradient>
<linearGradient id="paint2_linear_28_37" x1="46.7959" y1="65.5596" x2="72.2159" y2="90.9796" gradientUnits="userSpaceOnUse">
<stop stop-color="#4582DD"/>
<stop offset="1" stop-color="#8B1CCD"/>
</linearGradient>
<linearGradient id="paint3_linear_28_37" x1="17.0559" y1="49.1301" x2="17.0559" y2="82.2301" gradientUnits="userSpaceOnUse">
<stop stop-color="#4582DD"/>
<stop offset="1" stop-color="#8B1CCD"/>
</linearGradient>
<linearGradient id="paint4_linear_28_37" x1="49.8959" y1="12.8" x2="-15.8541" y2="12.8" gradientUnits="userSpaceOnUse">
<stop stop-color="#45B4FF"/>
<stop offset="1" stop-color="#A92DCD"/>
</linearGradient>
<linearGradient id="paint5_linear_28_37" x1="23.0259" y1="82.5301" x2="23.0259" y2="44.2601" gradientUnits="userSpaceOnUse">
<stop stop-color="#45B4FF"/>
<stop offset="1" stop-color="#A92DCD"/>
</linearGradient>
<linearGradient id="paint6_linear_28_37" x1="63.8859" y1="82.9601" x2="96.1059" y2="82.9601" gradientUnits="userSpaceOnUse">
<stop stop-color="#45B4FF"/>
<stop offset="1" stop-color="#A92DCD"/>
</linearGradient>
<linearGradient id="paint7_linear_28_37" x1="83.4759" y1="29.3705" x2="83.4759" y2="67.1005" gradientUnits="userSpaceOnUse">
<stop stop-color="#4582DD"/>
<stop offset="1" stop-color="#8B1CCD"/>
</linearGradient>
<linearGradient id="paint8_linear_28_37" x1="42.5659" y1="39.98" x2="64.8259" y2="62.24" gradientUnits="userSpaceOnUse">
<stop stop-color="#45B4FF"/>
<stop offset="1" stop-color="#A92DCD"/>
</linearGradient>
<linearGradient id="paint9_linear_28_37" x1="463.356" y1="27.4296" x2="463.356" y2="89.5296" gradientUnits="userSpaceOnUse">
<stop stop-color="#45B4FF"/>
<stop offset="1" stop-color="#A92DCD"/>
</linearGradient>
</defs>
</svg>
