<svg width="18" height="15" viewBox="0 0 18 15" fill="none" xmlns="http://www.w3.org/2000/svg">
<path d="M17.7123 6.79946L11.2119 0.287898C11.0263 0.102025 10.779 0 10.5153 0C10.2513 0 10.0041 0.102171 9.81855 0.287898L9.22836 0.879231C9.04295 1.06481 8.9408 1.31269 8.9408 1.57699C8.9408 1.84114 9.04295 2.09737 9.22836 2.28295L13.0206 6.08998H0.972431C0.429216 6.08998 0 6.51596 0 7.06024L1.46255e-07 7.89623C1.46255e-07 8.4405 0.429216 8.90944 0.972431 8.90944L13.0636 8.90944L9.22851 12.7377C9.0431 12.9236 8.94095 13.1647 8.94095 13.429C8.94095 13.693 9.0431 13.9377 9.22851 14.1234L9.8187 14.7128C10.0043 14.8987 10.2514 15 10.5154 15C10.7791 15 11.0264 14.8974 11.212 14.7115L17.7124 8.2001C17.8984 8.01364 18.0007 7.76474 18 7.50015C18.0006 7.23468 17.8984 6.98563 17.7123 6.79946Z" fill="white"/>
</svg>
